<svg id="Layer_1" data-name="Layer 1" xmlns="http://www.w3.org/2000/svg" viewBox="0 0 191.63 513.27"><defs><style>.cls-1{fill:#ceb4a7;}.cls-2{fill:#e1c9ba;}.cls-14,.cls-3{fill:#fff;}.cls-3{opacity:0.2;}.cls-4{fill:#1c343b;}.cls-5{fill:#d6513c;}.cls-6{fill:#bc3c2e;}.cls-15,.cls-19,.cls-7{fill:none;}.cls-8{fill:#ac2f29;}.cls-9{fill:#44322e;}.cls-10{fill:#4f3c38;}.cls-11{fill:#2b1e1c;}.cls-12{fill:#2f4447;}.cls-13{fill:#f2dfd0;}.cls-15{stroke:#cfce2c;}.cls-15,.cls-19{stroke-miterlimit:10;}.cls-16{fill:#d2bdb3;}.cls-17{fill:#e6d0c1;}.cls-18{fill:#d9c2b6;}.cls-19{stroke:#1c343b;stroke-width:5px;}.cls-20{fill:#f5e7dd;}.cls-21{fill:#364e52;}.cls-22{fill:#cfce2c;}.cls-23{fill:#e0d0c6;}</style></defs><title>aboutme</title><polyline class="cls-1" points="90.73 456.28 121.06 456.28 133.5 417.13 78.24 417.13 90.75 456.28"/><polyline class="cls-2" points="90.73 456.28 117.54 456.28 117.54 417.13 78.24 417.13 90.75 456.28"/><path class="cls-3" d="M124.66,511H87.15a9.79,9.79,0,0,1-9.46-12.28l10.39-39.67-11.91-37.3h59.46l-11.91,37.29,10.39,39.67A9.8,9.8,0,0,1,124.66,511Z"/><path class="cls-3" d="M105.56,421.78H76.17l11.91,37.29L77.69,498.74A9.8,9.8,0,0,0,87.15,511H105Z"/><path class="cls-4" d="M134.85,481.59a1.39,1.39,0,0,1-1.34-1l-5.76-21.32a1.39,1.39,0,0,1,2.68-.72l5.76,21.32a1.39,1.39,0,0,1-1.34,1.75Z"/><path class="cls-5" d="M126.43,457.14l2.74-8.58a1.78,1.78,0,0,0-1.7-2.32H84.34a1.78,1.78,0,0,0-1.7,2.32l2.74,8.58a7,7,0,0,1,.1,3.9l-2.18,8.32A1.78,1.78,0,0,0,85,471.6h41.76a1.78,1.78,0,0,0,1.72-2.23L126.32,461A7,7,0,0,1,126.43,457.14Z"/><path class="cls-6" d="M98.59,458.57a11.61,11.61,0,0,0-5.3,1.61,12.51,12.51,0,0,0-4.72,4.5,21.74,21.74,0,0,0-2.34,6.91H87.3a20.78,20.78,0,0,1,2.18-6.39,12,12,0,0,1,9.12-5.59,6.52,6.52,0,0,1,4.62,2.28,20.39,20.39,0,0,1,4,6.48c.42,1,.81,2.1,1.16,3.23h1.09c-.39-1.27-.82-2.49-1.29-3.63C105.63,461.91,102.24,458.57,98.59,458.57Z"/><path class="cls-6" d="M101.48,467.14c-.69-2-1.34-3.89-2.89-3.89-2.52,0-4.84,2.7-6.53,7.61-.08.24-.16.49-.24.73h1.09l.13-.4c1.51-4.39,3.54-6.91,5.55-6.91.81,0,1.34,1.55,1.91,3.19a22.63,22.63,0,0,0,1.15,2.91l.62,1.22h1.16c-.29-.58-.58-1.14-.85-1.69A21.86,21.86,0,0,1,101.48,467.14Z"/><path class="cls-6" d="M89.32,459a12.23,12.23,0,0,0,5.85-10.4v-2.4h-1v2.4a11.21,11.21,0,0,1-5.34,9.51,12.21,12.21,0,0,0-3.32,3l-2.16,8.23a1.78,1.78,0,0,0-.06.56l1.11-4.22A11.12,11.12,0,0,1,89.32,459Z"/><path class="cls-6" d="M105.6,458.3a11.16,11.16,0,0,1-6.8-8.52l-.58-3.55H97.16l.61,3.71a12.2,12.2,0,0,0,7.43,9.32,11.12,11.12,0,0,1,6,5.77l2.94,6.56h1.14l-3.13-7A12.15,12.15,0,0,0,105.6,458.3Z"/><path class="cls-6" d="M102.53,454.13a5.57,5.57,0,0,0,9.64,0,11.22,11.22,0,0,0,1.92-6.48,12.87,12.87,0,0,0-.08-1.41h-1a11.78,11.78,0,0,1,.08,1.41c0,4.53-2.56,8.21-5.7,8.21s-5.7-3.68-5.7-8.21a11.78,11.78,0,0,1,.08-1.41h-1a12.87,12.87,0,0,0-.08,1.41A11.22,11.22,0,0,0,102.53,454.13Z"/><path class="cls-6" d="M88.77,453.73a12.63,12.63,0,0,0,2.16-7.29c0-.07,0-.14,0-.21h-1c0,.07,0,.14,0,.21,0,4.42-2.14,8.13-5,9.11l.32,1A7.34,7.34,0,0,0,88.77,453.73Z"/><path class="cls-6" d="M116.81,459.83l-.49-3a8.62,8.62,0,0,1,4.12-8.79,9.65,9.65,0,0,0,2.18-1.77h-1.49a8.55,8.55,0,0,1-1.22.88,9.66,9.66,0,0,0-4.61,9.85l.49,3a9.73,9.73,0,0,0,2.79,5.38l6.37,6.22h1.49l-7.13-7A8.68,8.68,0,0,1,116.81,459.83Z"/><path class="cls-6" d="M83.77,452.09l.33,1A7,7,0,0,0,86,451.26a10.47,10.47,0,0,0,1.79-5h-1A8.27,8.27,0,0,1,83.77,452.09Z"/><path class="cls-6" d="M98.59,468.26c-1.44,0-2.78,1.17-3.88,3.33h1.17c.84-1.48,1.78-2.29,2.71-2.29.47,0,.87,1.15,1.22,2.17l0,.12H101l-.16-.46C100.28,469.66,99.8,468.26,98.59,468.26Z"/><path class="cls-7" d="M127.52,465.61l-1.43-.84a6.41,6.41,0,0,1-2.64-3l-.77-1.81a6.36,6.36,0,0,1,1.38-7,5.35,5.35,0,0,0,1.53-3.06l.51-3.65H111.85a6.68,6.68,0,0,1-1.15,3.65,3.68,3.68,0,0,1-3,1.71c-1,0-1.4-1.07-1.73-1.92a5.3,5.3,0,0,0-.51-1.11,2.53,2.53,0,0,0-.71-.61,2.15,2.15,0,0,1-1.18-1.71H84.34a1.78,1.78,0,0,0-1.7,2.32l2.74,8.58a7,7,0,0,1,.1,3.9l-2.18,8.32A1.78,1.78,0,0,0,85,471.6h41.76a1.78,1.78,0,0,0,1.72-2.23Z"/><path class="cls-7" d="M105.34,447.08a3.44,3.44,0,0,1,1,.87,6,6,0,0,1,.64,1.35c.21.56.47,1.25.75,1.25,1.65,0,3-1.91,3.09-4.31h-6.17C104.7,446.65,104.95,446.81,105.34,447.08Z"/><path class="cls-7" d="M124.79,453.68a5.3,5.3,0,0,0-1.16,5.88l.77,1.81a5.36,5.36,0,0,0,2.21,2.5l.53.31-.82-3.15a7,7,0,0,1,.1-3.9l2.74-8.58a1.78,1.78,0,0,0-1.7-2.32h-.32l-.53,3.8A6.4,6.4,0,0,1,124.79,453.68Z"/><path class="cls-6" d="M124.06,452.94a6.36,6.36,0,0,0-1.38,7l.77,1.81a6.41,6.41,0,0,0,2.64,3l1.43.84-.37-1.42-.53-.31a5.36,5.36,0,0,1-2.21-2.5l-.77-1.81a5.3,5.3,0,0,1,1.16-5.88,6.4,6.4,0,0,0,1.83-3.65l.53-3.8h-1l-.51,3.65A5.35,5.35,0,0,1,124.06,452.94Z"/><path class="cls-6" d="M104.77,447.94a2.53,2.53,0,0,1,.71.61,5.3,5.3,0,0,1,.51,1.11c.32.86.72,1.92,1.73,1.92a3.68,3.68,0,0,0,3-1.71,6.68,6.68,0,0,0,1.15-3.65h-1c-.09,2.4-1.44,4.31-3.09,4.31-.28,0-.54-.69-.75-1.25a6,6,0,0,0-.64-1.35,3.44,3.44,0,0,0-1-.87c-.4-.26-.64-.43-.71-.84h-1A2.15,2.15,0,0,0,104.77,447.94Z"/><circle class="cls-5" cx="129.36" cy="459.02" r="3.12"/><path class="cls-6" d="M129.39,462.14a3.12,3.12,0,0,1,0-6.24Z"/><path class="cls-6" d="M133.47,455.38v0l0,0Z"/><path class="cls-6" d="M131.2,457.89a3.18,3.18,0,0,0,1-.16,3.12,3.12,0,0,0-.63-.91,2.13,2.13,0,0,1-.37,0c-.18,0-.36-.3-.52-.66a3.1,3.1,0,0,0-1.23-.29l0,.07C129.8,456.83,130.2,457.89,131.2,457.89Z"/><path class="cls-8" d="M129,457.1a3.46,3.46,0,0,0-1-.87h0a3.13,3.13,0,0,0-.79.55h0l-.1.1.32.22a2.53,2.53,0,0,1,.71.61,5.29,5.29,0,0,1,.52,1.11,4.53,4.53,0,0,0,.73,1.42V457.8A7.13,7.13,0,0,0,129,457.1Z"/><path class="cls-8" d="M127.7,461.58c.16-.9.37-2-.49-2.54a3.18,3.18,0,0,0-.94-.37v.22s0,.08,0,.11,0,0,0,0,0,.08,0,.11v.29c0,.1,0,.2.06.3v0a2.13,2.13,0,0,1,.33.16c.16.1.16.44.11.83l.08.11.08.1,0,0,.06.07,0,0,.05.05.06.06,0,0,.08.08,0,0,.11.09h0l.26.19Z"/><path class="cls-6" d="M127.14,456.77h0Z"/><path class="cls-6" d="M132.37,458.52a2.64,2.64,0,0,1-2.07,1.17c-.28,0-.53-.69-.74-1.25-.08-.22-.17-.43-.24-.64v2.43a1.29,1.29,0,0,0,1,.5,3.28,3.28,0,0,0,1.91-.63,3.08,3.08,0,0,0,.15-1.58Z"/><path class="cls-6" d="M126.27,459.77h0v0Z"/><path class="cls-6" d="M126.18,459s0-.08,0-.11S126.18,459,126.18,459Z"/><path class="cls-6" d="M127,461.18l-.05-.05Z"/><path class="cls-6" d="M126.18,459.15s0-.08,0-.11S126.18,459.12,126.18,459.15Z"/><path class="cls-6" d="M126.21,459.45v0Z"/><path class="cls-6" d="M127,461.08l-.06-.07Z"/><path class="cls-6" d="M126.19,459.3v0Z"/><path class="cls-6" d="M126.2,458.67v0Z"/><path class="cls-6" d="M126.87,461l-.08-.1Z"/><path class="cls-6" d="M127.24,461.37l0,0Z"/><path class="cls-6" d="M127.35,461.46h0Z"/><path class="cls-6" d="M126.18,458.84v0Z"/><path class="cls-6" d="M127.14,461.27l0,0Z"/><path class="cls-7" d="M126.89,461l0,0Z"/><path class="cls-7" d="M127.1,461.24l-.06-.06Z"/><path class="cls-7" d="M127.35,461.46l-.11-.09Z"/><path class="cls-7" d="M127.22,461.35l-.08-.08Z"/><path class="cls-7" d="M127,461.12l0,0Z"/><path class="cls-7" d="M126.6,459.93a2.13,2.13,0,0,0-.33-.16,3.1,3.1,0,0,0,.52,1.1l-.08-.11C126.76,460.37,126.76,460,126.6,459.93Z"/><path class="cls-7" d="M126.19,458.73v0Z"/><path class="cls-7" d="M126.26,459.75c0-.1,0-.2-.06-.3Q126.23,459.6,126.26,459.75Z"/><path class="cls-7" d="M126.18,458.88v0Z"/><path class="cls-7" d="M128.07,457.7a2.53,2.53,0,0,0-.71-.61l-.32-.22.1-.1a3.11,3.11,0,0,0-.94,1.89,3.18,3.18,0,0,1,.94.37c.86.52.65,1.64.49,2.54v.07a2.93,2.93,0,0,1-.25-.19,3.08,3.08,0,0,0,2,.68v-1.9a4.53,4.53,0,0,1-.73-1.42A5.29,5.29,0,0,0,128.07,457.7Z"/><path class="cls-7" d="M126.2,459.35v0Z"/><path class="cls-7" d="M126.18,459.2v0Z"/><path class="cls-7" d="M126.18,459v0s0,0,0,0Z"/><path class="cls-4" d="M129.12,460.3H85.67a1.39,1.39,0,0,1,0-2.77h43.44a1.39,1.39,0,0,1,0,2.77Z"/><path class="cls-9" d="M125.25,479H86.56l-4.64,17.67a8.29,8.29,0,0,0,8,10.39h31.88a8.29,8.29,0,0,0,8-10.39Z"/><path class="cls-10" d="M105.07,507.07H90a8.29,8.29,0,0,1-8-10.39L86.57,479h18.64Z"/><circle class="cls-11" cx="104.41" cy="481.16" r="0.62"/><circle class="cls-11" cx="104.71" cy="501.39" r="1.5"/><circle class="cls-11" cx="108.8" cy="495.97" r="1.08"/><circle class="cls-11" cx="99.77" cy="493.04" r="1.08"/><circle class="cls-11" cx="106.21" cy="488.88" r="0.65"/><circle class="cls-11" cx="101.42" cy="485.16" r="0.65"/><path class="cls-4" d="M182.08,506.93v-2.34a11.45,11.45,0,0,0,6.45-2.11,1.76,1.76,0,0,0,.76-1.45V489.75a1.76,1.76,0,0,0-1.76-1.76h-5.45v-2.34h5.45a4.1,4.1,0,0,1,4.1,4.1V501a4.1,4.1,0,0,1-1.77,3.37A13.78,13.78,0,0,1,182.08,506.93Z"/><path class="cls-12" d="M147.74,482.26h34.34a0,0,0,0,1,0,0v26.18a1.73,1.73,0,0,1-1.73,1.73H149.47a1.73,1.73,0,0,1-1.73-1.73V482.26A0,0,0,0,1,147.74,482.26Z"/><rect class="cls-13" x="145.86" y="479.61" width="38.09" height="2.65" rx="1.33" ry="1.33"/><rect class="cls-14" x="153.24" y="498.15" width="22.85" height="0.22"/><rect class="cls-14" x="153.24" y="492.99" width="22.85" height="0.22"/><path class="cls-14" d="M157.19,490.4l-.37.16.09.21.35-.15.09.21L157,491l.11.24.37-.16.09.21-.62.28-.49-1.1.62-.28Z"/><path class="cls-14" d="M158.14,490.11a.29.29,0,0,0-.22,0,.15.15,0,0,0-.1.08.11.11,0,0,0,0,.08.08.08,0,0,0,0,.05.48.48,0,0,0,.17,0h.1a.48.48,0,0,1,.18,0,.3.3,0,0,1,.16.18.43.43,0,0,1,0,.31.46.46,0,0,1-.28.23.51.51,0,0,1-.24,0,.75.75,0,0,1-.21-.06l.07-.23.14,0a.28.28,0,0,0,.16,0,.19.19,0,0,0,.1-.08.12.12,0,0,0,0-.11.11.11,0,0,0-.07-.07.58.58,0,0,0-.15,0h-.1a.4.4,0,0,1-.19,0,.3.3,0,0,1-.14-.17.37.37,0,0,1,0-.29.39.39,0,0,1,.24-.2.58.58,0,0,1,.37,0Z"/><path class="cls-14" d="M159,489.77l.27.93-.27.08-.27-.93-.25.07-.07-.22.77-.22.07.22Z"/><path class="cls-14" d="M160.32,490.21l-.44.1,0,.24-.28.06.2-1.28.25-.06.73,1.06-.28.06Zm-.12-.19-.23-.36-.05.43Z"/><path class="cls-14" d="M161.13,489.07a.45.45,0,0,1,.32,0,.31.31,0,0,1,.12.21.28.28,0,0,1,0,.16.22.22,0,0,1-.09.1.31.31,0,0,1,.18.05.29.29,0,0,1,.11.2.33.33,0,0,1-.05.25.45.45,0,0,1-.3.15l-.45.07-.19-1.18Zm0,.5h0a.25.25,0,0,0,.13-.06.13.13,0,0,0,0-.11.12.12,0,0,0-.06-.09.23.23,0,0,0-.15,0h0Zm.08.49h.07a.31.31,0,0,0,.19-.08.13.13,0,0,0,0-.11.13.13,0,0,0-.05-.09.31.31,0,0,0-.2,0h-.07Z"/><path class="cls-14" d="M162.25,488.91l.11,1,.37,0,0,.23-.64.07-.13-1.19Z"/><path class="cls-14" d="M163.2,488.82l.09,1.2-.28,0-.09-1.2Z"/><path class="cls-14" d="M164.24,489.07a.29.29,0,0,0-.2-.08.15.15,0,0,0-.12,0,.11.11,0,0,0,0,.08.08.08,0,0,0,0,.07.48.48,0,0,0,.15.06l.09,0a.48.48,0,0,1,.17.09.3.3,0,0,1,.1.22.43.43,0,0,1-.09.3.47.47,0,0,1-.34.14.51.51,0,0,1-.24,0,.76.76,0,0,1-.18-.12l.14-.2.12.09a.28.28,0,0,0,.15,0,.19.19,0,0,0,.12,0,.12.12,0,0,0,0-.1.11.11,0,0,0,0-.08.59.59,0,0,0-.14-.06l-.1,0a.4.4,0,0,1-.17-.09.29.29,0,0,1-.08-.21.37.37,0,0,1,.09-.27.39.39,0,0,1,.29-.12.58.58,0,0,1,.36.11Z"/><path class="cls-14" d="M165,489.22h.48v-.46h.28l0,1.2h-.28v-.51H165V490h-.28l0-1.2H165Z"/><path class="cls-14" d="M166.86,489.08l-.4,0,0,.23.38,0,0,.23-.38,0,0,.27.4,0,0,.23-.68,0,.09-1.2.68,0Z"/><path class="cls-14" d="M167.63,488.93a.63.63,0,0,1,.45.22.63.63,0,0,1-.1.85.65.65,0,0,1-.49.12l-.38,0,.15-1.19Zm-.22.94h.07a.43.43,0,0,0,.28,0,.37.37,0,0,0,.15-.27.35.35,0,0,0-.07-.27.39.39,0,0,0-.28-.14h-.07Z"/><path class="cls-14" d="M169.73,490.52l-.9-.19.43-.31.24-.2a.4.4,0,0,0,.11-.18.17.17,0,0,0,0-.13.16.16,0,0,0-.1-.06.14.14,0,0,0-.12,0,.24.24,0,0,0-.08.13l-.27-.06a.52.52,0,0,1,.18-.27.44.44,0,0,1,.35-.05.43.43,0,0,1,.28.18.4.4,0,0,1,0,.3.43.43,0,0,1-.14.24,1.56,1.56,0,0,1-.23.16l-.15.09.4.09Z"/><path class="cls-14" d="M170.79,490.7a.45.45,0,0,1-.34,0,.44.44,0,0,1-.27-.21.82.82,0,0,1,.27-1,.44.44,0,0,1,.34,0,.45.45,0,0,1,.28.21.82.82,0,0,1-.27,1Zm-.18-.93a.52.52,0,0,0-.19.3.53.53,0,0,0,0,.36.16.16,0,0,0,.21.06.53.53,0,0,0,.19-.3.52.52,0,0,0,0-.36.16.16,0,0,0-.21-.06Z"/><path class="cls-14" d="M171.67,490.08l-.16-.06.08-.22.42.15-.4,1.13-.26-.09Z"/><path class="cls-14" d="M172.3,490.44a.48.48,0,0,1,.22-.2.41.41,0,0,1,.32,0,.44.44,0,0,1,.25.22.33.33,0,0,1,0,.26.26.26,0,0,1-.11.13.22.22,0,0,1-.11,0,.29.29,0,0,1,.09.14.34.34,0,0,1,0,.2.37.37,0,0,1-.22.2.44.44,0,0,1-.33,0,.46.46,0,0,1-.27-.25.51.51,0,0,1,0-.32l.25.11a.23.23,0,0,0,0,.15.19.19,0,0,0,.1.1.18.18,0,0,0,.13,0,.17.17,0,0,0,.09-.09.15.15,0,0,0,0-.13.24.24,0,0,0-.12-.09h0l.08-.17h0a.21.21,0,0,0,.12,0,.14.14,0,0,0,.08-.08.13.13,0,0,0,0-.1.15.15,0,0,0-.08-.07.15.15,0,0,0-.11,0,.19.19,0,0,0-.08.08Z"/><path class="cls-14" d="M158.46,500.5l-.37-.15-.09.22.35.14-.09.22-.35-.14-.1.25.37.15-.09.22-.63-.25.44-1.11.63.25Z"/><path class="cls-14" d="M159.34,500.85a.29.29,0,0,0-.17-.14.15.15,0,0,0-.12,0,.11.11,0,0,0-.05.06.08.08,0,0,0,0,.07.49.49,0,0,0,.12.11l.08.06a.48.48,0,0,1,.13.14.3.3,0,0,1,0,.24.43.43,0,0,1-.19.25.46.46,0,0,1-.36,0,.51.51,0,0,1-.21-.12.76.76,0,0,1-.13-.18l.2-.15.08.12a.28.28,0,0,0,.13.09.19.19,0,0,0,.13,0,.13.13,0,0,0,.07-.08.11.11,0,0,0,0-.09.59.59,0,0,0-.11-.11l-.08-.06a.41.41,0,0,1-.13-.14.29.29,0,0,1,0-.22.37.37,0,0,1,.18-.23.39.39,0,0,1,.32,0,.58.58,0,0,1,.3.22Z"/><path class="cls-14" d="M160.22,501,160,502l-.27-.07.23-.94-.25-.06.06-.23.78.19-.06.23Z"/><path class="cls-14" d="M161.37,501.26l-.39-.07,0,.23.37.07,0,.23-.37-.07,0,.26.39.07,0,.23-.67-.13.22-1.18.67.13Z"/><path class="cls-14" d="M162.3,501.45a.29.29,0,0,0-.19-.11.15.15,0,0,0-.12,0,.11.11,0,0,0,0,.07.08.08,0,0,0,0,.07.48.48,0,0,0,.14.09l.08,0a.48.48,0,0,1,.15.11.3.3,0,0,1,.06.23.43.43,0,0,1-.14.28.46.46,0,0,1-.35.08.51.51,0,0,1-.23-.08.77.77,0,0,1-.16-.15l.17-.18.1.11a.28.28,0,0,0,.14.06.19.19,0,0,0,.13,0,.12.12,0,0,0,.06-.09.11.11,0,0,0,0-.09.58.58,0,0,0-.13-.08l-.09,0a.41.41,0,0,1-.15-.12.29.29,0,0,1,0-.22.37.37,0,0,1,.14-.25.39.39,0,0,1,.31-.07.58.58,0,0,1,.34.16Z"/><path class="cls-14" d="M163.73,501.29a.45.45,0,0,1,.31.12.37.37,0,0,1,.1.3.39.39,0,0,1-.12.28.41.41,0,0,1-.31.09h-.17l0,.42-.28,0,.07-1.2Zm-.18.54h.1a.21.21,0,0,0,.15,0,.17.17,0,0,0,.05-.12.16.16,0,0,0,0-.12.22.22,0,0,0-.15-.05h-.09Z"/><path class="cls-14" d="M165,502.29h-.45l-.09.23h-.29l.49-1.19h.25l.46,1.2h-.29Zm-.07-.21-.14-.4-.15.4Z"/><path class="cls-14" d="M166,501.28a.43.43,0,0,1,.31.09.36.36,0,0,1,.12.26.33.33,0,0,1-.08.25.38.38,0,0,1-.16.1l.39.47-.34,0-.35-.45,0,.47-.28,0-.07-1.2Zm-.11.55H166a.23.23,0,0,0,.16-.06.16.16,0,0,0,0-.12.14.14,0,0,0-.06-.12.27.27,0,0,0-.15,0h-.06Z"/><path class="cls-14" d="M167.12,501.7l.35-.54.34,0-.42.62.59.57-.35,0-.49-.48.06.53-.28,0-.14-1.19.28,0Z"/><path class="cls-14" d="M170.72,501.66a.55.55,0,0,1-.24.13.64.64,0,0,1-.5,0,.64.64,0,0,1-.24-.87.64.64,0,0,1,.39-.28.71.71,0,0,1,.29,0l.08.31a.38.38,0,0,0-.3,0,.34.34,0,0,0-.21.15.38.38,0,0,0,0,.3.36.36,0,0,0,.17.23.36.36,0,0,0,.28,0,.38.38,0,0,0,.23-.19Z"/><path class="cls-14" d="M171.74,500.23a.64.64,0,0,1,.31.85.64.64,0,0,1-.37.33.66.66,0,0,1-.5,0,.61.61,0,0,1-.33-.35.67.67,0,0,1,0-.49.71.71,0,0,1,.87-.33Zm-.62.43a.37.37,0,0,0,0,.29.36.36,0,0,0,.2.21.35.35,0,0,0,.28,0,.36.36,0,0,0,.21-.19.36.36,0,0,0,0-.29.38.38,0,0,0-.19-.22.39.39,0,0,0-.28,0A.37.37,0,0,0,171.12,500.65Z"/><path class="cls-14" d="M154.86,495.31s0,0,0,0,0,0-.05-.1a.52.52,0,0,0-.13-.28.41.41,0,0,0-.27-.07h-.13v1.62s0,.07,0,.09l.19,0s0,0,0,0,0,0,0,0h-.83s0,0,0,0,0,0,0,0h.09c.1,0,.15,0,.16-.07s0-.2,0-.54v-1.13h-.07a.49.49,0,0,0-.31.08.42.42,0,0,0-.13.28q0,.12,0,.12s0,0,0,0,0-.06,0-.15,0-.29,0-.36h1.49q0,.17,0,.44Z"/><path class="cls-14" d="M156.94,496.65s0,0,0,0h-.76c-.06,0-.08,0-.08,0s0,0,.07,0l.1,0s0,0,0,0,0,0,0-.09v-.75h-.63v.82s0,.07.11.08h.1v0s0,0,0,0h-.78s0,0,0,0,0,0,0,0a.34.34,0,0,0,.17,0s0-.06,0-.14V495c0-.06,0-.09,0-.1l-.15,0s0,0,0,0l0,0h.79s0,0,0,0,0,0,0,0h-.09c-.05,0-.08,0-.09,0a.24.24,0,0,0,0,.11v.63h.63V495q0-.18-.13-.18c-.06,0-.09,0-.09,0s0,0,0,0h.81s0,0,0,0,0,0-.1,0-.11,0-.12,0a.35.35,0,0,0,0,.17v1.31c0,.12,0,.18,0,.21a.27.27,0,0,0,.15,0S156.94,496.63,156.94,496.65Z"/><path class="cls-14" d="M158.62,496.19s0,.09,0,.25v.24q-.7,0-1.23,0h-.22s0,0,0,0v0h.08c.08,0,.13,0,.14-.07a.5.5,0,0,0,0-.08v-1.35q0-.16,0-.18a.07.07,0,0,0,0-.06l-.1,0c-.06,0-.08,0-.08,0s0,0,.07,0h1.33l0,.29c0,.09,0,.15,0,.17a0,0,0,0,1,0,0s0,0,0-.07a.36.36,0,0,0-.15-.27.66.66,0,0,0-.37-.08h-.26v.79a.92.92,0,0,0,.37,0q.08,0,.1-.23c0-.07,0-.1,0-.1s0,0,0,0,0,.1,0,.2,0,.08,0,.14,0,.27,0,.35a.25.25,0,0,1,0,0s0,0,0,0h0a.56.56,0,0,1,0-.09.47.47,0,0,0-.07-.24.33.33,0,0,0-.22,0h-.18v.89h.53a.38.38,0,0,0,.15-.06.29.29,0,0,0,.09-.11,1.27,1.27,0,0,0,.05-.23s0,0,0,0S158.62,496.16,158.62,496.19Z"/><path class="cls-14" d="M161.21,496.08s0,0-.1,0-.12,0-.13.05,0,.09,0,.21v.11a1.09,1.09,0,0,1-.6.21.84.84,0,0,1-.63-.27.92.92,0,0,1-.25-.66,1,1,0,0,1,.26-.7.86.86,0,0,1,.66-.28.8.8,0,0,1,.34.08l.09,0s.05,0,.07-.06,0,0,0,0,0,0,0,0v.11s0,.07,0,.15,0,.15,0,.28,0,.05,0,.05,0,0-.05-.11a.68.68,0,0,0-.15-.37.33.33,0,0,0-.25-.1q-.5,0-.5.89a1.33,1.33,0,0,0,.17.77.33.33,0,0,0,.28.14q.22,0,.22-.28a.75.75,0,0,0,0-.23s0,0-.09,0h-.07s-.06,0-.06,0,0,0,0,0h.74S161.21,496.07,161.21,496.08Z"/><path class="cls-14" d="M163.05,496.55q0,.15-.19.15a.51.51,0,0,1-.39-.15.45.45,0,0,1-.13-.26l0-.22a.57.57,0,0,0-.1-.29.28.28,0,0,0-.23-.08v.61q0,.21,0,.23a.06.06,0,0,0,0,.06l.14,0s.06,0,.06,0,0,0,0,0h-.8s0,0,0,0,0,0,.11,0,.1,0,.11,0a.43.43,0,0,0,0-.11v-1.38a1.32,1.32,0,0,0,0-.16.05.05,0,0,0,0,0l-.12,0s-.06,0-.06,0,0,0,0,0H162a1.48,1.48,0,0,1,.51.06.39.39,0,0,1,.17.14.35.35,0,0,1,.06.2.4.4,0,0,1-.27.38,1.21,1.21,0,0,1-.35.08v0a.62.62,0,0,1,.42.15.7.7,0,0,1,.16.44.7.7,0,0,0,.07.3.12.12,0,0,0,.09.06s0,0,0,0l0,0a.06.06,0,0,1,0-.05s0-.07.08-.07S163.05,496.49,163.05,496.55Zm-.67-1.34q0-.34-.27-.34-.09,0-.11.06a1.6,1.6,0,0,0,0,.29v.44a.37.37,0,0,0,.3-.1A.52.52,0,0,0,162.38,495.2Z"/><path class="cls-14" d="M164.71,496.19s0,.09,0,.25v.24q-.7,0-1.23,0h-.22s0,0,0,0v0h.08c.08,0,.13,0,.14-.07a.5.5,0,0,0,0-.08v-1.35q0-.16,0-.18a.07.07,0,0,0,0-.06l-.1,0c-.06,0-.08,0-.08,0s0,0,.07,0h1.33l0,.29c0,.09,0,.15,0,.17a0,0,0,0,1,0,0s0,0,0-.07a.36.36,0,0,0-.15-.27.66.66,0,0,0-.37-.08h-.26v.79a.92.92,0,0,0,.37,0q.08,0,.1-.23c0-.07,0-.1,0-.1s0,0,0,0,0,.1,0,.2,0,.08,0,.14,0,.27,0,.35a.25.25,0,0,1,0,0s0,0,0,0h0a.56.56,0,0,1,0-.09.47.47,0,0,0-.07-.24.33.33,0,0,0-.22,0h-.18v.89h.53a.38.38,0,0,0,.15-.06.29.29,0,0,0,.09-.11,1.27,1.27,0,0,0,.05-.23s0,0,0,0S164.71,496.16,164.71,496.19Z"/><path class="cls-14" d="M166.55,494.84s0,0,0,0a.38.38,0,0,0-.19,0,1.68,1.68,0,0,0-.2.4l-.11.25a1.91,1.91,0,0,0-.11.24.93.93,0,0,0,0,.21v.54a.06.06,0,0,0,0,.06l.15,0s.06,0,.06,0,0,0-.05,0h-.82s0,0,0,0,0,0,0,0,.2,0,.21,0a.13.13,0,0,0,0-.09v-.63a4.6,4.6,0,0,0-.26-.55q-.08-.16-.22-.41a.15.15,0,0,0-.13,0h-.06s-.05,0-.05,0,0,0,.06,0h.86s.05,0,.05,0,0,0,0,0h-.09q-.15,0-.15.06a.22.22,0,0,0,0,.09l.12.26.22.44q.08-.15.23-.49a1.37,1.37,0,0,0,.12-.3s0-.06-.08-.06-.12,0-.12,0,0,0,.05,0h.43S166.55,494.82,166.55,494.84Z"/><path class="cls-14" d="M169,496.65s0,0,0,0h-.76c-.05,0-.08,0-.08,0s0,0,.07,0l.1,0s0,0,0,0,0,0,0-.09v-.75h-.63v.82s0,.07.11.08h.1v0s0,0,0,0h-.78s0,0,0,0,0,0,0,0a.33.33,0,0,0,.17,0s0-.06,0-.14V495c0-.06,0-.09,0-.1l-.15,0s0,0,0,0l0,0h.78s0,0,0,0,0,0,0,0h-.09c-.05,0-.08,0-.09,0a.24.24,0,0,0,0,.11v.63h.63V495q0-.18-.13-.18c-.06,0-.09,0-.09,0s0,0,0,0H169s0,0,0,0,0,0-.1,0-.11,0-.12,0a.35.35,0,0,0,0,.17v1.31q0,.17,0,.21a.26.26,0,0,0,.15,0S169,496.63,169,496.65Z"/><path class="cls-14" d="M171,495.73a1,1,0,0,1-.25.67.81.81,0,0,1-1.22,0,1,1,0,0,1-.25-.67,1,1,0,0,1,.25-.68.82.82,0,0,1,.62-.27.77.77,0,0,1,.6.27A1,1,0,0,1,171,495.73Zm-.47,0a1.85,1.85,0,0,0-.13-.78.27.27,0,0,0-.26-.16q-.18,0-.29.23a1.48,1.48,0,0,0-.11.62,1.5,1.5,0,0,0,.19.84.26.26,0,0,0,.23.12.25.25,0,0,0,.25-.17A1.79,1.79,0,0,0,170.54,495.77Z"/><path class="cls-14" d="M172.94,494.83s0,0-.09,0-.12,0-.14,0a.1.1,0,0,0,0,0v1.13q0,.63-.6.63a.61.61,0,0,1-.48-.19.75.75,0,0,1-.13-.5v-1c0-.06,0-.09,0-.1l-.17,0s0,0,0,0,0,0,0,0h.75s0,0,0,0,0,0-.08,0-.12,0-.13,0a.29.29,0,0,0,0,.06v1q0,.22,0,.27a.4.4,0,0,0,.1.25.35.35,0,0,0,.26.1.31.31,0,0,0,.27-.12.89.89,0,0,0,.1-.51v-1a.09.09,0,0,0,0-.09l-.1,0c-.06,0-.09,0-.09,0s0,0,0,0h.43C172.91,494.81,172.94,494.81,172.94,494.83Z"/><path class="cls-14" d="M174.33,496.13a.52.52,0,0,1-.17.4.62.62,0,0,1-.44.16,1.35,1.35,0,0,1-.45-.11h0s-.05,0-.07.1,0,0,0,0,0,0,0,0a1,1,0,0,1,0-.12,1.15,1.15,0,0,0,0-.17c0-.05,0-.09,0-.12s0-.1,0-.11,0,0,0,0,0,0,0,.11a.51.51,0,0,0,.17.31.47.47,0,0,0,.3.12.34.34,0,0,0,.24-.09.29.29,0,0,0,.1-.22.25.25,0,0,0-.06-.18,1.88,1.88,0,0,0-.31-.19,1.08,1.08,0,0,1-.39-.31.58.58,0,0,1-.1-.34.49.49,0,0,1,.16-.38.58.58,0,0,1,.41-.15.74.74,0,0,1,.28.06l.07,0s0,0,.05-.07,0,0,0,0,0,0,0,0v.07s0,.07,0,.1a2.15,2.15,0,0,0,0,.23v0s0,0,0,0,0,0,0-.09a.54.54,0,0,0-.08-.17.43.43,0,0,0-.12-.12.36.36,0,0,0-.19,0,.36.36,0,0,0-.24.07.24.24,0,0,0-.09.2.27.27,0,0,0,.08.19,1.51,1.51,0,0,0,.32.21,1.83,1.83,0,0,1,.38.26A.49.49,0,0,1,174.33,496.13Z"/><path class="cls-14" d="M176.08,496.19s0,.09,0,.25v.24q-.7,0-1.23,0h-.22s0,0,0,0v0h.08c.08,0,.13,0,.14-.07a.5.5,0,0,0,0-.08v-1.35q0-.16,0-.18a.07.07,0,0,0,0-.06l-.1,0c-.06,0-.08,0-.08,0s0,0,.07,0H176l0,.29c0,.09,0,.15,0,.17a0,0,0,0,1,0,0s0,0,0-.07a.36.36,0,0,0-.15-.27.66.66,0,0,0-.37-.08h-.26v.79a.92.92,0,0,0,.37,0q.08,0,.1-.23c0-.07,0-.1,0-.1s0,0,0,0,0,.1,0,.2,0,.08,0,.14,0,.27,0,.35a.25.25,0,0,1,0,0s0,0,0,0h0a.56.56,0,0,1,0-.09.47.47,0,0,0-.07-.24.33.33,0,0,0-.22,0h-.18v.89h.53a.38.38,0,0,0,.15-.06.29.29,0,0,0,.09-.11,1.27,1.27,0,0,0,.05-.23s0,0,0,0S176.08,496.16,176.08,496.19Z"/><path class="cls-14" d="M160.33,491.89h-.19l0,.09H160l.2-.5h.11l.2.5h-.12Zm0-.09-.06-.17-.06.17Z"/><path class="cls-14" d="M160.79,492l.08-.5h.1l.12.3.12-.3h.1l.08.5h-.12l0-.3-.13.3h0l-.13-.3,0,.3Z"/><path class="cls-14" d="M162,491.55a.27.27,0,0,1,0,.38.27.27,0,0,1-.19.07.27.27,0,0,1-.19-.07.25.25,0,0,1-.08-.19.28.28,0,0,1,.08-.19.3.3,0,0,1,.39,0Zm-.3.08a.15.15,0,0,0,0,.11.15.15,0,0,0,0,.11.15.15,0,0,0,.11,0,.15.15,0,0,0,.15-.15.16.16,0,0,0,0-.11.16.16,0,0,0-.11,0A.15.15,0,0,0,161.66,491.62Z"/><path class="cls-14" d="M162.59,491.78a.21.21,0,0,1-.06.16.24.24,0,0,1-.31,0,.21.21,0,0,1-.06-.16v-.3h.12v.29a.12.12,0,0,0,0,.08.11.11,0,0,0,.14,0,.12.12,0,0,0,0-.08v-.29h.12Z"/><path class="cls-14" d="M162.75,492v-.5h.1l.27.32v-.32h.12v.5h-.1l-.27-.32V492Z"/><path class="cls-14" d="M163.56,491.58v.4h-.12v-.4h-.11v-.1h.33v.1Z"/><path class="cls-14" d="M164,491.89h-.19l0,.09h-.12l.2-.5H164l.2.5h-.12Zm0-.09-.06-.17-.06.17Z"/><path class="cls-14" d="M164.42,491.49v.5h-.12v-.5Z"/><path class="cls-14" d="M164.57,492v-.5h.1l.27.32v-.32h.12v.5H165l-.27-.32V492Z"/><path class="cls-14" d="M165.59,491.49a.19.19,0,0,1,.13,0,.13.13,0,0,1,0,.09.12.12,0,0,1,0,.06l0,0,.07,0a.12.12,0,0,1,0,.09.14.14,0,0,1,0,.1.19.19,0,0,1-.13,0h-.19v-.5Zm0,.2h.08a.05.05,0,0,0,0,0,.05.05,0,0,0,0,0h-.08Zm0,.21h0a.13.13,0,0,0,.09,0,.06.06,0,0,0,0,0,.05.05,0,0,0,0,0,.13.13,0,0,0-.08,0h0Z"/><path class="cls-14" d="M166.37,491.55a.27.27,0,0,1,0,.38.27.27,0,0,1-.19.07.27.27,0,0,1-.19-.07.25.25,0,0,1-.08-.19.28.28,0,0,1,.08-.19.3.3,0,0,1,.39,0Zm-.3.08a.15.15,0,0,0,0,.11.15.15,0,0,0,0,.11.15.15,0,0,0,.11,0,.15.15,0,0,0,.15-.15.16.16,0,0,0,0-.11.16.16,0,0,0-.11,0A.15.15,0,0,0,166.06,491.62Z"/><path class="cls-14" d="M167,491.78a.21.21,0,0,1-.06.16.24.24,0,0,1-.31,0,.21.21,0,0,1-.06-.16v-.3h.12v.29a.12.12,0,0,0,0,.08.11.11,0,0,0,.14,0,.12.12,0,0,0,0-.08v-.29H167Z"/><path class="cls-14" d="M167.33,491.58v.4h-.12v-.4h-.11v-.1h.33v.1Z"/><path class="cls-14" d="M167.66,491.49v.5h-.12v-.5Z"/><path class="cls-14" d="M168.19,492a.22.22,0,0,1-.14,0,.24.24,0,0,1-.18-.07.26.26,0,0,1-.08-.19.27.27,0,0,1,.08-.19.27.27,0,0,1,.2-.07.28.28,0,0,1,.19.07.26.26,0,0,1,.08.19.23.23,0,0,1,0,.1.19.19,0,0,1,0,.07l.09.09h-.11Zm0-.13a.14.14,0,0,0,0-.09.15.15,0,0,0-.26-.11.17.17,0,0,0,0,.11.16.16,0,0,0,0,.11.14.14,0,0,0,.11,0h.06l-.09-.09h.11Z"/><path class="cls-14" d="M168.89,491.78a.21.21,0,0,1-.06.16.24.24,0,0,1-.31,0,.21.21,0,0,1-.06-.16v-.3h.12v.29a.12.12,0,0,0,0,.08.11.11,0,0,0,.14,0,.12.12,0,0,0,0-.08v-.29h.12Z"/><path class="cls-14" d="M169.33,491.58h-.17v.1h.16v.1h-.16v.11h.17v.1H169v-.5h.28Z"/><path class="cls-14" d="M161.89,499.52h-.17v.1h.16v.1h-.16v.11h.17v.1h-.28v-.5h.28Z"/><path class="cls-14" d="M162.14,499.43v.4h.16v.1H162v-.5Z"/><path class="cls-14" d="M162.69,499.52h-.17v.1h.16v.1h-.16v.11h.17v.1h-.28v-.5h.28Z"/><path class="cls-14" d="M162.9,499.43l.13.32.13-.32h.12l-.21.5H163l-.21-.5Z"/><path class="cls-14" d="M163.62,499.83h-.19l0,.09h-.12l.2-.5h.11l.2.5h-.12Zm0-.09-.06-.17-.06.17Z"/><path class="cls-14" d="M164,499.52v.4h-.12v-.4h-.11v-.1h.33v.1Z"/><path class="cls-14" d="M164.35,499.43v.5h-.12v-.5Z"/><path class="cls-14" d="M165,499.49a.27.27,0,0,1,0,.38.27.27,0,0,1-.19.07.27.27,0,0,1-.19-.07.25.25,0,0,1-.08-.19.28.28,0,0,1,.08-.19.3.3,0,0,1,.39,0Zm-.3.08a.15.15,0,0,0,0,.11.15.15,0,0,0,0,.11.15.15,0,0,0,.11,0,.15.15,0,0,0,.15-.15.16.16,0,0,0,0-.11.16.16,0,0,0-.11,0A.15.15,0,0,0,164.65,499.56Z"/><path class="cls-14" d="M165.16,499.93v-.5h.1l.27.32v-.32h.12v.5h-.1l-.27-.32v.32Z"/><path class="cls-14" d="M166.23,499.52H166v-.1h.4l-.3.51-.11,0Z"/><path class="cls-14" d="M166.79,499.52h-.17v.07h0a.17.17,0,0,1,.13,0,.17.17,0,0,1,0,.12.18.18,0,0,1-.05.13.2.2,0,0,1-.15.05.25.25,0,0,1-.17-.05l0-.11,0,0,.08,0,.07,0a.08.08,0,0,0,0-.06.07.07,0,0,0,0-.06.12.12,0,0,0-.08,0,.21.21,0,0,0-.1,0l.05-.27h.25Z"/><path class="cls-14" d="M167.29,499.93h-.38l.15-.16.08-.1a.17.17,0,0,0,0-.08.07.07,0,0,0,0,0h0l0,0a.1.1,0,0,0,0,.06h-.12a.22.22,0,0,1,.05-.13.18.18,0,0,1,.14-.05.18.18,0,0,1,.13,0,.17.17,0,0,1,0,.12.18.18,0,0,1,0,.11l-.08.09-.05.05h.17Z"/><path class="cls-14" d="M167.75,499.93h-.38l.15-.16.08-.1a.17.17,0,0,0,0-.08.07.07,0,0,0,0,0h0l0,0a.1.1,0,0,0,0,.06h-.12a.22.22,0,0,1,.05-.13.18.18,0,0,1,.14-.05.18.18,0,0,1,.13,0,.17.17,0,0,1,0,.12.18.18,0,0,1,0,.11l-.08.09-.05.05h.17Z"/><rect class="cls-14" x="168.78" y="501.77" width="0.33" height="0.33" transform="matrix(0.94, -0.35, 0.35, 0.94, -164.28, 90.3)"/><path class="cls-15" d="M132.75,0,92.95,206.93a949.45,949.45,0,0,1-72.37,223L1.35,471"/><rect class="cls-5" x="45.87" y="455.58" width="9.3" height="48.02" transform="translate(12.78 960.35) rotate(-169.5)"/><rect class="cls-6" x="50.97" y="456.05" width="4.15" height="48.02" transform="matrix(-0.98, -0.18, 0.18, -0.98, 17.72, 961.74)"/><path class="cls-13" d="M43.71,501.81h3.37a5.12,5.12,0,0,1,5.12,5.12v4.35a1.36,1.36,0,0,1-1.36,1.36H40a1.36,1.36,0,0,1-1.36-1.36v-4.35A5.12,5.12,0,0,1,43.71,501.81Z" transform="translate(-2.42 1014.23) rotate(-169.5)"/><path class="cls-16" d="M42.26,512h0Z"/><path class="cls-7" d="M41.16,506.08l-2.53.86a6.3,6.3,0,0,1,0-1.53l.6-3.23a1.65,1.65,0,0,1,2-1.09l4.52.84A8.21,8.21,0,0,1,41.16,506.08Z"/><path class="cls-7" d="M45.31,509.23a9.57,9.57,0,0,0,5.32-6.39h0a9.88,9.88,0,0,1-5.43,6.45L40.7,511l-.07,0Z"/><path class="cls-7" d="M45.17,513l-1.65-.31-1.35-.25,4.36.81Z"/><path class="cls-7" d="M52.86,504a1.69,1.69,0,0,1,.12.69L52.56,507l.17-1.6Z"/><path class="cls-17" d="M45.31,509.24,40.63,511a6,6,0,0,1-1.9-4l2.43-.84a7.7,7.7,0,0,0,4.61-4.32l4.89.91A9.36,9.36,0,0,1,45.31,509.24Z"/><path class="cls-18" d="M52.58,505.37a8.75,8.75,0,0,1-4.74,4.41L42.22,512a5.92,5.92,0,0,1-1.51-1l4.53-1.66a9.75,9.75,0,0,0,5.59-6.55l.81.15h0a2.72,2.72,0,0,0,.93,2.45Z"/><rect class="cls-4" x="47.53" y="459.72" width="12.3" height="5.6" transform="translate(22.16 927.08) rotate(-169.5)"/><line class="cls-19" x1="139.64" y1="1.53" x2="54.68" y2="459.86"/><path class="cls-13" d="M48.94,458.79l10.55,2a3.51,3.51,0,0,0,4.09-3l3.18-23.68q1.66-12.37,4.55-24.53l5.52-23.23a3.48,3.48,0,0,0-2.75-4.23l-10.55-2a3.48,3.48,0,0,0-4.08,3l-3.17,23.66q-1.66,12.37-4.55,24.52l-5.53,23.26A3.51,3.51,0,0,0,48.94,458.79Z"/><path class="cls-7" d="M65.49,398.82l-1.27,6.83a10.55,10.55,0,0,0-.26,2L64,418.12a10.62,10.62,0,0,1-1.31,5.18l-4.84,8.89a10.61,10.61,0,0,0-1,7.56,10.61,10.61,0,0,1-6.59,12.43l-3.89,1.46,5.31-22.36q2.88-12.14,4.54-24.52l1.09-8.16,7-9.79a10.52,10.52,0,0,0,1.75-4.33l.69-3.74,7.27,1.35a3.44,3.44,0,0,1,1.57.75L67.26,394.5A10.53,10.53,0,0,0,65.49,398.82Z"/><path class="cls-17" d="M76.82,386.31,74.76,395l-2.33,3.4a10.5,10.5,0,0,0-1.73,4.33l-1.27,6.83a10.54,10.54,0,0,0-.3,2l-.75,6.35q-.2,1.74-.54,3.46l-.15.77a48.83,48.83,0,0,1-3,9.94l-1.69,4a10.61,10.61,0,0,0-1,7.38A10.71,10.71,0,0,1,55.5,456l-6.93,2.6a3.47,3.47,0,0,1-2.37-4.11l.2-.86,4-1.49a10.68,10.68,0,0,0,6.46-12.55,10.61,10.61,0,0,1,1-7.4l4.83-8.89A10.61,10.61,0,0,0,64,418.11l-.12-10.44a10.61,10.61,0,0,1,.18-2.05l1.27-6.83a10.61,10.61,0,0,1,1.85-4.31l8.47-11.64A3.46,3.46,0,0,1,76.82,386.31Z"/><path class="cls-18" d="M69.6,409.56l1.27-6.83a10.44,10.44,0,0,1,1.65-4.35l2.35-3.4-3.51,14.56c-.81,3.41-1.6,6.83-2.26,10.27l.14-8.24A10.55,10.55,0,0,1,69.6,409.56Z"/><path class="cls-18" d="M62,443.61a10.61,10.61,0,0,1,1-7.56l4.76-8.75c-.36,2.25-.7,4.5-1,6.76l-.28,2.08-.28.51a10.61,10.61,0,0,0-1,7.56c0,.19.07.38.11.57l-.87,6.53a10.65,10.65,0,0,1-5.83,5.37l-6.93,2.63-2.74-.51a3.48,3.48,0,0,1-.37-.15l6.86-2.59A10.63,10.63,0,0,0,62,443.61Z"/><path class="cls-16" d="M65.21,444.21a10.61,10.61,0,0,1,1-7.56l.28-.51-1.16,8.64C65.28,444.59,65.26,444.4,65.21,444.21Z"/><path class="cls-16" d="M64.44,451.3l-.87,6.45a3.51,3.51,0,0,1-4.09,3l-7.81-1.45,6.93-2.63A10.65,10.65,0,0,0,64.44,451.3Z"/><path class="cls-20" d="M64.28,388.79l-6.8,9.83,1.91-15.54a3.52,3.52,0,0,1,4.13-2.95l3.12.58-.69,3.74A10.45,10.45,0,0,1,64.28,388.79Z"/><path class="cls-4" d="M41.37,495.16l1.47.27,5.75-31-1.47-.27-.6,3.24a18.94,18.94,0,0,1-3.51,8h0l-1.46,7.87.34,1.7a18.94,18.94,0,0,1,0,7.16Z"/><rect class="cls-4" x="40.75" y="496.23" width="12.3" height="5.71" transform="translate(2.06 998.37) rotate(-169.5)"/><circle class="cls-21" cx="21.75" cy="474.79" r="21.75" transform="translate(-449.05 409.65) rotate(-79.5)"/><circle class="cls-4" cx="21.75" cy="474.79" r="17.4" transform="translate(-449.05 409.65) rotate(-79.5)"/><circle class="cls-22" cx="24.29" cy="461.11" r="1.46" transform="translate(-433.52 400.95) rotate(-79.5)"/><circle class="cls-22" cx="19.22" cy="488.48" r="1.46" transform="translate(-464.59 418.35) rotate(-79.5)"/><circle class="cls-22" cx="14.17" cy="486.47" r="1.46" transform="translate(-401.53 233.4) rotate(-57)"/><circle class="cls-22" cx="29.34" cy="463.12" r="1.46" transform="translate(-375.04 235.48) rotate(-57)"/><circle class="cls-22" cx="10.28" cy="482.68" r="1.46" transform="translate(-271.58 90.71) rotate(-34.5)"/><circle class="cls-22" cx="33.23" cy="466.91" r="1.46" transform="translate(-258.61 100.93) rotate(-34.5)"/><circle class="cls-22" cx="8.14" cy="477.69" r="1.46" transform="translate(-99.13 12.13) rotate(-12)"/><circle class="cls-22" cx="35.37" cy="471.9" r="1.46" transform="translate(-97.33 17.66) rotate(-12)"/><circle class="cls-22" cx="8.07" cy="472.26" r="1.46" transform="translate(-457.75 394.12) rotate(-79.5)"/><circle class="cls-22" cx="35.44" cy="477.33" r="1.46" transform="translate(-440.36 425.18) rotate(-79.5)"/><circle class="cls-22" cx="10.08" cy="467.21" r="1.46" transform="translate(-387.24 221.2) rotate(-57)"/><circle class="cls-22" cx="33.43" cy="482.38" r="1.46" transform="translate(-389.33 247.68) rotate(-57)"/><circle class="cls-22" cx="13.87" cy="463.32" r="1.46" transform="translate(-259.98 89.34) rotate(-34.5)"/><circle class="cls-22" cx="29.64" cy="486.27" r="1.46" transform="translate(-270.2 102.3) rotate(-34.5)"/><circle class="cls-22" cx="18.86" cy="461.18" r="1.46" transform="translate(-95.46 14) rotate(-12)"/><circle class="cls-22" cx="24.65" cy="488.41" r="1.46" transform="translate(-101 15.79) rotate(-12)"/><circle class="cls-20" cx="21.75" cy="474.79" r="6.96" transform="translate(-449.05 409.65) rotate(-79.5)"/><circle class="cls-20" cx="18.86" cy="461.18" r="2.07" transform="translate(-438.03 395.67) rotate(-79.5)"/><circle class="cls-23" cx="21.75" cy="474.79" r="4.18" transform="translate(-449.05 409.65) rotate(-79.5)"/><rect class="cls-20" x="20.22" y="469.49" width="2.99" height="11.31" transform="translate(-5.57 950) rotate(-174.09)"/></svg>