<svg id="Layer_1" data-name="Layer 1" xmlns="http://www.w3.org/2000/svg" viewBox="0 0 148.25 282.57"><defs><style>.cls-1{fill:#e1c9ba;}.cls-2{fill:#ceb4a7;}.cls-3{fill:#bc3c2e;}.cls-4{fill:#c5c6c6;}.cls-5{fill:#1c343b;}.cls-6{fill:#fff;}.cls-7{fill:#b3352f;}.cls-8{fill:#a42823;}.cls-9{fill:none;}.cls-10{fill:#9a2322;}</style></defs><title>axe</title><path class="cls-1" d="M144.83,8a4.44,4.44,0,0,0-6.91-2.59h0a2,2,0,0,0-.37.34L114.83,33.23a107.16,107.16,0,0,0-6.92,9.35L74.05,94a107.16,107.16,0,0,1-24.61,26.33L31.46,134l-8.81,11.16,16,12.63L70,123.15a107.16,107.16,0,0,0,11-14.44l31.31-49.18a107.16,107.16,0,0,1,34.19-33.69,3.52,3.52,0,0,0,1.59-3.8Z"/><path class="cls-2" d="M78.83,86.71q-.66.9-1.22,1.86Z"/><path class="cls-2" d="M148.22,22.85l-.34,1.49A3.5,3.5,0,0,0,148.22,22.85Z"/><path class="cls-2" d="M97.66,70c1.29-.1,2.58-.26,3.85-.47a40.12,40.12,0,0,0,5.33-1.31l2.09-3.28a37.58,37.58,0,0,1-7.82,2.25c-1.19.21-2.41.36-3.62.45a57,57,0,0,0-6.67.91L89,71.34A54.77,54.77,0,0,1,97.66,70Z"/><path class="cls-2" d="M55.59,135.94A67.72,67.72,0,0,1,34,154l2,1.62a71.94,71.94,0,0,0,12.48-8.7L59,135.26C66.23,125,69.17,113.65,67.39,103c-.67.82-1.36,1.62-2.05,2.42C66.42,115.57,63,126.29,55.59,135.94Z"/><path class="cls-2" d="M137.35,9.28l-6.51,28.34q1.49-1.35,3-2.64l5.76-25.09a20.38,20.38,0,0,1,2.44-5,4.43,4.43,0,0,0-2.71-.14,21.92,21.92,0,0,0-2,4.51Z"/><path class="cls-2" d="M94.58,76.12c-6.83,2.27-12,5.7-15.47,10.2l-.29.39L77.6,88.57c-3.2,5.42-4,12.08-2.53,19.84a34.87,34.87,0,0,1,.62,7.94q1.2-1.57,2.34-3.18a36.88,36.88,0,0,0-.64-5.21C75.8,99.78,77,93,81,87.76c3.14-4.11,8-7.27,14.33-9.39a50.26,50.26,0,0,1,6-1.58l1.73-2.72A54.24,54.24,0,0,0,94.58,76.12Z"/><path class="cls-2" d="M146.53,25.84a3.55,3.55,0,0,0,1.34-1.5l.34-1.49a3.5,3.5,0,0,0-.09-.81L147,17.4l-2.18,9.5Z"/><path class="cls-2" d="M88.28,87.32c-8.67,1.42-8.54,9.21-7.46,15.84a37.91,37.91,0,0,0,1,4.38l1.76-2.76c-.13-.63-.26-1.3-.37-2-1.4-8.56.14-12.24,5.5-13.12a12,12,0,0,1,4.44.1l1.34-2.11A14.34,14.34,0,0,0,88.28,87.32Z"/><path class="cls-2" d="M52.57,118.13A16.79,16.79,0,0,1,28.71,138a1.71,1.71,0,0,1-.3-.17l-1.49,1.88.69.38a19.16,19.16,0,0,0,27.23-22.63c-.12-.4-.26-.79-.41-1.18q-1,.82-1.94,1.63Z"/><path class="cls-2" d="M46.38,127A8,8,0,0,1,36,130.53l-2.07,1.58.55.31a10.38,10.38,0,0,0,14.83-12L47.2,122A8,8,0,0,1,46.38,127Z"/><path class="cls-2" d="M121.12,32.24l3.73-11.12-4.2,5.08-1.77,5.28a23.61,23.61,0,0,1-13,14.16l-2.17,3.3A26,26,0,0,0,121.12,32.24Z"/><path class="cls-2" d="M115.09,55.43a107.16,107.16,0,0,1,8.27-10.34,32.25,32.25,0,0,0,1.78-4.26l10-32.2-4,4.81-8.31,26.64A29.74,29.74,0,0,1,102.63,59.3l-7,1.94-2,3,9.63-2.67A32.13,32.13,0,0,0,115.09,55.43Z"/><path class="cls-3" d="M18.13,140.51h0a196.08,196.08,0,0,0,27.05,16.41l20.67,10.35h0c.18,13.56-15.69,33.66-28.93,36.62h0L21.13,185a196.08,196.08,0,0,0-20-20.6l-1.11-1Z"/><path class="cls-4" d="M30.67,196.41l6.26,7.47h0c13.24-3,29.11-23.05,28.93-36.62h0l-8.71-4.36C55.72,175.49,42.58,192.11,30.67,196.41Z"/><path class="cls-5" d="M146.58,25.78A3.46,3.46,0,0,0,148.15,22l-3.3-14a4.44,4.44,0,0,0-6.92-2.58,2,2,0,0,0-.37.35l-22.68,27.4c-.59.72-1.08,1.33-1.7,2.11L124.35,44A112.11,112.11,0,0,1,146.58,25.78Z"/><path class="cls-6" d="M124.35,44l-11.17-8.73c-1.85,2.36-3.46,4.6-5.08,7.06l-.71,1.1,10.5,8.2C119.7,49.26,121.66,47,124.35,44Z"/><path class="cls-3" d="M117.88,51.65l-10.5-8.2-6.12,9.18,10.31,8.06.82-1.23C114.05,56.86,115.44,54.82,117.88,51.65Z"/><polygon class="cls-3" points="39.69 279.39 142.88 279.39 136.24 202.74 45.57 196.4 39.69 279.39"/><polygon class="cls-7" points="104.22 279.39 142.8 279.39 136.15 202.74 45.49 196.4 104.22 279.39"/><polygon class="cls-8" points="62.41 269.67 62.27 220.12 57.48 213.35 62.41 269.67"/><polygon class="cls-8" points="72.76 279.04 80.18 279.04 76.09 241.04 72.76 279.04"/><polygon class="cls-8" points="96.57 279.04 100.05 279.04 99.64 272.75 97.41 269.51 96.57 279.04"/><polygon class="cls-8" points="44.31 279.04 47.79 279.04 46.33 255.92 44.31 279.04"/><polygon class="cls-9" points="142.8 279.04 136.15 202.57 131.17 202.31 131.25 233.93 128.47 202.19 121.44 201.69 116.67 259.48 116.67 201.36 114.21 201.2 114.23 231.96 111.49 201.02 62.23 197.57 62.28 220.12 97.41 269.77 98.59 256.27 99.64 272.75 104.22 279.04 142.8 279.04"/><polygon class="cls-9" points="45.49 196.4 57.48 213.35 56.06 197.14 45.49 196.4"/><polygon class="cls-10" points="97.41 269.77 99.64 272.93 98.59 256.27 97.41 269.77"/><polygon class="cls-10" points="121.67 201.71 116.67 201.36 116.67 201.37 121.67 201.71 121.67 201.71"/><polygon class="cls-10" points="114.08 201.2 112.68 201.1 114.08 201.2 114.08 201.2"/><polygon class="cls-10" points="131.17 202.4 131.08 202.39 131.17 202.4 131.17 202.4"/><polygon class="cls-10" points="57.48 213.35 58.38 214.62 57.48 213.35 57.48 213.35"/><polygon class="cls-9" points="116.67 221.55 116.67 201.37 114.18 201.2 114.27 219.09 116.67 221.55"/><path class="cls-9" d="M127.05,232.64a107.16,107.16,0,0,1,7.56,8.85l5.53,7.23-4-46-5-.35.09,31.58-2.78-31.76,2.61.18-9.7-.68-1.94,22.94Z"/><polygon class="cls-9" points="111.46 201.02 112.68 201.1 95.87 199.93 112.93 217.83 111.46 201.02"/><path class="cls-9" d="M134.69,274A106.9,106.9,0,0,0,118,242.74l-1.33,16.74V240.95a77.5,77.5,0,0,0-7-7.79L91,214.29l0,6.1-1.79-7.87-13.81-14-30-2.09,12,16.95-1.42-16.21,6.15.43.06,22.55-3.89-5.68L104.22,279H142.8l-.26-2.79-4.51.1A3.44,3.44,0,0,1,134.69,274Z"/><polygon class="cls-10" points="91.03 220.4 90.98 214.29 89.25 212.53 91.03 220.4"/><polygon class="cls-10" points="86.24 199.25 89.25 212.53 90.98 214.29 90.88 199.58 86.24 199.25"/><polygon class="cls-10" points="119.53 224.65 121.52 201.71 116.67 201.37 116.67 221.55 119.53 224.65"/><path class="cls-10" d="M116.67,259.48l1.42-16.74c-.47-.6-1.42-1.2-1.42-1.79Z"/><path class="cls-10" d="M116.67,240.95c0,.59.86,1.19,1.33,1.79l1.58-18.09-2.91-3.1Z"/><polygon class="cls-10" points="112.93 217.83 114.13 219.09 114.08 201.2 112.68 201.1 111.46 201.02 112.93 217.83"/><polygon class="cls-10" points="114.17 231.96 114.13 219.09 112.93 217.83 114.17 231.96"/><polygon class="cls-10" points="131.25 233.97 131.17 202.4 131.08 202.39 128.47 202.21 131.25 233.97"/><polygon class="cls-10" points="62.21 197.57 56.06 197.14 57.48 213.35 58.38 214.62 62.27 220.12 62.21 197.57"/></svg>