<svg id="Layer_1" data-name="Layer 1" xmlns="http://www.w3.org/2000/svg" viewBox="0 0 1024 768"><defs><style>.cls-1{fill:#e1c9ba;}.cls-2{fill:#ceb4a7;}.cls-3{fill:#bc3c2e;}.cls-4{fill:#c5c6c6;}.cls-5{fill:#1c343b;}.cls-6{fill:#fff;}.cls-7{fill:#b3352f;}.cls-8{fill:#a42823;}.cls-9{fill:none;}.cls-10{fill:#9a2322;}</style></defs><title>axe2</title><path class="cls-1" d="M563,372.36a4.58,4.58,0,0,0-7.14-2.67h0a2,2,0,0,0-.38.35L532,398.39a110.64,110.64,0,0,0-7.14,9.66l-35,53a110.64,110.64,0,0,1-25.41,27.18L446,502.38l-9.1,11.52,16.51,13,32.39-35.72a110.64,110.64,0,0,0,11.37-14.91l32.33-50.77a110.64,110.64,0,0,1,35.3-34.78,3.64,3.64,0,0,0,1.65-3.93Z"/><path class="cls-2" d="M494.86,453.6q-.68.93-1.26,1.92Z"/><path class="cls-2" d="M566.5,387.67l-.35,1.54A3.62,3.62,0,0,0,566.5,387.67Z"/><path class="cls-2" d="M514.3,436.31c1.33-.1,2.67-.26,4-.49a41.41,41.41,0,0,0,5.5-1.35l2.15-3.38a38.8,38.8,0,0,1-8.07,2.32c-1.23.21-2.48.37-3.74.46a58.87,58.87,0,0,0-6.88.94l-1.93,2.93A56.54,56.54,0,0,1,514.3,436.31Z"/><path class="cls-2" d="M470.87,504.43A69.92,69.92,0,0,1,448.53,523l2.11,1.67a74.27,74.27,0,0,0,12.89-9l10.89-12c7.43-10.61,10.47-22.31,8.63-33.31-.7.85-1.4,1.67-2.12,2.49C482,483.39,478.54,494.46,470.87,504.43Z"/><path class="cls-2" d="M555.27,373.67l-6.72,29.26q1.54-1.39,3.14-2.73l5.95-25.91a21,21,0,0,1,2.52-5.16,4.58,4.58,0,0,0-2.79-.15,22.63,22.63,0,0,0-2.09,4.66Z"/><path class="cls-2" d="M511.12,442.66c-7.05,2.34-12.42,5.89-16,10.53l-.3.4-1.26,1.92c-3.3,5.6-4.18,12.47-2.61,20.48a36,36,0,0,1,.64,8.2q1.24-1.62,2.42-3.29a38.07,38.07,0,0,0-.66-5.38c-1.65-8.43-.4-15.45,3.72-20.84,3.24-4.25,8.22-7.51,14.79-9.7a51.89,51.89,0,0,1,6.23-1.63l1.79-2.81A56,56,0,0,0,511.12,442.66Z"/><path class="cls-2" d="M564.75,390.76a3.66,3.66,0,0,0,1.39-1.55l.35-1.54a3.61,3.61,0,0,0-.1-.84L565.28,382l-2.25,9.8Z"/><path class="cls-2" d="M504.61,454.23c-9,1.46-8.82,9.51-7.7,16.35a39.14,39.14,0,0,0,1,4.52l1.81-2.85c-.14-.65-.27-1.34-.39-2.07-1.45-8.84.15-12.64,5.68-13.54a12.38,12.38,0,0,1,4.58.11l1.39-2.18A14.81,14.81,0,0,0,504.61,454.23Z"/><path class="cls-2" d="M467.75,486a17.33,17.33,0,0,1-24.63,20.48,1.77,1.77,0,0,1-.31-.18l-1.54,1.94.71.4a19.78,19.78,0,0,0,28.11-23.37c-.13-.41-.27-.82-.42-1.22q-1,.85-2,1.68Z"/><path class="cls-2" d="M461.35,495.15a8.29,8.29,0,0,1-10.74,3.68l-2.14,1.63.57.32a10.72,10.72,0,0,0,15.31-12.4L462.21,490A8.22,8.22,0,0,1,461.35,495.15Z"/><path class="cls-2" d="M538.52,397.36l3.85-11.48L538,391.13l-1.83,5.45a24.37,24.37,0,0,1-13.4,14.62l-2.24,3.41A26.82,26.82,0,0,0,538.52,397.36Z"/><path class="cls-2" d="M532.3,421.3a110.63,110.63,0,0,1,8.53-10.67,33.3,33.3,0,0,0,1.84-4.4L553,373l-4.11,5-8.58,27.5a30.7,30.7,0,0,1-20.92,19.83l-7.24,2-2,3.11,9.94-2.76A33.17,33.17,0,0,0,532.3,421.3Z"/><path class="cls-3" d="M432.2,509.14h0a202.43,202.43,0,0,0,27.93,16.94l21.34,10.69h0c.19,14-16.2,34.75-29.86,37.8h0l-16.31-19.45a202.43,202.43,0,0,0-20.67-21.27l-1.14-1Z"/><path class="cls-4" d="M445.14,566.86l6.47,7.71h0c13.66-3.05,30.05-23.8,29.86-37.8h0l-9-4.51C471,545.26,457.44,562.42,445.14,566.86Z"/><path class="cls-5" d="M564.8,390.7a3.58,3.58,0,0,0,1.62-3.89L563,372.34a4.59,4.59,0,0,0-7.14-2.66,2.08,2.08,0,0,0-.38.36l-23.41,28.28c-.61.74-1.12,1.37-1.76,2.18l11.54,9A115.74,115.74,0,0,1,564.8,390.7Z"/><path class="cls-6" d="M541.85,409.52l-11.54-9c-1.91,2.44-3.57,4.75-5.25,7.29l-.73,1.14,10.84,8.47C537.05,414.94,539.07,412.59,541.85,409.52Z"/><path class="cls-3" d="M535.18,417.4l-10.84-8.47L518,418.41l10.65,8.32.85-1.27C531.22,422.79,532.66,420.68,535.18,417.4Z"/><polygon class="cls-3" points="456.35 648.39 562.88 648.39 556.02 569.26 462.42 562.72 456.35 648.39"/><polygon class="cls-7" points="522.97 648.39 562.8 648.39 555.94 569.26 462.34 562.72 522.97 648.39"/><polygon class="cls-8" points="479.81 638.35 479.67 587.21 474.72 580.21 479.81 638.35"/><polygon class="cls-8" points="490.49 648 498.15 648 493.93 608.77 490.49 648"/><polygon class="cls-8" points="515.07 648 518.67 648 518.25 641.52 515.94 638.16 515.07 648"/><polygon class="cls-8" points="461.12 648 464.71 648 463.21 624.13 461.12 648"/><polygon class="cls-9" points="562.8 648 555.94 569.07 550.79 568.8 550.88 601.45 548.01 568.68 540.83 568.18 536 627.83 536 567.84 533.38 567.67 533.35 599.42 530.5 567.48 479.63 563.92 479.68 587.21 515.95 638.46 517.16 624.52 518.25 641.52 522.97 648 562.8 648"/><polygon class="cls-9" points="462.34 562.72 474.72 580.21 473.25 563.48 462.34 562.72"/><polygon class="cls-10" points="515.94 638.46 518.25 641.72 517.16 624.52 515.94 638.46"/><polygon class="cls-10" points="542 568.19 536 567.84 536 567.84 542 568.2 542 568.19"/><polygon class="cls-10" points="533.15 567.67 531.71 567.57 533.15 567.67 533.15 567.67"/><polygon class="cls-10" points="550.79 568.9 550.7 568.89 550.79 568.9 550.79 568.9"/><polygon class="cls-10" points="474.72 580.21 475.65 581.53 474.72 580.21 474.72 580.21"/><polygon class="cls-9" points="536 588.68 536 567.84 533.34 567.67 533.49 586.14 536 588.68"/><path class="cls-9" d="M546.54,600.13a110.63,110.63,0,0,1,7.8,9.13l5.71,7.47-4.12-47.47-5.15-.36.09,32.6L548,568.71l2.69.19-10-.7-2,23.68Z"/><polygon class="cls-9" points="530.44 567.48 531.71 567.57 514.35 566.35 531.97 584.84 530.44 567.48"/><path class="cls-9" d="M554.42,642.87a110.11,110.11,0,0,0-17.14-32.32L536,627.83V608.7a70.64,70.64,0,0,0-7-8l-19-19.48v6.3l-2.16-8.12-14.41-14.48-31-2.16,12.34,17.49-1.49-16.73,6.34.44.06,23.28-4-5.88L523,648H562.8l-.27-2.86-4.66.12A3.55,3.55,0,0,1,554.42,642.87Z"/><polygon class="cls-10" points="509.35 587.49 509.3 581.18 507.51 579.36 509.35 587.49"/><polygon class="cls-10" points="504.41 565.66 507.51 579.36 509.3 581.18 509.19 565.99 504.41 565.66"/><polygon class="cls-10" points="538.86 591.88 540.96 568.2 536 567.84 536 588.68 538.86 591.88"/><path class="cls-10" d="M536,627.83l1.47-17.28c-.48-.62-1.47-1.23-1.47-1.85Z"/><path class="cls-10" d="M536,608.7c0,.61.8,1.22,1.28,1.85L539,591.88l-3-3.2Z"/><polygon class="cls-10" points="531.97 584.84 533.21 586.14 533.15 567.67 531.71 567.57 530.44 567.48 531.97 584.84"/><polygon class="cls-10" points="533.24 599.42 533.21 586.14 531.97 584.84 533.24 599.42"/><polygon class="cls-10" points="550.88 601.5 550.79 568.9 550.7 568.89 548.01 568.71 550.88 601.5"/><polygon class="cls-10" points="479.6 563.92 473.25 563.48 474.72 580.21 475.65 581.53 479.67 587.21 479.6 563.92"/></svg>