<svg id="Layer_1" data-name="Layer 1" xmlns="http://www.w3.org/2000/svg" viewBox="0 0 206.15 181.62"><defs><style>.cls-1{fill:#d6513c;}.cls-2{fill:#e6d1c4;}.cls-3{fill:#f2dfd0;}.cls-4{fill:#919141;}.cls-5{fill:#828037;}.cls-6{fill:#c2764d;}.cls-14,.cls-17,.cls-18,.cls-19,.cls-20,.cls-7{fill:none;}.cls-20,.cls-7{stroke:#b6633f;}.cls-14,.cls-17,.cls-18,.cls-20,.cls-7{stroke-miterlimit:10;}.cls-7{stroke-width:0.5px;}.cls-14,.cls-7{stroke-dasharray:1 1;}.cls-8{fill:#e5cebe;}.cls-9{fill:#a3a54e;}.cls-10{fill:#b26642;}.cls-11{fill:#1c343b;}.cls-12{fill:#b6b65e;}.cls-13{fill:#a19f51;}.cls-14{stroke:#4c6061;}.cls-15{fill:#364e52;}.cls-16{fill:#e18a69;}.cls-17,.cls-18{stroke:#c2764d;}.cls-17{stroke-width:0.75px;stroke-dasharray:2 1;}.cls-18{stroke-linecap:round;}.cls-20{stroke-dasharray:3 3;}</style></defs><title>backpack</title><polygon class="cls-1" points="182.15 90.54 182.15 90.54 182.15 89.54 177.15 89.54 177.15 116.14 182.15 116.08 182.15 90.54"/><polygon class="cls-2" points="185.15 116.03 185.15 90.54 184.15 90.54 184.15 116.05 185.15 116.03"/><polygon class="cls-2" points="187.15 116 187.15 90.54 186.15 90.54 186.15 116.02 187.15 116"/><polygon class="cls-2" points="189.15 115.97 189.15 90.54 188.15 90.54 188.15 115.99 189.15 115.97"/><polygon class="cls-2" points="183.15 116.06 183.15 90.54 182.15 90.54 182.15 116.08 183.15 116.06"/><polygon class="cls-2" points="191.15 115.94 191.15 90.54 190.15 90.54 190.15 115.96 191.15 115.94"/><polygon class="cls-2" points="195.15 115.88 195.15 90.54 194.15 90.54 194.15 115.9 195.15 115.88"/><polygon class="cls-2" points="193.15 115.91 193.15 90.54 192.15 90.54 192.15 115.93 193.15 115.91"/><polygon class="cls-3" points="184.15 116.05 184.15 90.54 183.15 90.54 183.15 116.06 184.15 116.05"/><polygon class="cls-3" points="186.15 116.02 186.15 90.54 185.15 90.54 185.15 116.03 186.15 116.02"/><polygon class="cls-3" points="188.15 115.99 188.15 90.54 187.15 90.54 187.15 116 188.15 115.99"/><polygon class="cls-3" points="190.15 115.96 190.15 90.54 189.15 90.54 189.15 115.97 190.15 115.96"/><polygon class="cls-3" points="192.15 115.93 192.15 90.54 191.15 90.54 191.15 115.94 192.15 115.93"/><polygon class="cls-3" points="194.15 115.9 194.15 90.54 193.15 90.54 193.15 115.91 194.15 115.9"/><polygon class="cls-3" points="196.15 115.87 196.15 90.54 195.15 90.54 195.15 115.88 196.15 115.87"/><polygon class="cls-1" points="196.15 115.86 200.15 115.81 200.15 89.54 196.15 89.54 196.15 90.54 196.15 90.54 196.15 115.86"/><polygon class="cls-4" points="206.15 166.83 172.15 169.31 172.15 116.22 206.15 115.72 206.15 166.83"/><polygon class="cls-5" points="178.15 169.16 182.15 169.11 182.15 168.58 178.15 168.88 178.15 169.16"/><polygon class="cls-5" points="182.15 116.08 178.15 116.14 178.15 168.88 182.15 168.58 182.15 117.56 182.15 116.08"/><rect class="cls-6" x="173.52" y="115.72" width="32.63" height="4.9"/><line class="cls-7" x1="178.77" y1="119.13" x2="205.85" y2="119.13"/><polygon class="cls-4" points="30.15 179.64 0.15 181.62 0.15 128.56 30.15 128.56 30.15 179.64"/><rect class="cls-6" y="128.56" width="32.63" height="4.9"/><line class="cls-7" x1="0.15" y1="131.96" x2="27.23" y2="131.96"/><rect class="cls-8" x="29.15" y="4.5" width="9" height="19.01"/><rect class="cls-8" x="172.15" y="4.5" width="9" height="30.01"/><polygon class="cls-9" points="178.15 168.84 25.93 179.87 32.14 26.7 178.15 37.52 178.15 168.84"/><rect class="cls-4" x="45.15" y="137.57" width="20" height="21.01"/><rect class="cls-4" x="139.15" y="137.57" width="20" height="21.01"/><polygon class="cls-4" points="178.15 111.72 178.15 45.02 32.25 34.21 28.82 111.75 136.55 111.73 178.15 111.72"/><polygon class="cls-6" points="178.15 104.22 178.15 37.52 32.25 26.7 28.82 104.25 136.55 104.22 178.15 104.22"/><rect class="cls-4" x="147.15" y="111.74" width="10" height="43.83"/><rect class="cls-5" x="147.15" y="104.24" width="10" height="7.5"/><rect class="cls-10" x="147.15" y="47.52" width="10" height="56.72"/><rect class="cls-4" x="53.15" y="111.74" width="10" height="41.83"/><rect class="cls-5" x="53.15" y="104.24" width="10" height="7.5"/><rect class="cls-10" x="53.15" y="47.52" width="10" height="56.72"/><rect class="cls-11" x="50.15" y="47.52" width="10" height="118.06"/><rect class="cls-11" x="144.15" y="47.52" width="10" height="118.06"/><rect class="cls-1" x="45.15" y="135.56" width="20" height="18.01"/><rect class="cls-1" x="139.15" y="135.56" width="20" height="18.01"/><rect class="cls-4" x="71.15" y="136.57" width="61" height="29.01"/><rect class="cls-12" x="71.15" y="133.56" width="61" height="29.01"/><rect class="cls-13" x="71.15" y="125.56" width="61" height="19.01"/><rect class="cls-6" x="71.15" y="121.56" width="61" height="20.01"/><polygon class="cls-3" points="178.15 37.52 32.15 26.7 32.15 0 101.56 8.84 178.15 0 178.15 37.52"/><polygon class="cls-8" points="105.26 8.44 101.89 8.84 99.23 8.51 97.15 8.25 97.15 31.51 99.27 31.66 104.9 32.07 105.24 31.95 110.15 32.31 110.15 7.86 105.26 8.44"/><line class="cls-14" x1="60.15" y1="52.53" x2="50.15" y2="52.53"/><rect class="cls-15" x="50.15" y="47.52" width="10" height="5"/><line class="cls-14" x1="154.15" y1="52.53" x2="144.15" y2="52.53"/><rect class="cls-15" x="144.15" y="47.52" width="10" height="5"/><rect class="cls-11" x="97.15" y="136.57" width="11" height="16.01"/><polygon class="cls-16" points="112.23 86.17 102.39 95.98 92.54 86.17 102.39 76.35 112.23 86.17"/><polygon class="cls-17" points="109.53 86.17 102.39 93.29 95.24 86.17 102.39 79.04 109.53 86.17"/><line class="cls-18" x1="100.65" y1="84.54" x2="100.65" y2="87.54"/><line class="cls-18" x1="102.65" y1="84.54" x2="102.65" y2="87.54"/><polygon class="cls-11" points="108.15 7.5 97.15 7.5 97.15 31.52 108.15 32.31 108.15 7.5"/><line class="cls-14" x1="153.75" y1="162.48" x2="143.75" y2="162.48"/><polygon class="cls-19" points="94.33 31.28 94.36 31.28 94.36 31.28 94.33 31.28"/><polygon class="cls-19" points="94.23 31.28 94.15 31.28 94.15 7.87 32.15 0 32.15 26.7 32.48 26.73 32.43 26.7 94.23 31.28"/><polygon class="cls-19" points="110.15 32.47 178.15 37.52 178.15 0 110.15 7.86 110.15 32.31 110.15 32.47"/><polygon class="cls-8" points="105.4 32.1 105.4 32.1 110.41 32.47 110.41 32.47 105.4 32.1"/><polygon class="cls-8" points="99.38 31.66 94.36 31.28 94.36 31.28 99.38 31.66 99.38 31.66"/><polygon class="cls-8" points="104.95 32.07 104.95 32.07 99.38 31.66 99.38 31.66 104.95 32.07"/><polygon class="cls-8" points="104.95 32.07 105.4 32.1 105.4 32.1 104.95 32.07 104.95 32.07"/><polygon class="cls-19" points="105.15 34.95 105.15 33.95 99.15 33.52 99.15 32.75 94.15 33.28 94.15 31.52 94.15 31.28 94.23 31.28 32.43 26.73 28.91 104.25 136.59 104.22 178.15 104.22 178.15 37.52 110.15 32.47 110.15 35.31 105.15 34.95"/><polygon class="cls-19" points="32.48 26.7 32.48 26.73 94.33 31.28 32.48 26.7"/><polygon class="cls-19" points="32.25 34.21 28.78 111.75 53.15 111.74 53.15 104.24 63.15 104.24 63.15 111.74 136.55 111.73 178.15 111.72 178.15 45.02 32.25 34.21"/><rect class="cls-15" x="50.15" y="162.58" width="10" height="3"/><line class="cls-14" x1="60.15" y1="162.58" x2="50.15" y2="162.58"/><rect class="cls-15" x="144.15" y="162.58" width="10" height="3"/><line class="cls-20" x1="178.15" y1="45.33" x2="32.25" y2="34.52"/></svg>