<svg id="Layer_1" data-name="Layer 1" xmlns="http://www.w3.org/2000/svg" viewBox="0 0 93.04 90.57"><defs><style>.cls-1{fill:#fff;}</style></defs><title>email_icon</title><rect class="cls-1" x="48.81" y="56.91" width="36.12" height="1.42"/><rect class="cls-1" x="48.81" y="60.71" width="36.12" height="1.42"/><rect class="cls-1" x="48.81" y="64.51" width="36.12" height="1.42"/><rect class="cls-1" x="48.81" y="68.31" width="36.12" height="1.42"/><rect class="cls-1" x="48.81" y="72.1" width="36.12" height="1.42"/><rect class="cls-1" x="65.41" y="75.9" width="19.52" height="1.42"/><path class="cls-1" d="M84.81,49.52H68.11V32.83h16.7Zm-15-1.7h13.3V34.53H69.81Z"/><path class="cls-1" d="M65.27,45.4A4.87,4.87,0,0,1,61.82,44l-.46-.46a4.31,4.31,0,0,0-6.1,0l-.4-.4a4.88,4.88,0,0,1,6.9,0l.46.46a4.32,4.32,0,0,0,6.1,0,4.88,4.88,0,0,1,6.9,0l-.4.4a4.32,4.32,0,0,0-6.1,0A4.86,4.86,0,0,1,65.27,45.4Z"/><path class="cls-1" d="M65.27,48.26a4.86,4.86,0,0,1-3.45-1.43l-.46-.46a4.31,4.31,0,0,0-6.1,0l-.4-.4a4.88,4.88,0,0,1,6.9,0l.46.46a4.32,4.32,0,0,0,6.1,0,4.88,4.88,0,0,1,6.9,0l-.4.4a4.31,4.31,0,0,0-6.1,0A4.86,4.86,0,0,1,65.27,48.26Z"/><path class="cls-1" d="M65.27,39.79a4.86,4.86,0,0,1-3.45-1.43l-.46-.46a4.31,4.31,0,0,0-6.1,0l-.4-.4a4.88,4.88,0,0,1,6.9,0l.46.46a4.32,4.32,0,0,0,6.1,0,4.89,4.89,0,0,1,6.9,0l-.4.4a4.32,4.32,0,0,0-6.1,0A4.86,4.86,0,0,1,65.27,39.79Z"/><path class="cls-1" d="M65.27,42.62a4.86,4.86,0,0,1-3.45-1.43l-.46-.46a4.31,4.31,0,0,0-6.1,0l-.4-.4a4.88,4.88,0,0,1,6.9,0l.46.46a4.32,4.32,0,0,0,6.1,0,4.88,4.88,0,0,1,6.9,0l-.4.4a4.31,4.31,0,0,0-6.1,0A4.86,4.86,0,0,1,65.27,42.62Z"/><path class="cls-1" d="M47.82,47.25a5.83,5.83,0,1,1,5.83-5.83A5.84,5.84,0,0,1,47.82,47.25Zm0-11.09a5.26,5.26,0,1,0,5.26,5.26A5.27,5.27,0,0,0,47.82,36.16Z"/><path class="cls-1" d="M47.82,50.2a8.78,8.78,0,1,1,8.78-8.78A8.79,8.79,0,0,1,47.82,50.2Zm0-15.86a7.08,7.08,0,1,0,7.08,7.08A7.09,7.09,0,0,0,47.82,34.34Z"/><rect class="cls-1" x="8.12" y="33.29" width="13.29" height="1.42"/><rect class="cls-1" x="8.12" y="36.87" width="13.29" height="1.42"/><rect class="cls-1" x="8.12" y="40.45" width="13.29" height="1.42"/><rect class="cls-1" x="8.12" y="44.03" width="7.18" height="1.42"/><path class="cls-1" d="M90.65,90.57H2.39A2.4,2.4,0,0,1,0,88.18V26.73a2.4,2.4,0,0,1,2.39-2.39H90.65A2.4,2.4,0,0,1,93,26.73V88.18A2.4,2.4,0,0,1,90.65,90.57ZM2.83,87.74H90.21V27.17H2.83Z"/></svg>