<svg id="Layer_1" data-name="Layer 1" xmlns="http://www.w3.org/2000/svg" viewBox="0 0 1024 768"><defs><style>.cls-1{fill:#ee7155;}.cls-2{fill:#f07f52;}</style></defs><title>flame3</title><path class="cls-1" d="M568.16,541a5.22,5.22,0,0,0,4.35,1.86,6.45,6.45,0,0,0,6.07-5.81A20.71,20.71,0,0,0,574,521.54s-1.52,7.11-5.73,12.09A5.67,5.67,0,0,0,568.16,541Z"/><path class="cls-2" d="M509.47,531.73a24.62,24.62,0,0,1-11.37-.11c-9.35-2.08-26.28-8.94-26.28-31.41,0-31,10.16-45.32,10.16-45.32-3.41,16.29,13.12,29.34,26.18,31.89a21.9,21.9,0,0,1,13.71,8.5,28.51,28.51,0,0,1,5.22,17.08C527.08,530.89,509.47,531.73,509.47,531.73Z"/></svg>