<svg id="Layer_1" data-name="Layer 1" xmlns="http://www.w3.org/2000/svg" viewBox="0 0 1024 768"><defs><style>.cls-1{fill:#d6513c;}.cls-2{fill:#e15a4a;}</style></defs><title>flame</title><path class="cls-1" d="M499.11,374.65S439,430.18,439,488.2c0,42,31.6,54.81,49.07,58.7a51.68,51.68,0,0,0,21.32.22c15.68-3.12,45-12.7,52.88-41.18a51.16,51.16,0,0,0,.84-22.72A202.07,202.07,0,0,0,532,407.8s8,29.84-16.92,29.84S492,408.63,499.11,374.65Z"/><path class="cls-2" d="M566.93,544.07a8.88,8.88,0,0,0,7.7,2.31,11,11,0,0,0,9.14-11A35.22,35.22,0,0,0,573,510.07s-1.21,12.3-7.36,21.53A9.63,9.63,0,0,0,566.93,544.07Z"/></svg>