<svg id="Layer_1" data-name="Layer 1" xmlns="http://www.w3.org/2000/svg" viewBox="0 0 1024 1026.43"><defs><style>.cls-1{fill:#a3a54e;}</style></defs><title>grass</title><polygon class="cls-1" points="953.63 53.43 951.22 42.38 951.02 53.43 942.54 53.43 944.65 41 939.38 53.43 927.82 53.43 925.03 33.37 923.13 53.43 914.29 53.43 916.4 41 911.14 53.43 899.58 53.43 896.78 33.37 894.89 53.43 884.98 53.43 890.08 32.99 879.52 53.43 869.27 53.43 877.1 32.28 864.62 53.43 858.12 53.43 858.22 52.96 866.05 18.36 848.64 49.31 846.36 53.43 839.11 53.43 837.45 42.72 833.79 19.43 830.63 42.73 829.18 53.43 811.69 53.43 805.85 45.77 795.53 32.31 801.56 48.23 803.52 53.43 797.03 53.43 794.74 49.26 777.33 18.36 785.16 53.01 785.25 53.43 778.45 53.43 771.33 36.67 775.14 53.43 764.76 53.43 758.37 35.68 760.39 53.43 751 53.43 751.67 35.17 746.63 53.43 735.76 53.43 729.37 35.68 731.39 53.43 722 53.43 722.67 35.17 717.63 53.43 705.77 53.43 703.37 42.38 703.17 53.43 694.69 53.43 696.8 41 691.53 53.43 679.97 53.43 677.18 33.37 675.28 53.43 665.38 53.43 670.47 32.99 659.92 53.43 649.67 53.43 657.49 32.28 645.02 53.43 638.51 53.43 638.61 52.96 646.44 18.36 629.04 49.31 626.75 53.43 620.33 53.43 626.3 37.61 638.9 4.45 617.34 32.65 601.46 53.43 590.83 53.43 587.96 35.05 582.46 0 577.7 35.21 575.24 53.43 567.87 53.43 563.1 36.17 563.74 53.43 442.82 53.43 439.96 35.05 434.46 0 429.69 35.04 427.22 53.43 423.31 53.43 407.31 32.51 385.75 4.41 398.35 37.64 404.32 53.43 397.91 53.43 395.61 49.26 378.21 18.36 386.04 53.01 386.13 53.43 379.33 53.43 372.21 36.67 376.01 53.43 365.64 53.43 359.24 35.68 361.26 53.43 351.87 53.43 352.55 35.17 347.51 53.43 336.64 53.43 330.24 35.68 332.26 53.43 322.87 53.43 323.55 35.17 318.51 53.43 299.56 53.43 294.24 38.68 295.92 53.43 239.09 53.43 240.37 42.17 236.32 53.43 227.77 53.43 224.56 41.81 224.99 53.43 218.54 53.43 219.82 42.17 215.77 53.43 208.24 53.43 210.63 42.88 206.15 53.43 201.07 53.43 206.38 29.91 194.05 51.8 193.16 53.43 188.38 53.43 192.11 43.55 201.04 20 185.76 39.93 175.44 53.43 171.47 53.43 169.9 41.71 166.52 16.88 162.62 41.73 160.8 53.43 145.53 53.43 146.2 35.17 141.16 53.43 130.29 53.43 123.9 35.68 125.92 53.43 116.53 53.43 117.2 35.17 112.16 53.43 100.31 53.43 97.89 42.38 97.7 53.43 89.22 53.43 91.33 41 86.06 53.43 74.5 53.43 71.7 33.37 69.81 53.43 0.42 53.43 0.42 1026.43 1024.42 1026.43 1024.42 53.43 953.63 53.43"/></svg>