<svg id="Layer_1" data-name="Layer 1" xmlns="http://www.w3.org/2000/svg" viewBox="0 0 73.52 93.52"><defs><style>.cls-1{fill:#d65135;}</style></defs><title>instagram2</title><path class="cls-1" d="M70.55,54.11H68.18V25.88H5.34V54.11H3V25.5a2,2,0,0,1,2-2H68.58a2,2,0,0,1,2,2Z"/><path class="cls-1" d="M43.87,46.31A1.88,1.88,0,0,1,42,48.23H10.59a1.78,1.78,0,0,1-1.69-1.92V30.61a1.67,1.67,0,0,1,1.69-1.79H42a1.78,1.78,0,0,1,1.82,1.79ZM42.09,30.66a.08.08,0,0,0-.08-.08H10.75a.08.08,0,0,0-.08.08V46.39a.08.08,0,0,0,.08.08H42a.08.08,0,0,0,.08-.08Z"/><path class="cls-1" d="M63.17,50.58H49.83a2.06,2.06,0,0,1-1.81-2V30.29c0-1,.87-1.47,1.81-1.47H63.17a1.31,1.31,0,0,1,1.45,1.47V48.58C64.62,49.54,64.11,50.58,63.17,50.58ZM49.91,48.82H63.08V30.59H49.92Z"/><path class="cls-1" d="M34.81,43.65a5.79,5.79,0,1,1,5.47-5.78A5.64,5.64,0,0,1,34.81,43.65Zm0-9.79a4,4,0,0,0,0,8,4,4,0,0,0,0-8Z"/><rect class="cls-1" x="24.9" y="30" width="1.78" height="17.65"/><rect class="cls-1" x="48.02" y="41.76" width="15.42" height="1.76"/><polygon class="cls-1" points="64.63 68.82 59.88 68.82 59.88 67.05 62.85 67.05 62.85 64.7 10.67 64.7 10.67 67.05 13.64 67.05 13.64 68.82 8.89 68.82 8.89 62.94 64.63 62.94 64.63 68.82"/><path class="cls-1" d="M71.73,75.29H59.88V72.94H71.15V55.29H2.37V72.94H13.64v2.35H1.79C.54,75.29,0,73.89,0,72.67V55.29c0-1.22.54-2.35,1.79-2.35H71.73c1.24,0,1.79,1.13,1.79,2.35V72.67C73.52,73.89,73,75.29,71.73,75.29Z"/><rect class="cls-1" x="26.68" y="58.23" width="19.57" height="2.35"/><polygon class="cls-1" points="61.07 93.52 12.45 93.52 12.45 64.11 14.82 64.11 14.82 91.17 58.7 91.17 58.7 64.11 61.07 64.11 61.07 93.52"/><polygon class="cls-1" points="55.73 80.58 17.79 80.58 17.79 64.11 20.16 64.11 20.16 78.23 53.36 78.23 53.36 64.11 55.73 64.11 55.73 80.58"/><path class="cls-1" d="M70,16.74a1.93,1.93,0,0,1-1.88,2.08H4.84A1.92,1.92,0,0,1,3,16.74V2.05A1.9,1.9,0,0,1,4.84,0H68.08A1.9,1.9,0,0,1,70,2.05ZM5.34,16.47H68.18V2.35H5.34Z"/><path class="cls-1" d="M64.3,4.12H49a1,1,0,0,0-1,1v8.06a1,1,0,0,0,.95.94h15.5a.75.75,0,0,0,.75-.75V5A.91.91,0,0,0,64.3,4.12Zm-.86,1.76v6.47H62.25V5.88h1.19m-2.37,0v6.47H59.88V5.88Zm-3.56,6.47V5.88H58.7v6.47Zm-7.71,0V5.88H51v6.47Zm2.37,0V5.88h1.19v6.47Zm2.37,0V5.88h1.78v6.47Zm4.74-4.72v0Z"/><rect class="cls-1" x="14.82" y="5.88" width="11.86" height="1.76"/><rect class="cls-1" x="10.67" y="5.88" width="1.78" height="1.76"/><rect class="cls-1" x="57.51" y="17.06" width="1.78" height="8.23"/><rect class="cls-1" x="65.81" y="17.06" width="1.78" height="8.23"/><rect class="cls-1" x="5.34" y="17.06" width="1.78" height="8.23"/><rect class="cls-1" x="13.64" y="17.06" width="1.78" height="8.23"/><path class="cls-1" d="M61.66,40.59H51V31.76H61.66Zm-8.89-1.76h7.11V33.53H52.77Z"/></svg>