<svg id="Layer_1" data-name="Layer 1" xmlns="http://www.w3.org/2000/svg" viewBox="0 0 1024 768"><defs><style>.cls-1{fill:#d6513c;}.cls-2{fill:#c44538;}.cls-3{fill:#bc3c2e;}.cls-4{fill:none;}.cls-5{fill:#a42823;}</style></defs><title>log</title><polygon class="cls-1" points="604.68 648.35 399.31 648.35 412.54 495.81 592.97 483.2 604.68 648.35"/><polygon class="cls-2" points="604.68 648.35 524.09 648.35 412.54 495.81 592.97 483.2 604.68 648.35"/><polygon class="cls-3" points="452 608.71 452 549.77 446.35 542.04 452 608.71"/><polygon class="cls-3" points="452 492.87 442.24 493.56 442.25 493.74 452 493.05 452 492.87"/><polygon class="cls-3" points="422.46 557.96 426.26 514.57 422.59 509.56 422.46 557.96"/><polygon class="cls-3" points="428.19 494.56 423 494.94 423 495.11 428.27 494.73 428.19 494.56"/><polygon class="cls-3" points="572.19 484.42 560 485.28 560 485.51 572.21 484.66 572.19 484.42"/><polygon class="cls-3" points="512.08 488.66 502.81 489.31 502.81 489.5 512.03 488.86 512.08 488.66"/><polygon class="cls-4" points="427.99 494.73 426.26 514.57 446.35 542.04 442.25 493.74 427.99 494.73"/><polygon class="cls-4" points="604.68 648 592.97 483.02 572.1 484.57 559.46 628.95 559.86 485.49 512.03 488.85 502.51 530.94 502.81 489.5 452 493.05 452 549.77 524.09 648 604.68 648"/><polygon class="cls-4" points="412.54 495.81 422.59 509.56 422.63 495.11 412.54 495.81"/><polygon class="cls-5" points="442.25 493.74 446.35 542.04 452 549.77 452 493.05 442.25 493.74"/><polygon class="cls-5" points="422.63 495.11 422.59 509.56 426.26 514.57 427.99 494.73 422.63 495.11"/><polygon class="cls-5" points="572.1 484.66 559.86 485.51 559.46 628.99 572.1 484.66"/><polygon class="cls-5" points="512.03 488.86 502.81 489.5 502.51 530.94 512.03 488.86"/><polygon class="cls-5" points="461.87 492.18 456.63 492.55 456.46 553.96 461.87 492.18"/><polygon class="cls-5" points="532.25 572.73 524.09 648.35 538.87 648.35 532.25 572.73"/><polygon class="cls-3" points="484.55 648.35 491.49 648.35 487.46 602.34 484.55 648.35"/><polygon class="cls-5" points="588.55 648.35 595.49 648.35 591.46 602.34 588.55 648.35"/></svg>