<svg id="Layer_1" data-name="Layer 1" xmlns="http://www.w3.org/2000/svg" viewBox="0 0 1024 768"><defs><style>.cls-1{fill:#bc3c2e;}.cls-2{fill:#b3352f;}.cls-3{fill:#9a2322;}.cls-4{fill:none;}.cls-5{fill:#a42823;}</style></defs><title>log2</title><polygon class="cls-1" points="601.04 648.63 542.11 647.98 422.96 648.63 434.73 597.47 483.18 586.52 509.15 567.75 517.88 567.68 506.14 586.35 582.68 585.76 601.04 648.63"/><polygon class="cls-2" points="601.04 648.63 582.68 585.76 506.14 586.35 517.88 567.68 509.15 567.75 483.18 586.52 482.94 586.58 525.41 648.07 542.11 647.98 601.04 648.63"/><polygon class="cls-3" points="536.59 606.23 572.72 606.77 536.59 602.92 500.47 607.88 536.59 606.23"/><polygon class="cls-4" points="434.73 597.47 422.96 648.63 525.41 648.07 482.94 586.58 434.73 597.47"/><polygon class="cls-1" points="597.39 636.12 597.39 636.12 598.08 638.47 597.39 636.12"/><polygon class="cls-5" points="424.93 640.05 424.47 642.05 427.98 642.12 450.2 642.23 430.28 640.51 424.93 640.05"/><polygon class="cls-1" points="583.81 589.65 583.81 589.65 583.88 589.89 583.81 589.65"/><polygon class="cls-1" points="594.35 625.71 593.73 623.6 594.35 625.71 594.35 625.71"/><polygon class="cls-1" points="469.79 589.55 460.43 591.66 483.01 591.78 469.79 589.55"/><polygon class="cls-5" points="477.79 598.95 477.7 599.08 438.48 602.63 490 604.24 494.75 603.68 492.7 600.72 477.79 598.95"/><polygon class="cls-5" points="432.29 608.04 430.8 614.53 464.68 610.88 432.29 608.04"/><polygon class="cls-5" points="428.5 624.55 427.52 628.8 464.68 626.99 428.5 624.55"/><polygon class="cls-5" points="469.75 620.13 509 624.31 506.49 620.68 469.75 620.13"/><polygon class="cls-5" points="480.97 634.81 441.76 637.37 493.27 638.48 509.49 637 509.58 637 481.06 634.63 480.97 634.81"/><polygon class="cls-1" points="509.34 581.26 509.34 581.26 508.85 582.04 509.34 581.26"/><polygon class="cls-1" points="498.63 575.35 498.63 575.35 500.18 574.23 498.63 575.35"/><polygon class="cls-3" points="535.39 642 568.74 642 598.99 642 598.08 638.66 597.39 636.21 573.11 638.53 535.39 642"/><polygon class="cls-3" points="585.3 594.75 583.88 589.89 583.81 589.65 522.07 595.01 585.3 594.75"/><polygon class="cls-3" points="577.55 625.84 594.35 625.71 593.73 623.6 593.34 622.26 577.55 625.84"/><polygon class="cls-5" points="506.3 602 492.7 600.55 494.75 603.43 506.21 602 506.3 602"/><polygon class="cls-3" points="589.75 609.99 563.72 612.27 590.4 612.2 589.75 609.99"/><polygon class="cls-3" points="556.52 618.8 513.13 620.78 506.49 620.68 509 624.31 513.13 624.75 556.52 618.8"/><polygon class="cls-3" points="508.4 582.76 508.85 582.04 509.34 581.26 491.69 582.8 508.4 582.76"/><polygon class="cls-3" points="500.32 574.13 500.18 574.23 498.63 575.35 509.61 575.44 500.32 574.13"/><polygon class="cls-3" points="516.55 569.8 506.18 572.14 515.11 572.08 516.55 569.8"/></svg>