<svg id="Layer_1" data-name="Layer 1" xmlns="http://www.w3.org/2000/svg" viewBox="0 0 129.5 144.88"><defs><style>.cls-1{fill:#d65136;}.cls-2{fill:#c24333;}</style></defs><title>Artboard 1</title><path class="cls-1" d="M45.72.74,30.05,35.32l27,59.62c4,8.85-2.73,19-12.42,18.41l-.68-.06A13.71,13.71,0,0,1,45.56,86v-.21L32.37,56.63a45,45,0,1,0,54.29,61.45,33.06,33.06,0,0,0-.12-27.2Z"/><polygon class="cls-2" points="83.03 0.19 67.37 34.77 96.59 99.28 127.92 99.28 83.03 0.19"/><polyline class="cls-1" points="100.49 34.85 83.03 0.19 83.03 69.33 96.59 99.28 128.95 99.28 113.74 67.99 115.81 67.99 98.72 34.85 99.97 34.85"/></svg>