<svg id="Layer_1" data-name="Layer 1" xmlns="http://www.w3.org/2000/svg" viewBox="0 0 33.54 83.67"><defs><style>.cls-1{fill:#e5cebe;}.cls-2{fill:#f2dfd0;}.cls-3{fill:none;}.cls-4{fill:#9fd6e5;}.cls-5{fill:#ddc6b6;}.cls-6{fill:#1c343b;}.cls-7{fill:#bc3c2e;}.cls-8{fill:#d6513c;}.cls-9{fill:#fef2ea;}.cls-10{fill:#ceb4a7;}.cls-11{fill:#364e52;}.cls-12{fill:#fff;opacity:0.5;}</style></defs><title>map</title><polygon class="cls-1" points="33.54 0 33.29 9 4.5 9 4.5 0 33.54 0"/><polygon class="cls-2" points="33.54 2.77 0 2.77 8.84 79.78 30.43 79.78 33.54 2.77"/><polygon class="cls-3" points="33.49 3.99 34.65 2.77 33.49 3.99 33.49 3.99"/><polygon class="cls-3" points="35.26 29.93 35.25 29.92 32.5 27.64 32.5 27.65 35.26 29.93"/><path class="cls-3" d="M6.81,62.07,6.3,57.63A7.64,7.64,0,0,0,6.81,62.07Z"/><polygon class="cls-3" points="1.32 14.78 0.85 10.41 0.83 10.52 1.31 14.78 1.31 14.78 1.31 14.78 1.32 14.78"/><path class="cls-3" d="M1.42,15.77l.79,6.62s0,.12,0,.13l-.79-6.75Z"/><polygon class="cls-3" points="0.35 5.92 0.36 5.92 0 2.77 0.35 5.92"/><polygon class="cls-3" points="0.63 9.14 0.44 7.05 0.44 6.86 0.59 8.78 0.5 8.78 0.5 9.14 0.63 9.14"/><path class="cls-4" d="M2.23,22.18h0l.15,1.3h0Z"/><path class="cls-5" d="M1.32,14.32h0l.11,1h0Z"/><circle class="cls-5" cx="1.31" cy="14.32" r="0.01" transform="translate(-7.58 3.02) rotate(-32.98)"/><path class="cls-5" d="M1.44,15.31h0Z"/><polygon class="cls-5" points="0.73 9.15 0.71 9.14 0.83 10.18 0.85 10.18 0.73 9.15"/><polygon class="cls-5" points="0.85 10.18 0.83 10.18 0.85 10.18 0.85 10.18"/><polygon class="cls-5" points="0.73 9.14 0.71 9.14 0.71 9.14 0.73 9.15 0.73 9.14"/><polygon class="cls-5" points="0.37 6.01 0.35 6 0.47 7.05 0.49 7.05 0.37 6.01"/><polygon class="cls-5" points="0.49 7.05 0.47 7.05 0.49 7.05 0.49 7.05"/><path class="cls-3" d="M2.66,10.44h0Z"/><path class="cls-3" d="M21.74,63.91a7.6,7.6,0,0,1,9,.08l.33.25v-.05l-.33-.24A7.6,7.6,0,0,0,21.74,63.91Z"/><path class="cls-3" d="M16.83,66a7.62,7.62,0,0,1-2.34.61A7.62,7.62,0,0,0,16.83,66Z"/><path class="cls-3" d="M22.37,18.62c-.05-.57-.07-1.14-.07-1.71q0,.88.07,1.76a17.38,17.38,0,0,0,6.3,11.84l3.83,3.1v0l-3.83-3.1A17.44,17.44,0,0,1,22.37,18.62Z"/><path class="cls-3" d="M31.81,5.73,33.49,4h0L31.81,5.73,28.67,9.56a12.24,12.24,0,0,0-2.92,7.81,12.24,12.24,0,0,1,2.92-7.81Z"/><path class="cls-3" d="M5.59,4c-1,1.55-1.72,2.5-3.21,2.25l-2-.32V6l2,.29C3.87,6.54,4.57,5.54,5.59,4Z"/><path class="cls-3" d="M26.79,18.49q0-.56,0-1.12,0,.57,0,1.14a11.23,11.23,0,0,0,4,7.72l1.68,1.41h0l-1.68-1.41A11.26,11.26,0,0,1,26.79,18.49Z"/><path class="cls-3" d="M9.8,66.68a8.66,8.66,0,0,1-2.71-2.21l-.27-2.35,0,0,2,17.7L7.09,64.56A8.09,8.09,0,0,0,9.8,66.68Z"/><path class="cls-3" d="M21.3,16.92A18.47,18.47,0,0,1,25.65,5.18l1.94-2.4-1.94,2.4A18.47,18.47,0,0,0,21.3,16.92Z"/><path class="cls-3" d="M6,55.26,4.8,44.58l1.5,13v0Z"/><path class="cls-3" d="M12,35.3a21.6,21.6,0,0,1,.55,4.23A21.53,21.53,0,0,0,12,35.3,20.57,20.57,0,0,0,2.5,22.18h0A20.51,20.51,0,0,1,12,35.3Z"/><path class="cls-3" d="M9.89,66.72a8.91,8.91,0,0,0,.83.36A8.56,8.56,0,0,1,9.89,66.72Z"/><path class="cls-4" d="M10.86,35.54A20.35,20.35,0,0,1,8.48,51.13L6.4,54.54c-.14.23-.26.48-.37.72l.27,2.33h0a7.58,7.58,0,0,1,1-2.53l2.08-3.42a21.34,21.34,0,0,0,3.12-12.12,21.73,21.73,0,0,0-.62-4.23,21.34,21.34,0,0,0-9.6-13.12l.15,1.3A20.32,20.32,0,0,1,10.86,35.54Z"/><path class="cls-4" d="M9.34,51.65a21.34,21.34,0,0,0,3.12-12.12A21.34,21.34,0,0,1,9.34,51.65L7.26,55.06a7.58,7.58,0,0,0-1,2.53h0a7.58,7.58,0,0,1,1-2.53Z"/><path class="cls-4" d="M21.15,63.1l-2.91,2.1a7.62,7.62,0,0,1-11.2-2.58c-.09-.16-.15-.34-.23-.51l.27,2.35A8.66,8.66,0,0,0,9.8,66.68l.09,0a8.56,8.56,0,0,0,.83.36,9.54,9.54,0,0,0,1.11.34c.22.05.45.08.68.12,0-.16-.07-.32-.11-.48l2-.37c.06.31.15.61.23.92A8.62,8.62,0,0,0,18.83,66l2.91-2.1a7.6,7.6,0,0,1,9,0l.33.24,0-1.18A8.59,8.59,0,0,0,21.15,63.1Z"/><path class="cls-4" d="M10.73,67.09a8.54,8.54,0,0,0,1.11.34A9.54,9.54,0,0,1,10.73,67.09Z"/><path class="cls-4" d="M9.8,66.68l.09,0Z"/><path class="cls-6" d="M21.45,43.19l1.93.53a18.88,18.88,0,0,0,.45-2.06l-2-.31A16.87,16.87,0,0,1,21.45,43.19Z"/><path class="cls-6" d="M20.05,46.68l1.76.95a18.83,18.83,0,0,0,.89-1.91L20.85,45A17,17,0,0,1,20.05,46.68Z"/><path class="cls-6" d="M22.06,38.67q0,.4,0,.79l2,.09q0-.44,0-.89,0-.61,0-1.22l-2,.13Q22.06,38.12,22.06,38.67Z"/><path class="cls-6" d="M15.28,53l1.66,1.12a17,17,0,0,1,1.14-1.5l-1.52-1.29A19,19,0,0,0,15.28,53Z"/><path class="cls-6" d="M14.08,62.94l-2-.06q0,.31,0,.62,0,.75.06,1.49l2-.16q-.05-.67-.05-1.34Q14.07,63.21,14.08,62.94Z"/><path class="cls-6" d="M20.74,32.09l1.84-.78a19,19,0,0,0-.93-1.89l-1.75,1A17,17,0,0,1,20.74,32.09Z"/><path class="cls-6" d="M18.9,28.8l1.63-1.17A19.12,19.12,0,0,0,19.2,26l-1.49,1.34A17,17,0,0,1,18.9,28.8Z"/><path class="cls-6" d="M13.33,56.69l1.87.72A16.88,16.88,0,0,1,16,55.69l-1.77-.93A18.55,18.55,0,0,0,13.33,56.69Z"/><path class="cls-6" d="M17.91,49.78l1.51,1.31a18.8,18.8,0,0,0,1.3-1.67l-1.64-1.14A17,17,0,0,1,17.91,49.78Z"/><path class="cls-6" d="M12.27,60.77l2,.29a17,17,0,0,1,.37-1.85l-1.94-.5A19,19,0,0,0,12.27,60.77Z"/><rect class="cls-6" x="15.39" y="23.48" width="2" height="2" transform="translate(-12.37 18.08) rotate(-43.65)"/><polygon class="cls-6" points="23.06 78.58 22.42 79.78 24.73 79.78 24.79 79.63 23.06 78.58"/><path class="cls-6" d="M15.48,70.3l-1.83.8A19.1,19.1,0,0,0,14.6,73l1.73-1A17.13,17.13,0,0,1,15.48,70.3Z"/><path class="cls-6" d="M14.83,68.53c-.09-.3-.15-.61-.23-.92a8.62,8.62,0,0,1-2.09-.06c.11.53.25,1.06.4,1.57Z"/><path class="cls-6" d="M18.62,77.85a19.11,19.11,0,0,0,1.67,1.29l1.13-1.65a17.24,17.24,0,0,1-1.5-1.15Z"/><path class="cls-6" d="M21.8,35.7l2-.35a19,19,0,0,0-.48-2.05l-1.92.57A16.88,16.88,0,0,1,21.8,35.7Z"/><path class="cls-6" d="M15.75,74.75a18.94,18.94,0,0,0,1.35,1.63L18.57,75a16.78,16.78,0,0,1-1.2-1.45Z"/><path class="cls-6" d="M14.6,67.61c-.08-.31-.17-.61-.23-.92l-2,.38c0,.16.07.32.11.48A8.62,8.62,0,0,0,14.6,67.61Z"/><rect class="cls-7" x="9.39" y="16.5" width="2" height="2.55" transform="translate(-9.52 12.55) rotate(-45)"/><rect class="cls-7" x="12.61" y="19.71" width="2" height="2.55" transform="translate(-10.85 15.77) rotate(-45)"/><rect class="cls-7" x="12.33" y="16.77" width="2.55" height="2" transform="translate(-8.58 14.83) rotate(-45)"/><rect class="cls-7" x="9.12" y="19.99" width="2.55" height="2" transform="translate(-11.79 13.5) rotate(-45)"/><rect class="cls-7" x="11" y="18.38" width="2" height="2" transform="translate(-10.19 14.16) rotate(-45)"/><path class="cls-5" d="M21.3,16.92q0,.92.07,1.84a18.25,18.25,0,0,0,6.56,12.52l4.31,3.58.05-1.25-3.72-3.1a17.26,17.26,0,0,1-6.2-11.84q-.08-.88-.07-1.76A17.35,17.35,0,0,1,26.41,5.83L28.9,2.77H27.59l-1.94,2.4A18.47,18.47,0,0,0,21.3,16.92Z"/><path class="cls-5" d="M22.3,16.91A17.47,17.47,0,0,1,26.41,5.83,17.35,17.35,0,0,0,22.3,16.91Z"/><path class="cls-5" d="M28.06,31.29a18.32,18.32,0,0,1-6.62-12.52c-.05-.61-.11-1.23-.1-1.84,0,.61,0,1.23.05,1.84a18.39,18.39,0,0,0,6.68,12.52l4.43,3.58h0Z"/><path class="cls-5" d="M31.81,5.73,28.67,9.56a12.24,12.24,0,0,0-2.92,7.81q0,.61,0,1.23A12.25,12.25,0,0,0,30.2,27l2.28,1.9.05-1.26-1.7-1.41a11.25,11.25,0,0,1-4-7.72q-.05-.57,0-1.14a11.3,11.3,0,0,1,2.68-7.22l3.12-3.74.88-.91L33.49,4Z"/><path class="cls-5" d="M30.21,27a12.25,12.25,0,0,1-4.41-8.4c0-.41-.05-.82,0-1.23,0,.41,0,.82,0,1.23A12.26,12.26,0,0,0,30.21,27l2.29,1.9h0Z"/><path class="cls-5" d="M29.21,17.67a8.8,8.8,0,0,0,3.16,6l.31.26.05-1.28A7.85,7.85,0,0,1,32,11.82l1.2-1.42.07-1.63-2,2.39A8.8,8.8,0,0,0,29.21,17.67Z"/><path class="cls-5" d="M16.34,4.41A20.32,20.32,0,0,0,13.7,6.78l-.26.28c-3.59,3.88-7,7.56-12.12,7.26l.11,1H1.9c5.25,0,8.82-3.87,12.28-7.61l.26-.31a19.09,19.09,0,0,1,2.51-2.19,13.33,13.33,0,0,0,2.68-2.44H18.23C17.66,3.77,17,3.91,16.34,4.41Z"/><path class="cls-5" d="M13.44,7.06l.26-.28a20.32,20.32,0,0,1,2.65-2.37A19.86,19.86,0,0,0,13.7,6.72L13.44,7c-3.59,3.88-7,7.57-12.12,7.28h0C6.45,14.61,9.85,10.94,13.44,7.06Z"/><path class="cls-5" d="M14.43,7.4l-.26.31c-3.46,3.74-7,7.61-12.28,7.61H1.44l.46,0c5.25,0,8.82-3.85,12.28-7.6l.26-.28a19.51,19.51,0,0,1,2.51-2.25A19.09,19.09,0,0,0,14.43,7.4Z"/><path class="cls-5" d="M10.65,3.46C10.2,4,9.78,4.62,9.35,5.15c-2,2.56-3.82,4.77-7,4.26L.73,9.15l.12,1,1.34.21.48.05h.58c3.13,0,5-2.42,6.89-4.74.41-.52.83-1.1,1.27-1.6s1.18-.34,1.89-1.34h-2C11.05,2.77,10.84,3.24,10.65,3.46Z"/><path class="cls-5" d="M10.13,5.78c.41-.52.83-1.15,1.27-1.66-.44.5-.85,1.08-1.27,1.6C8.28,8,6.37,10.46,3.24,10.46H2.75c.16,0,.33,0,.49,0C6.37,10.48,8.28,8.09,10.13,5.78Z"/><path class="cls-5" d="M2.66,10.44l-.48-.05L.85,10.18h0l1.34.22C2.35,10.42,2.51,10.42,2.66,10.44Z"/><path class="cls-5" d="M9.35,5.15c.42-.53.85-1.17,1.29-1.69-.44.51-.87,1.1-1.29,1.63-2,2.56-3.93,4.8-7.12,4.29L.5,9.14h0l1.73.26C5.42,9.92,7.31,7.71,9.35,5.15Z"/><path class="cls-5" d="M2.22,7.31a3.74,3.74,0,0,0,.61,0c1.79,0,2.71-1.45,3.59-2.8A8.54,8.54,0,0,0,7.66,2.77H6.35c-.27,1-.52.84-.76,1.21-1,1.55-1.72,2.56-3.21,2.31L.37,6l.12,1Z"/><path class="cls-5" d="M2.83,7.39c1.79,0,2.71-1.51,3.59-2.86-.89,1.35-1.8,2.8-3.59,2.8a3.74,3.74,0,0,1-.61,0L.49,7.05h0l1.73.28A3.93,3.93,0,0,0,2.83,7.39Z"/><rect class="cls-7" x="7.49" y="61.76" width="3.05" height="1.7" transform="translate(-25.04 9.3) rotate(-24.38)"/><path class="cls-8" d="M9,62.48a2.5,2.5,0,1,1,1.25-3.31A2.51,2.51,0,0,1,9,62.48ZM7.53,59.33a1,1,0,1,0,1.26.47A1,1,0,0,0,7.53,59.33Z"/><circle class="cls-8" cx="13.65" cy="72.85" r="10.81" transform="translate(-28.85 12.13) rotate(-24.38)"/><path class="cls-3" d="M22.72,69.92a3.86,3.86,0,0,1-.94-3l.05-.45a3.86,3.86,0,0,1,.11-.57q-.29-.35-.61-.67l-.39.71a3.06,3.06,0,0,0-.36,1.12l-.14,1.19a3.08,3.08,0,0,0,.75,2.4l.54.61a3.1,3.1,0,0,0,2.17,1l.56,0A10.73,10.73,0,0,0,24.31,71,3.87,3.87,0,0,1,22.72,69.92Z"/><path class="cls-7" d="M8.31,71.48l.54-1.12a3.92,3.92,0,0,0,0-3.17l-.34-.74A3.94,3.94,0,0,0,6.68,64.6c-.22.18-.5.41-.7.61a3,3,0,0,1,1.66,1.65L8,67.6A3,3,0,0,1,8,70.09l-.46,1.08a3,3,0,0,1-.66,1l-3.7,3.59c.08.28.17.55.27.82l4-3.86A3.85,3.85,0,0,0,8.31,71.48Z"/><path class="cls-7" d="M6.23,71.36l.18-.42a3.85,3.85,0,0,0-1.32-4.71q-.24.31-.45.63A3.08,3.08,0,0,1,5.7,70.63l-.18.42a3.07,3.07,0,0,1-.68,1l-2,1.9q0,.47.14.95l2.36-2.29A3.84,3.84,0,0,0,6.23,71.36Z"/><path class="cls-7" d="M16.83,77.78a5.77,5.77,0,0,0,.11-4.93l-2.37-5.22a5.79,5.79,0,0,0-.87-1.31l-1.65-1.94a5.76,5.76,0,0,0-2.27-1.63l-.6.25-.46.22.4.13a5,5,0,0,1,2.31,1.54l1.57,2A4.92,4.92,0,0,1,13.67,68L16,73.27a4.89,4.89,0,0,1,0,4.22,5.7,5.7,0,0,0,.47,5.81c.26-.07.56-.17.81-.26A5,5,0,0,1,16.83,77.78Z"/><path class="cls-7" d="M19.89,78.84l.21-2.39A5.74,5.74,0,0,0,20,74.6l-1.51-6.31a5.73,5.73,0,0,0-1.75-2.94l-2-1.83a5.71,5.71,0,0,0-2.11-1.21L12,62.15a10.76,10.76,0,0,0-1.5.34l1.78.56a4.94,4.94,0,0,1,1.83,1l2,1.83a5,5,0,0,1,1.51,2.54l1.51,6.31a5,5,0,0,1,.12,1.6l-.21,2.39a5.73,5.73,0,0,0,.57,3.05q.33-.22.64-.46A5,5,0,0,1,19.89,78.84Z"/><path class="cls-7" d="M13.23,82.4a7.06,7.06,0,0,1-.69-.59A5.1,5.1,0,0,1,12,81c-.43-.66-.92-1.41-1.86-1.47a4.73,4.73,0,0,0-3.65,1.36q.29.26.6.5a4,4,0,0,1,1.1-.74,3.94,3.94,0,0,1,1.9-.34c.56,0,.89.54,1.27,1.12a5.74,5.74,0,0,0,.67.89,7.65,7.65,0,0,0,.76.66,4.53,4.53,0,0,1,.72.65q.45,0,.9,0A3.47,3.47,0,0,0,13.23,82.4Z"/><path class="cls-7" d="M9.83,82.07c.37,0,.59.33.92.83.1.15.2.3.31.45a10.84,10.84,0,0,0,1.41.25l-.11-.08a5.42,5.42,0,0,1-.52-.45,3.9,3.9,0,0,1-.43-.59c-.34-.53-.73-1.13-1.51-1.18a3.75,3.75,0,0,0-2.23.55q.38.25.77.47A3,3,0,0,1,9.83,82.07Z"/><path class="cls-7" d="M21.72,71.26l-.54-.61a3.08,3.08,0,0,1-.75-2.4l.14-1.19a3.06,3.06,0,0,1,.36-1.12l.39-.71q-.28-.29-.58-.55l-.48.88a3.84,3.84,0,0,0-.45,1.4l-.14,1.19a3.86,3.86,0,0,0,.93,3l.54.61a3.88,3.88,0,0,0,2.72,1.3l.61,0q0-.39,0-.78l-.56,0A3.1,3.1,0,0,1,21.72,71.26Z"/><path class="cls-7" d="M23.3,69.41A3.09,3.09,0,0,1,22.55,67l0-.27q-.3-.44-.64-.84a3.86,3.86,0,0,0-.11.57l-.05.45A3.85,3.85,0,0,0,24.31,71q-.08-.47-.21-.95A3.08,3.08,0,0,1,23.3,69.41Z"/><circle class="cls-9" cx="13.65" cy="72.85" r="8.65" transform="translate(-28.85 12.13) rotate(-24.38)"/><polygon class="cls-10" points="11.21 71.9 8.51 71.09 11.08 72.26 13.65 73.44 16.37 74.25 19.07 75.06 16.5 73.89 13.92 72.72 11.21 71.9"/><polygon class="cls-10" points="12.62 75.65 11.8 78.36 12.97 75.79 14.15 73.21 14.96 70.5 15.78 67.8 14.6 70.37 13.43 72.94 12.62 75.65"/><polygon class="cls-10" points="10.61 74.27 7.62 75.87 10.8 74.68 13.98 73.5 16.97 71.89 19.96 70.28 16.78 71.47 13.6 72.66 10.61 74.27"/><polygon class="cls-10" points="14.98 76.26 16.59 79.25 15.4 76.07 14.21 72.89 12.6 69.89 10.99 66.91 12.18 70.09 13.37 73.27 14.98 76.26"/><path class="cls-10" d="M15.29,76.47a4,4,0,1,1,2-5.26A4,4,0,0,1,15.29,76.47Zm-3.21-7.09a3.82,3.82,0,1,0,5.05,1.9A3.82,3.82,0,0,0,12.08,69.38Z"/><polygon class="cls-11" points="11.69 75.67 10.22 78.6 12.27 76.04 14.32 73.47 15.79 70.53 17.26 67.6 15.21 70.17 13.16 72.73 11.69 75.67"/><polygon class="cls-7" points="14.31 73.48 15.79 70.54 17.26 67.6 15.2 70.17 13.15 72.74 14.31 73.48"/><path class="cls-10" d="M16.9,80l-.1,0-.06-.14.21-.1L17,80Zm-.32.14-.22.08-.05-.15.22-.08Zm.64-.29-.07-.14.2-.11.07.14Zm-1.08.45-.22.07,0-.15.22-.07Zm1.5-.68-.08-.13.2-.12.08.13Zm-1.95.82-.23.06,0-.15.22-.06ZM18,79.38l-.09-.13.19-.13.09.13Zm-2.8,1.17-.23,0,0-.15.23,0Zm3.18-1.45L18.32,79l.18-.14.1.12Zm-3.65,1.53-.23,0,0-.15.23,0Zm4-1.82-.1-.12.17-.15.1.11ZM14.3,80.69l-.24,0v-.16l.23,0Zm4.83-2.19L19,78.38l.16-.16.11.11Zm-5.3,2.22H13.6v-.16h.23Zm5.63-2.56-.11-.1.15-.17.12.1Zm-6.1,2.55h-.24v-.15h.23Zm6.4-2.91-.12-.1.14-.18.12.09Zm-6.87,2.88-.23,0,0-.15.23,0ZM20,77.43l-.13-.09.13-.19.13.09Zm-7.62,3.19-.23,0,0-.15.23,0ZM20.31,77,20.18,77l.12-.2.13.08ZM12,80.53l-.23-.05,0-.15.22.05Zm8.59-3.9-.14-.07.11-.2.14.07Zm-9,3.78-.23-.07,0-.15.22.07Zm9.26-4.2-.14-.07.1-.21.14.06Zm-9.7,4.06-.22-.08.06-.15.22.08Zm9.89-4.49-.14-.06.08-.22.15.05ZM10.62,80.11,10.4,80l.06-.14.21.09Zm10.49-4.76-.15,0,.07-.22.15,0ZM10.19,79.91,10,79.81l.07-.14.21.1Zm11.06-5-.15,0,.06-.22.15,0ZM9.77,79.69l-.2-.12.08-.13.2.12Zm11.58-5.26-.15,0,0-.23.15,0Zm-12,5-.2-.13.09-.13.19.13ZM21.44,74l-.15,0,0-.23.15,0ZM9,79.18,8.8,79l.1-.12.18.14Zm12.5-5.68h-.15q0-.11,0-.23h.15Q21.5,73.39,21.49,73.51ZM8.62,78.89l-.18-.15.1-.12.17.15ZM21.52,73h-.16q0-.12,0-.23h.16Q21.52,72.92,21.52,73ZM8.27,78.58l-.17-.16.11-.11.17.16Zm13.25-6h-.16q0-.12,0-.23h.15Q21.51,72.45,21.51,72.56ZM7.93,78.25l-.16-.17.12-.1.16.17Zm13.55-6.16h-.15q0-.11,0-.23l.15,0Q21.47,72,21.48,72.09ZM7.62,77.9l-.15-.18.12-.1.15.18Zm13.8-6.27-.15,0,0-.23.15,0ZM7.33,77.53l-.14-.19.13-.09.13.19Zm14-6.37-.15,0L21.13,71l.15,0Zm-14.27,6-.13-.2.13-.08.12.2Zm14.16-6.44-.15,0L21,70.53l.15,0Zm-14.4,6-.11-.21.14-.07.11.2Zm14.26-6.48-.15.05-.08-.22L21,70ZM6.6,76.33l-.1-.21L6.64,76l.1.21Zm14.31-6.51-.14.06-.09-.21v0l.14-.06,0,0Zm-14.36,6-.14.06-.09-.22.14-.06Zm14-6.41-.11-.21.14-.07.11.21Zm-14.18,6-.15.05-.07-.22.15,0Zm14-6.39-.12-.2.13-.08.12.2ZM6.24,75l-.15,0L6,74.78l.15,0ZM20.1,68.63,20,68.44l.13-.09.13.19Zm-14,5.89-.15,0,0-.23.15,0Zm13.71-6.27-.14-.18.12-.1.14.19ZM6,74.07l-.15,0,0-.23.15,0Zm13.52-6.18-.15-.17.12-.1.15.18ZM6,73.61l-.15,0q0-.12,0-.24H6Q6,73.5,6,73.61Zm13.27-6.07-.16-.16.11-.11.16.17ZM5.95,73.15H5.79q0-.12,0-.24h.16Q5.94,73,5.95,73.15Zm13-5.93-.17-.15.1-.12.17.16Zm-13,5.47H5.79q0-.12,0-.24H6Q5.95,72.57,5.94,72.69Zm12.63-5.77-.18-.14.1-.12.18.15ZM6,72.23H5.81q0-.12,0-.23L6,72Q6,72.11,6,72.23Zm12.25-5.59L18,66.5l.09-.13.19.14ZM6,71.77l-.15,0,0-.23.15,0Zm11.81-5.4-.2-.12.08-.13.2.12ZM6.1,71.31l-.15,0L6,71.05l.15,0Zm11.34-5.18-.2-.11.07-.14.21.11ZM6.2,70.87l-.15,0,.06-.23.15,0ZM17,65.92l-.21-.1.06-.14.21.1Zm-10.7,4.5-.15,0,.08-.22.15.05Zm10.28-4.69-.21-.09.06-.15.22.09ZM6.49,70l-.14-.06.09-.22.14.06Zm9.69-4.42L16,65.5l0-.15.22.07Zm-9.5,4-.14-.07.1-.21.14.07Zm9.06-4.14-.22-.06,0-.15.23.06ZM6.89,69.16l-.14-.07.12-.2L7,69Zm8.41-3.84-.23,0,0-.15.23,0ZM7.12,68.76,7,68.68l.13-.2.13.09Zm7.72-3.53-.23,0,0-.15.23,0ZM7.37,68.38l-.13-.09.14-.19.12.09Zm7-3.2-.23,0V65l.23,0ZM7.65,68l-.12-.1.15-.18.12.1Zm6.27-2.86h-.23V65h.24ZM8,67.66l-.11-.1L8,67.39l.11.11Zm5.51-2.52h-.23V65h.24ZM8.27,67.33l-.11-.11.17-.16.11.11ZM13,65.17l-.23,0,0-.15L13,65ZM8.61,67l-.1-.12.18-.15.1.12Zm3.93-1.8-.23,0,0-.15.23,0ZM9,66.73l-.09-.12.19-.14.09.13Zm3.12-1.43-.22.05,0-.15.23-.05ZM9.34,66.46l-.09-.13.2-.13.08.13Zm2.3-1-.22.06,0-.15.23-.07Zm-1.91.8-.08-.13.2-.12.07.14Zm1.46-.67-.22.08-.05-.15.22-.08ZM10.14,66l-.07-.14.21-.1.07.14Zm.63-.29-.21.09-.06-.14.22-.09Z"/><path class="cls-3" d="M5,73.07l15,5.65q.27-.29.5-.6L5,72.29Q5,72.68,5,73.07Z"/><path class="cls-3" d="M21.53,69.28a8.65,8.65,0,0,0-15.36-.77l16,6A8.61,8.61,0,0,0,21.53,69.28Z"/><path class="cls-12" d="M22.14,74.52l-16-6A8.69,8.69,0,0,0,5,72.29l15.5,5.83A8.69,8.69,0,0,0,22.14,74.52Z"/><path class="cls-12" d="M5.77,76.42A8.66,8.66,0,0,0,20,78.72L5,73.07A8.62,8.62,0,0,0,5.77,76.42Z"/></svg>