<svg id="Layer_1" data-name="Layer 1" xmlns="http://www.w3.org/2000/svg" viewBox="0 0 91.99 90.57"><defs><style>.cls-1{fill:#d65135;}</style></defs><title>map_icon2</title><path class="cls-1" d="M89.64,90.57a2.29,2.29,0,0,1-1-.25L68.08,79.89l-21,9.56a2.29,2.29,0,0,1-1.89,0L25.69,80.62,3.23,90.18A2.32,2.32,0,0,1,1,90a2.29,2.29,0,0,1-1-1.9V13a2.3,2.3,0,0,1,1.43-2.11L24.92.95a2.31,2.31,0,0,1,1.84,0L46.16,9.73,67,.21a2.28,2.28,0,0,1,2,0L90.68,11a2.33,2.33,0,0,1,1.31,2V88.28a2.29,2.29,0,0,1-1.11,1.95A2.37,2.37,0,0,1,89.64,90.57ZM68.1,77a2.37,2.37,0,0,1,1.06.25l20,10.13V13.44L68,2.94,47.12,12.46a2.3,2.3,0,0,1-1.9,0L25.8,3.69,2.87,13.39V87.2l21.91-9.32a2.31,2.31,0,0,1,1.84,0l19.53,8.83,21-9.56A2.3,2.3,0,0,1,68.1,77Z"/><path class="cls-1" d="M2.76,74.09.17,72.86l1.23-2.6L4,71.5ZM5.23,68.9l-2.6-1.23,1.23-2.6,2.6,1.23ZM7.7,63.71,5.1,62.47l1.23-2.6,2.6,1.23Zm27.21-1.1a11.2,11.2,0,0,1-2.32-.26l.6-2.8a8.31,8.31,0,0,0,1.72.19h0c.24,0,.48,0,.71,0l.24,2.87c-.32,0-.64,0-1,0Zm4.15-.82-1-2.68a8.4,8.4,0,0,0,2.12-1.21l1.77,2.26A11.27,11.27,0,0,1,39.06,61.78Zm-9.55-.61a11.46,11.46,0,0,1-2-1.4L27,59.28l1.9-2.16.56.49a8.58,8.58,0,0,0,1.49,1.05ZM10.16,58.53,7.58,57.26a11.27,11.27,0,0,1,1.86-2.7l2.1,2A8.4,8.4,0,0,0,10.16,58.53Zm34-.77L41.8,56.12a8.42,8.42,0,0,0,1.09-2.19l2.73.89A11.29,11.29,0,0,1,44.17,57.76ZM24.8,57.38,23.18,56l-.48-.39,1.74-2.29c.22.16.43.34.64.52l1.62,1.42ZM13.46,55,12,52.51a11.3,11.3,0,0,1,3.05-1.21l.66,2.8A8.42,8.42,0,0,0,13.46,55Zm7.1-.61a8.28,8.28,0,0,0-2.39-.5L18.34,51a11.14,11.14,0,0,1,3.22.67Zm47-1a11.12,11.12,0,0,1-3.25-.52l.87-2.74a8.25,8.25,0,0,0,2.41.39Zm3.25-.43L70,50.17a8.5,8.5,0,0,0,2.24-1l1.54,2.43A11.37,11.37,0,0,1,70.78,52.93Zm-24.27-.61L43.94,51a11.07,11.07,0,0,1,1.9-2.69l2.08,2A8.2,8.2,0,0,0,46.51,52.32Zm14.82-.93a11.58,11.58,0,0,1-1.5-1.24,8.8,8.8,0,0,0-.75-.66l1.76-2.27a11.68,11.68,0,0,1,1,.87A8.7,8.7,0,0,0,63,49Zm14.92-2-2.18-1.87a8.21,8.21,0,0,0,1.29-2.07L78,46.65A11.09,11.09,0,0,1,76.26,49.44Zm-26.41-.6-1.41-2.51a11.38,11.38,0,0,1,3.06-1.17l.63,2.8A8.5,8.5,0,0,0,49.85,48.84ZM57,48.29a8.22,8.22,0,0,0-2.38-.52l.19-2.87a11.09,11.09,0,0,1,3.21.7Zm22-4.6L76.13,43l.72-2.78,2.78.72Zm1.45-5.57-2.78-.72.72-2.78,2.78.72Zm1.45-5.57L79,31.84l.6-2.29,2.78.72Z"/><rect class="cls-1" x="81.99" y="19.85" width="3.81" height="2.99" transform="translate(7.71 62.45) rotate(-42.63)"/><rect class="cls-1" x="76.99" y="24.45" width="3.81" height="2.99" transform="translate(3.28 60.28) rotate(-42.63)"/><rect class="cls-1" x="82.2" y="24.24" width="2.99" height="3.81" transform="matrix(0.74, -0.68, 0.68, 0.74, 4.42, 63.6)"/><rect class="cls-1" x="77.6" y="19.24" width="2.99" height="3.81" transform="translate(6.58 59.15) rotate(-42.63)"/><rect class="cls-1" x="79.9" y="22.15" width="2.99" height="2.99" transform="translate(5.5 61.38) rotate(-42.64)"/><path class="cls-1" d="M31.78,82l-1.63-1L35,73.11a9.75,9.75,0,0,0-.83-11.47l-5.46-6.47a11.69,11.69,0,0,1,3.73-18l1-.5A11.73,11.73,0,0,1,39,35.44l9.16.27a9.78,9.78,0,0,0,10.07-9.77V24.23A11.65,11.65,0,0,1,65.34,13.5a9.82,9.82,0,0,0,5.92-9h1.92a11.74,11.74,0,0,1-7.08,10.73,9.74,9.74,0,0,0-5.92,9v1.71a11.7,11.7,0,0,1-12,11.69L39,37.36a9.81,9.81,0,0,0-4.64,1l-1,.5a9.78,9.78,0,0,0-3.12,15.06l5.46,6.47a11.66,11.66,0,0,1,1,13.72Z"/><path class="cls-1" d="M38.2,30.94c-7.62,0-15-4.29-22.16-8.49a112.7,112.7,0,0,0-10-5.4H6a12.45,12.45,0,0,1-4.95-3.88L1,13l0-.19a1.35,1.35,0,0,1,.82-1.06L8.35,9l.21.39a8.25,8.25,0,0,0,4,3.63,85,85,0,0,1,7.57,4.08c3.78,2.21,7.69,4.49,11.58,5.57a14.32,14.32,0,0,0,11.72-1.31c2.83-1.64,3.44-5.58,4-9.39.09-.56.17-1.12.27-1.67l0-.25L56.4,6.11l-.56,1.37a35,35,0,0,0-1.63,7.32c-.83,5.35-1.68,10.88-5.92,13.35A19.71,19.71,0,0,1,38.2,30.94ZM2,12.8a11.58,11.58,0,0,0,4.42,3.39h0a113.43,113.43,0,0,1,10.09,5.44c5.06,3,10.29,6,15.5,7.46,5.87,1.64,10.88,1.08,15.78-1.76,3.85-2.23,4.66-7.53,5.46-12.66A42.38,42.38,0,0,1,54.65,8l-6,2.75c-.08.46-.15.93-.22,1.4-.62,4-1.27,8.21-4.49,10.08A14.88,14.88,0,0,1,36.3,24.3c-5.73,0-11.25-3.22-16.65-6.37a84.3,84.3,0,0,0-7.48-4,9.25,9.25,0,0,1-4.24-3.67L2.19,12.65A.41.41,0,0,0,2,12.8Z"/><path class="cls-1" d="M36.3,24.3c-5.73,0-11.25-3.22-16.65-6.37a84.3,84.3,0,0,0-7.48-4A9.19,9.19,0,0,1,7.71,9.84l-.25-.46,7.39-3.13.2.42a5.6,5.6,0,0,0,2.87,2.75,59.6,59.6,0,0,1,5.31,2.86c5.46,3.19,10.62,6.2,16.16,3,1.74-1,2.25-3.36,2.62-5.69l.1-.62L46,10.72a.37.37,0,0,0,.31,0l2.5-1.14-.15.89c-.09.54-.18,1.09-.26,1.65-.62,4-1.27,8.21-4.49,10.08A14.88,14.88,0,0,1,36.3,24.3ZM8.82,9.84A8.34,8.34,0,0,0,12.56,13a85,85,0,0,1,7.57,4.08c3.78,2.21,7.69,4.49,11.58,5.57a14.32,14.32,0,0,0,11.72-1.31c2.83-1.64,3.44-5.58,4-9.39l.12-.78-.86.39a1.33,1.33,0,0,1-1.1,0l-2.75-1.24c-.41,2.34-1.05,4.62-3,5.75-6,3.49-11.67.2-17.13-3a58.88,58.88,0,0,0-5.22-2.82,6.58,6.58,0,0,1-3.13-2.8Z"/><path class="cls-1" d="M34.47,17.59c-4,0-7.93-2.27-11.73-4.48a58.88,58.88,0,0,0-5.22-2.82h0a6.53,6.53,0,0,1-3.34-3.21L14,6.62,25.3,1.83a1.34,1.34,0,0,1,1.07,0L43,9.37,43,9.73c-.41,2.55-1,5.14-3.09,6.36A10.56,10.56,0,0,1,34.47,17.59ZM17.92,9.41a59.6,59.6,0,0,1,5.31,2.86c5.46,3.19,10.62,6.2,16.16,3,1.65-1,2.19-3.12,2.57-5.32L26,2.72a.38.38,0,0,0-.3,0L15.28,7.11a5.67,5.67,0,0,0,2.64,2.31Z"/><path class="cls-1" d="M46.17,88.7a1.33,1.33,0,0,1-.55-.12l-5.31-2.4v-.3A31.13,31.13,0,0,1,53.21,60.18c6.22-4.49,10.68-2.73,16.31-.5,1.8.71,3.66,1.45,5.76,2.06a35.12,35.12,0,0,0,7.47.9,41.75,41.75,0,0,1,7.9.92l.36.09v9.9l-.85-1c-2-2.45-5.86-2.66-9.6-2.86a26.68,26.68,0,0,1-5.76-.71c-1.61-.47-3-1-4.39-1.56-4.14-1.64-7.14-2.82-11.43.27a22.38,22.38,0,0,0-9.29,19.24v.32l-3,1.37A1.33,1.33,0,0,1,46.17,88.7Zm-4.91-3.14L46,87.71a.37.37,0,0,0,.31,0l2.42-1.1a23.33,23.33,0,0,1,9.7-19.73c4.71-3.4,8.25-2,12.34-.38,1.34.53,2.73,1.08,4.3,1.54a26.07,26.07,0,0,0,5.54.67c3.49.19,7.09.39,9.44,2.35V64.41a43.82,43.82,0,0,0-7.36-.8A35.73,35.73,0,0,1,75,62.66c-2.15-.62-4-1.37-5.85-2.09-5.57-2.2-9.6-3.8-15.4.38A30.17,30.17,0,0,0,41.26,85.55Z"/><path class="cls-1" d="M89.66,89.61a1.34,1.34,0,0,1-.61-.15l-3.34-1.69.12-.38c1.23-4.1.86-7.2-1.2-10-1.3-1.8-4.05-2-6.71-2.1a18.79,18.79,0,0,1-4.07-.5c-1.14-.33-2.13-.72-3.09-1.1-2.85-1.13-4.91-1.94-7.85.17a15.47,15.47,0,0,0-6.23,10l0,.25-7.85,3.58,0-.71a23.34,23.34,0,0,1,9.69-20.06c4.71-3.4,8.24-2,12.33-.39,1.34.53,2.73,1.08,4.3,1.54h0a26.07,26.07,0,0,0,5.54.67c3.95.21,8,.44,10.29,3.21L91,72V88.28a1.32,1.32,0,0,1-.64,1.12A1.38,1.38,0,0,1,89.66,89.61Zm-2.8-2.33,2.63,1.33a.4.4,0,0,0,.4,0,.37.37,0,0,0,.18-.31V72.38c-2-2.33-5.82-2.53-9.49-2.73a26.68,26.68,0,0,1-5.76-.71c-1.61-.47-3-1-4.39-1.57-4.14-1.64-7.13-2.82-11.42.27A22.38,22.38,0,0,0,49.7,86.17l6.09-2.78A16.42,16.42,0,0,1,62.36,73c3.36-2.42,5.86-1.43,8.76-.29.94.37,1.91.76,3,1.07a18.16,18.16,0,0,0,3.85.46c2.89.16,5.87.32,7.44,2.49C87.56,79.77,88,83.11,86.86,87.28Z"/><path class="cls-1" d="M86.58,88.22,68.27,78.91a.39.39,0,0,0-.33,0L55.59,84.53l.15-.89A16.42,16.42,0,0,1,62.36,73c3.36-2.42,5.86-1.43,8.76-.29.94.37,1.91.75,3,1.07a18.16,18.16,0,0,0,3.85.46c2.89.16,5.87.32,7.44,2.49,2.22,3.07,2.64,6.53,1.34,10.88ZM68.7,78.06,86,86.84c1-3.83.61-6.77-1.35-9.49-1.3-1.8-4.05-2-6.71-2.1a18.79,18.79,0,0,1-4.07-.5c-1.14-.33-2.13-.72-3.09-1.1-2.85-1.13-4.91-1.94-7.85.17a15.45,15.45,0,0,0-6,9.08L67.54,78a1.35,1.35,0,0,1,1.16,0Z"/><rect class="cls-1" x="25.3" y="2.23" width="1.92" height="77.05"/><rect class="cls-1" x="45.61" y="11.24" width="1.92" height="76.86"/><rect class="cls-1" x="66.69" y="1.46" width="1.92" height="77.05"/></svg>