<svg id="Layer_1" data-name="Layer 1" xmlns="http://www.w3.org/2000/svg" xmlns:xlink="http://www.w3.org/1999/xlink" viewBox="0 0 1024 768"><defs><style>.cls-1{fill:url(#linear-gradient);}.cls-2{fill:url(#linear-gradient-2);}.cls-3{fill:url(#linear-gradient-3);}.cls-4{fill:url(#linear-gradient-4);}.cls-5{fill:url(#linear-gradient-5);}.cls-6{fill:url(#linear-gradient-6);}.cls-7{fill:url(#linear-gradient-7);}.cls-8{fill:url(#linear-gradient-8);}.cls-9{fill:url(#linear-gradient-9);}.cls-10{fill:url(#linear-gradient-10);}</style><linearGradient id="linear-gradient" x1="425.45" y1="362.69" x2="425.45" y2="656.16" gradientUnits="userSpaceOnUse"><stop offset="0.12" stop-color="#eb593b"/><stop offset="0.22" stop-color="#ed6441"/><stop offset="0.39" stop-color="#f28350"/><stop offset="0.62" stop-color="#fab368"/><stop offset="0.76" stop-color="#ffd578"/></linearGradient><linearGradient id="linear-gradient-2" x1="526.76" y1="473.67" x2="526.76" y2="547.02" gradientUnits="userSpaceOnUse"><stop offset="0.17" stop-color="#bc3c2e"/><stop offset="0.39" stop-color="#d86d4f"/><stop offset="0.63" stop-color="#f49d70"/><stop offset="0.64" stop-color="#f4a072"/><stop offset="0.7" stop-color="#f6ae7b"/><stop offset="0.78" stop-color="#f8b680"/><stop offset="0.93" stop-color="#f8b881"/></linearGradient><linearGradient id="linear-gradient-3" x1="423" y1="430.58" x2="423" y2="595.83" xlink:href="#linear-gradient-2"/><linearGradient id="linear-gradient-4" x1="512" y1="499.47" x2="512" y2="726.34" gradientUnits="userSpaceOnUse"><stop offset="0" stop-color="#f2dfd0" stop-opacity="0"/><stop offset="0.2" stop-color="#f2dfd0" stop-opacity="0.33"/><stop offset="0.43" stop-color="#f2dfd0" stop-opacity="0.69"/><stop offset="0.59" stop-color="#f2dfd0" stop-opacity="0.91"/><stop offset="0.67" stop-color="#f2dfd0"/></linearGradient><linearGradient id="linear-gradient-5" x1="122.78" y1="350.79" x2="122.78" y2="736.99" gradientUnits="userSpaceOnUse"><stop offset="0.19" stop-color="#c34328"/><stop offset="0.25" stop-color="#c74827"/><stop offset="0.32" stop-color="#d15524"/><stop offset="0.39" stop-color="#e26c1e"/><stop offset="0.43" stop-color="#f07e1a"/><stop offset="0.49" stop-color="#f49331"/><stop offset="0.58" stop-color="#f9b050"/><stop offset="0.67" stop-color="#fcc466"/><stop offset="0.76" stop-color="#fed173"/><stop offset="0.84" stop-color="#ffd578"/></linearGradient><linearGradient id="linear-gradient-6" x1="338.23" y1="430.8" x2="338.23" y2="745.26" xlink:href="#linear-gradient-5"/><linearGradient id="linear-gradient-7" x1="332.42" y1="351.19" x2="332.42" y2="743.62" gradientUnits="userSpaceOnUse"><stop offset="0.18" stop-color="#d14f38"/><stop offset="0.23" stop-color="#d55b3e"/><stop offset="0.52" stop-color="#ec9d5d"/><stop offset="0.73" stop-color="#fac571"/><stop offset="0.84" stop-color="#ffd578"/></linearGradient><linearGradient id="linear-gradient-8" x1="122.78" y1="350.79" x2="122.78" y2="736.99" gradientUnits="userSpaceOnUse"><stop offset="0.14" stop-color="#b6351d"/><stop offset="0.23" stop-color="#b93c21"/><stop offset="0.37" stop-color="#c2502c"/><stop offset="0.53" stop-color="#d1713f"/><stop offset="0.71" stop-color="#e69f59"/><stop offset="0.89" stop-color="#ffd578"/></linearGradient><linearGradient id="linear-gradient-9" x1="338.23" y1="430.8" x2="338.23" y2="745.26" xlink:href="#linear-gradient-8"/><linearGradient id="linear-gradient-10" x1="512" y1="506.83" x2="512" y2="726.64" xlink:href="#linear-gradient-4"/></defs><title>mountain_back</title><path class="cls-1" d="M0,767H850.9c-42.6-34-159.3-160.34-168.56-158.26s-37-31.82-37-31.82c-22.23,0-66.13-62-80.71-59.33-16.5,3-73-60.87-73-60.87L423,485.7,372.6,447.09s-28.94,16.5-34.5,16.5L0,698.53Z"/><path class="cls-2" d="M565,517.84c-16.5,3-73-61.12-73-61.12l-3.5,13.78,3,10L492,699Z"/><polygon class="cls-3" points="372.6 447.09 423.04 485.7 415 513 424 527 429 548 481 633 430 645 365 511 385 485 372.6 447.09"/><rect class="cls-4" y="479" width="1024" height="289"/><polygon class="cls-5" points="63 760 60.33 466.02 72.33 413.33 63 325.87 185.22 416.81 128.05 513.58 113 575.08 113 649 63 760"/><path class="cls-6" d="M274.23,410.51s95.08,99.86,101.29,99.86L417.46,590,354,764,259,500l25-34Z"/><path class="cls-7" d="M664.84,767c-20.54-25.79-44.38-59.87-44.38-59.87l-44-9.87L448.46,590h-31l-41.89-79.63c-6.21,0-101.23-99.86-101.23-99.86l-89,6.3L63.22,325.87C53,338.32,31.06,357.6,5.1,375.28A47.71,47.71,0,0,1,0,378.23V767Z"/><polygon class="cls-8" points="63 760 60.33 466.02 72.33 413.33 63 325.87 185.22 416.81 128.05 513.58 113 575.08 113 649 63 760"/><path class="cls-9" d="M274.23,410.51s95.08,99.86,101.29,99.86L417.46,590,354,764,259,500l25-34Z"/><rect class="cls-10" y="487" width="1024" height="280"/></svg>