<svg id="Layer_1" data-name="Layer 1" xmlns="http://www.w3.org/2000/svg" xmlns:xlink="http://www.w3.org/1999/xlink" viewBox="0 0 1024 768"><defs><style>.cls-1{fill:none;}.cls-2{clip-path:url(#clip-path);}.cls-3,.cls-4{opacity:0.5;}.cls-3{fill:url(#linear-gradient);}.cls-4{fill:url(#linear-gradient-2);}.cls-5,.cls-6{opacity:0.3;}.cls-5{fill:url(#linear-gradient-3);}.cls-6{fill:url(#linear-gradient-4);}</style><clipPath id="clip-path"><rect class="cls-1" width="1024" height="768"/></clipPath><linearGradient id="linear-gradient" x1="614.14" y1="470.92" x2="208.14" y2="-123.08" gradientUnits="userSpaceOnUse"><stop offset="0" stop-color="#f2dfd0" stop-opacity="0"/><stop offset="0.07" stop-color="#f2dfd0" stop-opacity="0.02"/><stop offset="0.16" stop-color="#f2e0cf" stop-opacity="0.08"/><stop offset="0.25" stop-color="#f2e1cd" stop-opacity="0.18"/><stop offset="0.35" stop-color="#f2e2cb" stop-opacity="0.31"/><stop offset="0.45" stop-color="#f2e4c9" stop-opacity="0.49"/><stop offset="0.55" stop-color="#f2e6c5" stop-opacity="0.71"/><stop offset="0.65" stop-color="#f2e9c2" stop-opacity="0.96"/><stop offset="0.67" stop-color="#f2e9c1"/></linearGradient><linearGradient id="linear-gradient-2" x1="446.39" y1="583.39" x2="14.39" y2="-44.61" xlink:href="#linear-gradient"/><linearGradient id="linear-gradient-3" x1="980.06" y1="401.6" x2="542.06" y2="-240.4" gradientUnits="userSpaceOnUse"><stop offset="0" stop-color="#f2dfd0" stop-opacity="0"/><stop offset="0.2" stop-color="#f2e2cb" stop-opacity="0.33"/><stop offset="0.43" stop-color="#f2e6c6" stop-opacity="0.69"/><stop offset="0.59" stop-color="#f2e8c2" stop-opacity="0.91"/><stop offset="0.67" stop-color="#f2e9c1"/></linearGradient><linearGradient id="linear-gradient-4" x1="407.79" y1="592.19" x2="-15.19" y2="-22.78" xlink:href="#linear-gradient-3"/></defs><title>ray3</title><g class="cls-2"><polygon class="cls-3" points="755.38 643.28 307.67 -4.72 265.6 -4.72 726.85 662.87 755.38 643.28"/><polygon class="cls-4" points="529.54 672.94 62.09 -4.72 20.3 -4.72 501.18 692.41 529.54 672.94"/><polygon class="cls-5" points="637.42 -4.72 1023 556.88 1023 368.63 766.67 -4.72 637.42 -4.72"/><polygon class="cls-6" points="464.3 659.32 8.39 -4.72 -1 -4.72 -1 12.9 449.7 669.35 464.3 659.32"/></g></svg>