<svg id="Layer_1" data-name="Layer 1" xmlns="http://www.w3.org/2000/svg" xmlns:xlink="http://www.w3.org/1999/xlink" viewBox="0 0 1024 768"><defs><style>.cls-1{fill:none;}.cls-2{clip-path:url(#clip-path);}.cls-3,.cls-4{opacity:0.3;}.cls-3{fill:url(#linear-gradient);}.cls-4{fill:url(#linear-gradient-2);}.cls-5,.cls-6{opacity:0.5;}.cls-5{fill:url(#linear-gradient-3);}.cls-6{fill:url(#linear-gradient-4);}</style><clipPath id="clip-path"><rect class="cls-1" width="1024" height="768"/></clipPath><linearGradient id="linear-gradient" x1="272.21" y1="565.3" x2="-60.77" y2="89.83" gradientUnits="userSpaceOnUse"><stop offset="0" stop-color="#f2dfd0" stop-opacity="0"/><stop offset="0.2" stop-color="#f2e2cb" stop-opacity="0.33"/><stop offset="0.43" stop-color="#f2e6c6" stop-opacity="0.69"/><stop offset="0.59" stop-color="#f2e8c2" stop-opacity="0.91"/><stop offset="0.67" stop-color="#f2e9c1"/></linearGradient><linearGradient id="linear-gradient-2" x1="172.07" y1="585.86" x2="-82.91" y2="206.38" xlink:href="#linear-gradient"/><linearGradient id="linear-gradient-3" x1="682.05" y1="373.11" x2="396.05" y2="-64.89" gradientUnits="userSpaceOnUse"><stop offset="0" stop-color="#f2dfd0" stop-opacity="0"/><stop offset="0.07" stop-color="#f2dfd0" stop-opacity="0.02"/><stop offset="0.16" stop-color="#f2e0cf" stop-opacity="0.08"/><stop offset="0.25" stop-color="#f2e1cd" stop-opacity="0.18"/><stop offset="0.35" stop-color="#f2e2cb" stop-opacity="0.31"/><stop offset="0.45" stop-color="#f2e4c9" stop-opacity="0.49"/><stop offset="0.55" stop-color="#f2e6c5" stop-opacity="0.71"/><stop offset="0.65" stop-color="#f2e9c2" stop-opacity="0.96"/><stop offset="0.67" stop-color="#f2e9c1"/></linearGradient><linearGradient id="linear-gradient-4" x1="450.97" y1="393.25" x2="173.48" y2="9.27" xlink:href="#linear-gradient-3"/></defs><title>ray4</title><g class="cls-2"><polygon class="cls-3" points="336.07 634.91 -1 143.97 -1 197.46 311.11 652.05 336.07 634.91"/><polygon class="cls-4" points="-1 302.57 -1 363.71 273.34 763.28 283.45 763.28 305.11 748.41 -1 302.57"/><polygon class="cls-5" points="911.44 632.84 473.7 -4.72 375.55 -4.72 844.73 678.65 911.44 632.84"/><polygon class="cls-6" points="193.02 -4.72 156.42 -4.72 603.31 645.08 627.67 628.35 193.02 -4.72"/></g></svg>