<svg id="Layer_1" data-name="Layer 1" xmlns="http://www.w3.org/2000/svg" xmlns:xlink="http://www.w3.org/1999/xlink" viewBox="0 0 1024 768"><defs><style>.cls-1{fill:url(#linear-gradient);}.cls-2,.cls-3{fill:#fff;}.cls-2{opacity:0.7;}</style><linearGradient id="linear-gradient" x1="512" y1="809.86" x2="512" y2="-244.35" gradientUnits="userSpaceOnUse"><stop offset="0.18" stop-color="#98d1c7"/><stop offset="0.26" stop-color="#a0cec1"/><stop offset="0.38" stop-color="#b5c7b2"/><stop offset="0.54" stop-color="#d9bb99"/><stop offset="0.64" stop-color="#f4b285"/><stop offset="0.69" stop-color="#df896a"/><stop offset="0.74" stop-color="#ce6955"/><stop offset="0.79" stop-color="#c25146"/><stop offset="0.84" stop-color="#bb433c"/><stop offset="0.87" stop-color="#b83e39"/></linearGradient></defs><title>sky1</title><rect class="cls-1" width="1024" height="768"/><path class="cls-2" d="M64.76,71l-.69,1.22a1.52,1.52,0,0,1-2.07.58l-1.27-.72a1,1,0,0,0-1.43.45l0,0a1,1,0,0,0,.37,1.43l1.27.72a1.52,1.52,0,0,1,.58,2.07L60.83,78a1.21,1.21,0,0,0,0,1.2,1.16,1.16,0,0,0,2,0l.77-1.37a1.52,1.52,0,0,1,2.07-.58l1.22.69a1,1,0,0,0,1.46-.39l0,0a1.06,1.06,0,0,0-.42-1.47l-1.22-.69a1.52,1.52,0,0,1-.58-2.07L66.83,72a1.16,1.16,0,0,0-1.05-1.68A1.21,1.21,0,0,0,64.76,71Z"/><path class="cls-2" d="M60.29,132.31l.94,1a1.52,1.52,0,0,1-.11,2.15l-1.08,1a1,1,0,0,0,0,1.5l0,0a1,1,0,0,0,1.47.1l1.08-1a1.52,1.52,0,0,1,2.15.11l1,1.09a1.21,1.21,0,0,0,1.13.39,1.16,1.16,0,0,0,.66-1.87l-1.05-1.17a1.52,1.52,0,0,1,.11-2.15l1-.94a1,1,0,0,0,.09-1.51l0,0a1.06,1.06,0,0,0-1.52-.07l-1,.94a1.52,1.52,0,0,1-2.15-.11l-1-1.11a1.16,1.16,0,0,0-1.93.47A1.21,1.21,0,0,0,60.29,132.31Z"/><path class="cls-3" d="M520.47,36l-2.75-.91a3.14,3.14,0,0,1-2-4l.94-2.86a2.13,2.13,0,0,0-1.49-2.72l.09,0a2.07,2.07,0,0,0-2.74,1.33l-.94,2.86a3.14,3.14,0,0,1-4,2l-2.88-1a2.49,2.49,0,0,0-2.43.45,2.39,2.39,0,0,0,.73,4l3.08,1a3.14,3.14,0,0,1,2,4L507.21,43a2.17,2.17,0,0,0,1.39,2.81l-.06,0a2.19,2.19,0,0,0,2.81-1.43l.91-2.75a3.14,3.14,0,0,1,4-2l2.95,1a2.39,2.39,0,0,0,3-2.8A2.49,2.49,0,0,0,520.47,36Z"/><path class="cls-3" d="M365.28,55.8l1.3,2.58a3.14,3.14,0,0,1-1.39,4.22L362.49,64a2.13,2.13,0,0,0-.87,3l0-.09a2.07,2.07,0,0,0,2.88,1l2.69-1.36a3.14,3.14,0,0,1,4.22,1.39l1.37,2.71a2.49,2.49,0,0,0,2,1.4,2.39,2.39,0,0,0,2.33-3.37l-1.46-2.9A3.14,3.14,0,0,1,377,61.51l2.59-1.3a2.17,2.17,0,0,0,1-3l0,.06a2.19,2.19,0,0,0-3-1l-2.59,1.3a3.14,3.14,0,0,1-4.22-1.39l-1.4-2.77a2.39,2.39,0,0,0-4.09-.13A2.49,2.49,0,0,0,365.28,55.8Z"/><path class="cls-2" d="M406.78,138.82l-1.28-.42a1.46,1.46,0,0,1-.93-1.85l.44-1.34a1,1,0,0,0-.69-1.27h0a1,1,0,0,0-1.28.62l-.44,1.34a1.46,1.46,0,0,1-1.85.93l-1.34-.44a1.16,1.16,0,0,0-1.13.21,1.12,1.12,0,0,0,.34,1.88l1.44.47a1.46,1.46,0,0,1,.93,1.85l-.42,1.28a1,1,0,0,0,.65,1.31h0a1,1,0,0,0,1.31-.67l.42-1.28a1.46,1.46,0,0,1,1.85-.93l1.37.45a1.12,1.12,0,0,0,1.39-1.31A1.16,1.16,0,0,0,406.78,138.82Z"/><path class="cls-2" d="M960,18.46,958.7,18a1.46,1.46,0,0,1-.93-1.85l.44-1.34a1,1,0,0,0-.69-1.27h0a1,1,0,0,0-1.28.62l-.44,1.34a1.46,1.46,0,0,1-1.85.93L952.64,16a1.16,1.16,0,0,0-1.13.21,1.12,1.12,0,0,0,.34,1.88l1.44.47a1.46,1.46,0,0,1,.93,1.85l-.42,1.28a1,1,0,0,0,.65,1.31h0a1,1,0,0,0,1.31-.67l.42-1.28a1.46,1.46,0,0,1,1.85-.93l1.37.45a1.12,1.12,0,0,0,1.39-1.31A1.16,1.16,0,0,0,960,18.46Z"/><path class="cls-3" d="M762.36,7.73l-1.28-.42a1.46,1.46,0,0,1-.93-1.85l.44-1.34a1,1,0,0,0-.69-1.27h0a1,1,0,0,0-1.28.62l-.44,1.34a1.46,1.46,0,0,1-1.85.93L755,5.31a1.16,1.16,0,0,0-1.13.21,1.12,1.12,0,0,0,.34,1.88l1.44.47a1.46,1.46,0,0,1,.93,1.85L756.18,11a1,1,0,0,0,.65,1.31h0a1,1,0,0,0,1.31-.67l.42-1.28a1.46,1.46,0,0,1,1.85-.93l1.37.45a1.12,1.12,0,0,0,1.39-1.31A1.16,1.16,0,0,0,762.36,7.73Z"/><path class="cls-3" d="M356.36,10.71l-.91,1a1.46,1.46,0,0,1-2.07.09l-1-1a1,1,0,0,0-1.44.11l0,0a1,1,0,0,0,0,1.42l1,1a1.46,1.46,0,0,1,.09,2.07l-1,1a1.16,1.16,0,0,0-.27,1.12,1.12,1.12,0,0,0,1.85.46l1-1.12a1.46,1.46,0,0,1,2.07-.09l1,.91a1,1,0,0,0,1.46,0l0,0a1,1,0,0,0-.07-1.47l-1-.91a1.46,1.46,0,0,1-.09-2.07l1-1.07a1.12,1.12,0,0,0-.62-1.81A1.16,1.16,0,0,0,356.36,10.71Z"/><path class="cls-3" d="M439.71,55.4l-.91,1a1.46,1.46,0,0,1-2.07.09l-1-1a1,1,0,0,0-1.44.11l0,0a1,1,0,0,0,0,1.42l1,1a1.46,1.46,0,0,1,.09,2.07l-1,1a1.16,1.16,0,0,0-.27,1.12,1.12,1.12,0,0,0,1.85.46l1-1.12a1.46,1.46,0,0,1,2.07-.09l1,.91a1,1,0,0,0,1.46,0l0,0a1,1,0,0,0-.07-1.47l-1-.91a1.46,1.46,0,0,1-.09-2.07l1-1.07a1.12,1.12,0,0,0-.62-1.81A1.16,1.16,0,0,0,439.71,55.4Z"/><path class="cls-3" d="M155,6.27l-.85,1a1.46,1.46,0,0,1-2.06.22L151,6.65a1,1,0,0,0-1.43.2l0,0a1,1,0,0,0,.13,1.41l1.09.89a1.46,1.46,0,0,1,.22,2.06l-.89,1.1a1.16,1.16,0,0,0-.2,1.13,1.12,1.12,0,0,0,1.88.35l1-1.18a1.46,1.46,0,0,1,2.06-.22l1.05.85a1,1,0,0,0,1.46-.14l0,0a1,1,0,0,0-.16-1.46l-1.05-.85a1.46,1.46,0,0,1-.22-2.06l.91-1.12a1.12,1.12,0,0,0-.73-1.76A1.16,1.16,0,0,0,155,6.27Z"/><path class="cls-2" d="M296.43,116.69l-.69,1.22a1.52,1.52,0,0,1-2.07.58l-1.27-.72a1,1,0,0,0-1.43.45l0,0a1,1,0,0,0,.37,1.43l1.27.72a1.52,1.52,0,0,1,.58,2.07l-.72,1.28a1.21,1.21,0,0,0,0,1.2,1.16,1.16,0,0,0,2,0l.77-1.37a1.52,1.52,0,0,1,2.07-.58l1.22.69a1,1,0,0,0,1.46-.39l0,0a1.06,1.06,0,0,0-.42-1.47l-1.22-.69a1.52,1.52,0,0,1-.58-2.07l.74-1.31a1.16,1.16,0,0,0-1.05-1.68A1.21,1.21,0,0,0,296.43,116.69Z"/><path class="cls-2" d="M183.3,142l.94,1a1.52,1.52,0,0,1-.11,2.15l-1.08,1a1,1,0,0,0,0,1.5l0,0a1,1,0,0,0,1.47.1l1.08-1a1.52,1.52,0,0,1,2.15.11l1,1.09a1.21,1.21,0,0,0,1.13.39,1.16,1.16,0,0,0,.66-1.87l-1.05-1.17a1.52,1.52,0,0,1,.11-2.15l1-.94a1,1,0,0,0,.09-1.51l0,0a1.06,1.06,0,0,0-1.52-.07l-1,.94a1.52,1.52,0,0,1-2.15-.11l-1-1.11a1.16,1.16,0,0,0-1.93.47A1.21,1.21,0,0,0,183.3,142Z"/><path class="cls-2" d="M786.85,70.56l-2.19-.72a2.51,2.51,0,0,1-1.6-3.17l.75-2.29a1.7,1.7,0,0,0-1.19-2.17l.08,0a1.65,1.65,0,0,0-2.19,1.06l-.75,2.29a2.51,2.51,0,0,1-3.17,1.6l-2.3-.76a2,2,0,0,0-1.94.36,1.91,1.91,0,0,0,.58,3.22l2.46.81A2.51,2.51,0,0,1,777,74l-.72,2.2a1.73,1.73,0,0,0,1.11,2.25l0,0a1.75,1.75,0,0,0,2.24-1.14l.72-2.2a2.51,2.51,0,0,1,3.17-1.6l2.35.78A1.91,1.91,0,0,0,788.19,72,2,2,0,0,0,786.85,70.56Z"/><path class="cls-2" d="M680.18,119.12l-1.33-.44a1.52,1.52,0,0,1-1-1.92l.46-1.39a1,1,0,0,0-.72-1.32l0,0a1,1,0,0,0-1.33.64l-.46,1.39a1.52,1.52,0,0,1-1.92,1l-1.4-.46a1.21,1.21,0,0,0-1.18.22,1.16,1.16,0,0,0,.35,2l1.49.49a1.52,1.52,0,0,1,1,1.92l-.44,1.33a1,1,0,0,0,.67,1.36h0a1.06,1.06,0,0,0,1.36-.69l.44-1.33a1.52,1.52,0,0,1,1.92-1l1.43.47A1.16,1.16,0,0,0,681,120,1.21,1.21,0,0,0,680.18,119.12Z"/><path class="cls-2" d="M532.32,123.58l-1.11.85a1.52,1.52,0,0,1-2.13-.28l-.89-1.16a1,1,0,0,0-1.5-.14l0,0a1,1,0,0,0-.21,1.46l.89,1.16a1.52,1.52,0,0,1-.28,2.13l-1.16.9a1.21,1.21,0,0,0-.48,1.1,1.16,1.16,0,0,0,1.81.8l1.24-1a1.52,1.52,0,0,1,2.13.28l.86,1.11a1,1,0,0,0,1.5.21l0,0a1.06,1.06,0,0,0,.19-1.51l-.86-1.11a1.52,1.52,0,0,1,.28-2.13l1.19-.92a1.16,1.16,0,0,0-.31-2A1.21,1.21,0,0,0,532.32,123.58Z"/><path class="cls-2" d="M869.07,129.87l-1.28-.42a1.46,1.46,0,0,1-.93-1.85l.44-1.34a1,1,0,0,0-.69-1.27h0a1,1,0,0,0-1.28.62l-.44,1.34a1.46,1.46,0,0,1-1.85.93l-1.34-.44a1.16,1.16,0,0,0-1.13.21,1.12,1.12,0,0,0,.34,1.88l1.44.47a1.46,1.46,0,0,1,.93,1.85l-.42,1.28a1,1,0,0,0,.65,1.31h0a1,1,0,0,0,1.31-.67l.42-1.28a1.46,1.46,0,0,1,1.85-.93l1.37.45a1.12,1.12,0,0,0,1.39-1.31A1.16,1.16,0,0,0,869.07,129.87Z"/><path class="cls-2" d="M984.27,119.76l-1.28-.42a1.46,1.46,0,0,1-.93-1.85l.44-1.34a1,1,0,0,0-.69-1.27h0a1,1,0,0,0-1.28.62l-.44,1.34a1.46,1.46,0,0,1-1.85.93l-1.34-.44a1.16,1.16,0,0,0-1.13.21,1.12,1.12,0,0,0,.34,1.88l1.44.47a1.46,1.46,0,0,1,.93,1.85l-.42,1.28a1,1,0,0,0,.65,1.31h0a1,1,0,0,0,1.31-.67l.42-1.28a1.46,1.46,0,0,1,1.85-.93l1.37.45a1.12,1.12,0,0,0,1.39-1.31A1.16,1.16,0,0,0,984.27,119.76Z"/><path class="cls-2" d="M893,43.3l-1.28-.42A1.46,1.46,0,0,1,890.8,41l.44-1.34a1,1,0,0,0-.69-1.27h0a1,1,0,0,0-1.28.62l-.44,1.34a1.46,1.46,0,0,1-1.85.93l-1.34-.44a1.16,1.16,0,0,0-1.13.21,1.12,1.12,0,0,0,.34,1.88l1.44.47a1.46,1.46,0,0,1,.93,1.85l-.42,1.28a1,1,0,0,0,.65,1.31h0a1,1,0,0,0,1.31-.67l.42-1.28A1.46,1.46,0,0,1,891,45l1.37.45a1.12,1.12,0,0,0,1.39-1.31A1.16,1.16,0,0,0,893,43.3Z"/><path class="cls-3" d="M994,53.46,992.75,53a1.46,1.46,0,0,1-.93-1.85l.44-1.34a1,1,0,0,0-.69-1.27h0a1,1,0,0,0-1.28.62l-.44,1.34a1.46,1.46,0,0,1-1.85.93L986.69,51a1.16,1.16,0,0,0-1.13.21,1.12,1.12,0,0,0,.34,1.88l1.44.47a1.46,1.46,0,0,1,.93,1.85l-.42,1.28a1,1,0,0,0,.65,1.31h0a1,1,0,0,0,1.31-.67l.42-1.28a1.46,1.46,0,0,1,1.85-.93l1.37.45a1.12,1.12,0,0,0,1.39-1.31A1.16,1.16,0,0,0,994,53.46Z"/><path class="cls-3" d="M634.39,21.8l-.91,1a1.46,1.46,0,0,1-2.07.09l-1-1a1,1,0,0,0-1.44.11l0,0a1,1,0,0,0,0,1.42l1,1a1.46,1.46,0,0,1,.09,2.07l-1,1a1.16,1.16,0,0,0-.27,1.12,1.12,1.12,0,0,0,1.85.46l1-1.12a1.46,1.46,0,0,1,2.07-.09l1,.91a1,1,0,0,0,1.46,0l0,0a1,1,0,0,0-.07-1.47l-1-.91a1.46,1.46,0,0,1-.09-2.07l1-1.07a1.12,1.12,0,0,0-.62-1.81A1.16,1.16,0,0,0,634.39,21.8Z"/><path class="cls-3" d="M263.35,21.7l-.85,1a1.46,1.46,0,0,1-2.06.22l-1.09-.89a1,1,0,0,0-1.43.2l0,0a1,1,0,0,0,.13,1.41l1.09.89a1.46,1.46,0,0,1,.22,2.06l-.89,1.1a1.16,1.16,0,0,0-.2,1.13,1.12,1.12,0,0,0,1.88.35l1-1.18a1.46,1.46,0,0,1,2.06-.22l1.05.85a1,1,0,0,0,1.46-.14l0,0a1,1,0,0,0-.16-1.46l-1.05-.85a1.46,1.46,0,0,1-.22-2.06l.91-1.12a1.12,1.12,0,0,0-.73-1.76A1.16,1.16,0,0,0,263.35,21.7Z"/></svg>