<svg id="Layer_1" data-name="Layer 1" xmlns="http://www.w3.org/2000/svg" viewBox="0 0 1024 768"><defs><style>.cls-1{fill:#e15a4a;}</style></defs><title>sparks2</title><path class="cls-1" d="M580,486h-.79a1.5,1.5,0,0,1-1.23-1.46v-.79a1,1,0,0,0-.85-1,1,1,0,0,0-1.15,1v.82c0,.65-.47,1.46-1.12,1.46h-.79a1,1,0,0,0-1,.85,1,1,0,0,0,1,1.15h.82c.65,0,1.12.24,1.12.89v.79a1,1,0,0,0,.85,1,1,1,0,0,0,1.15-1v-.82c0-.65.58-.89,1.23-.89h.82a1,1,0,0,0,1-1.15A1,1,0,0,0,580,486Z"/><path class="cls-1" d="M537,294h-2c-1.62,0-2-2-2-3.64v-2a2.55,2.55,0,0,0-2.13-2.55,2.5,2.5,0,0,0-2.87,2.47v2c0,1.62-2.22,3.64-3.85,3.64h-2a2.55,2.55,0,0,0-2.55,2.13A2.5,2.5,0,0,0,522.1,299h2c1.62,0,3.85.61,3.85,2.23v2a2.55,2.55,0,0,0,2.13,2.55,2.5,2.5,0,0,0,2.87-2.47v-2c0-1.62.4-2.23,2-2.23h2a2.5,2.5,0,0,0,2.47-2.87A2.55,2.55,0,0,0,537,294Z"/><path class="cls-1" d="M501.46,317h-2c-1.62,0-2.49-1.66-2.49-3.29v-2a2.55,2.55,0,0,0-2.13-2.55,2.5,2.5,0,0,0-2.87,2.47v2a3.66,3.66,0,0,1-3.38,3.29h-2a2.55,2.55,0,0,0-2.55,2.13,2.5,2.5,0,0,0,2.47,2.87h2c1.62,0,3.38,1,3.38,2.59v2a2.55,2.55,0,0,0,2.13,2.55,2.5,2.5,0,0,0,2.87-2.47v-2a2.3,2.3,0,0,1,2.49-2.59h2a2.5,2.5,0,0,0,2.47-2.87A2.55,2.55,0,0,0,501.46,317Z"/></svg>