<svg id="Layer_1" data-name="Layer 1" xmlns="http://www.w3.org/2000/svg" viewBox="0 0 1024 768"><defs><style>.cls-1{fill:#e15a4a;}</style></defs><title>sparks3</title><path class="cls-1" d="M546.36,332h-.79c-.65,0-.57-1-.57-1.6v-.79a1,1,0,0,0-.85-1,1,1,0,0,0-1.15,1v.82c0,.65-1.13,1.6-1.78,1.6h-.79a1,1,0,0,0-1,.85,1,1,0,0,0,1,1.15h.82c.65,0,1.78.1,1.78.75v.79a1,1,0,0,0,.85,1,1,1,0,0,0,1.15-1v-.82c0-.65-.08-.75.57-.75h.82a1,1,0,0,0,1-1.15A1,1,0,0,0,546.36,332Z"/><path class="cls-1" d="M494.6,283h-.79c-.65,0-.81-.62-.81-1.27v-.79a1,1,0,0,0-.85-1,1,1,0,0,0-1.15,1v.82c0,.65-.89,1.27-1.54,1.27h-.79a1,1,0,0,0-1,.85,1,1,0,0,0,1,1.15h.82c.65,0,1.54.43,1.54,1.08v.79a1,1,0,0,0,.85,1,1,1,0,0,0,1.15-1v-.82c0-.65.16-1.08.81-1.08h.82a1,1,0,0,0,1-1.15A1,1,0,0,0,494.6,283Z"/></svg>