<svg id="Layer_1" data-name="Layer 1" xmlns="http://www.w3.org/2000/svg" viewBox="0 0 1024 768"><defs><style>.cls-1{fill:#e15a4a;}</style></defs><title>sparks</title><path class="cls-1" d="M525.92,355h-2c-1.62,0-1.95-1.36-1.95-3v-2c0-1.25-1.39-2.37-2.63-2.55-1.54-.22-3.37,1-3.37,2.47v2a3,3,0,0,1-2.93,3h-2a2.55,2.55,0,0,0-2.55,2.13A2.5,2.5,0,0,0,511,360h2a2.89,2.89,0,0,1,2.93,2.9v2c0,1.25,1.39,2.37,2.63,2.55,1.54.22,3.37-1,3.37-2.47v-2c0-1.62.32-2.9,1.95-2.9h2a2.5,2.5,0,0,0,2.47-2.87A2.55,2.55,0,0,0,525.92,355Z"/><path class="cls-1" d="M589,455h-.95c-.78,0-1.05-.58-1.05-1.36v-.95c0-.6-.73-1.14-1.32-1.22s-1.68.47-1.68,1.19v1c0,.78-.39,1.36-1.17,1.36h-.95c-.6,0-1.14.73-1.22,1.32s.47,1.68,1.19,1.68h1c.78,0,1.17.08,1.17.86v.95c0,.6.73,1.14,1.32,1.22s1.68-.47,1.68-1.19v-1c0-.78.27-.86,1.05-.86h1c.72,0,1.29-.94,1.19-1.68S589.6,455,589,455Z"/><path class="cls-1" d="M546.36,230h-.79c-.65,0-.57-.26-.57-.91v-.79a1,1,0,0,0-.85-1,1,1,0,0,0-1.15,1v.82c0,.65-1.13.91-1.78.91h-.79a1,1,0,0,0-1,.85,1,1,0,0,0,1,1.15h.82c.65,0,1.78.79,1.78,1.44v.79a1,1,0,0,0,.85,1,1,1,0,0,0,1.15-1v-.82c0-.65-.08-1.44.57-1.44h.82a1,1,0,0,0,1-1.15A1,1,0,0,0,546.36,230Z"/><path class="cls-1" d="M525.73,255h-3c-2.44,0-3.77-2.43-3.77-4.87v-3a3.62,3.62,0,0,0-2.94-3.82,3.55,3.55,0,0,0-4.06,3.7v3.07c0,2.44-3.1,4.87-5.54,4.87h-3a3.62,3.62,0,0,0-3.82,2.94,3.55,3.55,0,0,0,3.7,4.06h3.07c2.44,0,5.54,2,5.54,4.45v3a3.62,3.62,0,0,0,2.94,3.82,3.55,3.55,0,0,0,4.06-3.7v-3.07c0-2.44,1.33-4.45,3.77-4.45h3.07a3.55,3.55,0,0,0,3.7-4.06A3.62,3.62,0,0,0,525.73,255Z"/></svg>