<svg id="Layer_1" data-name="Layer 1" xmlns="http://www.w3.org/2000/svg" viewBox="0 0 99.35 90.57"><defs><style>.cls-1{fill:#d65135;}</style></defs><title>twitter2</title><path class="cls-1" d="M86.95,90.57H12.4V23.87L49.68,6,86.95,23.87Zm-72.1-2.44H84.5V25.41L49.68,8.73,14.85,25.41Z"/><polygon class="cls-1" points="98.3 32.01 49.68 8.73 1.05 32.01 0 29.81 49.68 6.02 99.35 29.81 98.3 32.01"/><polygon class="cls-1" points="85.73 90.57 12.4 90.57 12.4 24.64 14.85 24.64 14.85 88.13 85.73 88.13 85.73 90.57"/><path class="cls-1" d="M76.14,79.12a6.57,6.57,0,0,0-2-3.63,8.69,8.69,0,0,1-1-1.15,1.42,1.42,0,0,0-1.9-.52c-1.37.77-1.78,4.08-.07,8.3.32.8.59,1.61.83,2.32.61,1.84,1.19,3.6,2.52,3.6A1.8,1.8,0,0,0,75,88c1-.27,1.56-1.51,1.69-3.68A16.72,16.72,0,0,0,76.14,79.12ZM74.52,86a15.79,15.79,0,0,1-.81-2.13c-.25-.74-.52-1.58-.87-2.43A9.83,9.83,0,0,1,72,75.85a11.52,11.52,0,0,0,.88.94,4.87,4.87,0,0,1,1.52,2.81A12.65,12.65,0,0,1,74.52,86Z"/><path class="cls-1" d="M39,82.39a11.47,11.47,0,0,0-2.3,7.15A11.45,11.45,0,0,1,39,82.39a11.16,11.16,0,0,1,1.48-1.64A10.94,10.94,0,0,0,39,82.39Z"/><path class="cls-1" d="M39.31,79.36a12.78,12.78,0,0,0-1.76,1.94,14.18,14.18,0,0,0-2.66,8.23,14.16,14.16,0,0,1,2.66-8.23A13,13,0,0,1,39.31,79.36Z"/><path class="cls-1" d="M51.41,83.25a15.84,15.84,0,0,1-1.62-2.3,16.11,16.11,0,0,0,1.62,2.33A16.42,16.42,0,0,0,53,84.82,18.21,18.21,0,0,1,51.41,83.25Z"/><path class="cls-1" d="M44.6,89.53a12.58,12.58,0,0,1,.2-2.18,7.36,7.36,0,0,1,.45-1.49,7.1,7.1,0,0,0-.45,1.48A12.71,12.71,0,0,0,44.6,89.53Z"/><path class="cls-1" d="M46,84.89h0c.2,0,.4.28.65.85C46.45,85.18,46.25,84.89,46,84.89Z"/><path class="cls-1" d="M31.57,88.5c0-.16,0-.32,0-.48,0,.16,0,.32,0,.48Z"/><path class="cls-1" d="M62.13,88.5c0,.18,0,.3,0,.48,0-.18,0-.3,0-.48Z"/><path class="cls-1" d="M13.34,65a8.24,8.24,0,0,1,4.79,1.52,2.57,2.57,0,0,1,.71.92,2.52,2.52,0,0,0-.71-.94A8.23,8.23,0,0,0,13.34,65Z"/><path class="cls-1" d="M54.2,83.43A16.23,16.23,0,0,1,52.78,82a14.36,14.36,0,0,1-1.43-2,11.2,11.2,0,0,0,2.85,3.44Z"/><path class="cls-1" d="M85.73,61.47v5.67c0-.09.23-.24.36-.5C86.57,65.65,85.73,63.79,85.73,61.47Z"/><path class="cls-1" d="M58.6,83.34A24.1,24.1,0,0,1,55.73,81a16,16,0,0,1-2.54-4.54c-1.39-3.17-3-6.77-6.34-6.77-4.91,0-9.11,5.18-12.17,9l-1,1.24c-2.54,3.06-3.94,5.41-3.94,9.4,0,.32,0,1.25,0,1.25H31.6s0-.36,0-.42.07-.37.07-.46.07-.49.07-.67v.55h-.11s0-.55,0-.71c.11-3.4,1.32-5,3.48-7.65.32-.39.66-.87,1-1.31,2.83-3.5,6.7-8.31,10.74-8.31a3.32,3.32,0,0,1,2.67,1.73,23.84,23.84,0,0,1,2,3.92,17,17,0,0,0,2.92,5.09,25.77,25.77,0,0,0,3.09,2.5c2.2,1.6,4.08,3.2,4.37,5.57,0,.18-.17-1.47-.17-1.28v.46h.45c0,1,0,.07,0,.24s0,.3,0,.45,0,.3,0,.3h1.84a3.68,3.68,0,0,0,0-1.25C62.76,86.22,61.12,85.17,58.6,83.34Z"/><path class="cls-1" d="M62.1,89.33c0-.15,0-.26,0-.35C62.11,89.07,62.11,89.18,62.1,89.33Z"/><path class="cls-1" d="M31.58,89c0-.18,0-.3,0-.48h0C31.57,88.68,31.57,88.8,31.58,89Z"/><path class="cls-1" d="M31.58,89c0,.09,0,.2,0,.35C31.59,89.18,31.58,89.07,31.58,89Z"/><path class="cls-1" d="M62.09,87.95a4.62,4.62,0,0,1,0,.55h0A4.61,4.61,0,0,0,62.09,87.95Z"/><path class="cls-1" d="M22.92,20.27l-1.72.93a13,13,0,0,1-.29,2.2A10.73,10.73,0,0,1,18.56,28a10.48,10.48,0,0,1-4.65,2.88c-.29.09-1.18.17-1.18.24V33A13.64,13.64,0,0,0,22.92,20.27Z"/><path class="cls-1" d="M18.62,28a10.75,10.75,0,0,0,2.33-4.47A11.27,11.27,0,0,1,18.62,28Z"/><path class="cls-1" d="M21.35,20.8h0a16.71,16.71,0,0,1-.4,2.58s0-.17,0-.22A15,15,0,0,0,21.35,20.8Z"/><path class="cls-1" d="M15.28,30.42A9.6,9.6,0,0,0,18.6,28l0,0A9.59,9.59,0,0,1,15.28,30.42Z"/><path class="cls-1" d="M15.28,30.42a10.22,10.22,0,0,1-1,.4A10.22,10.22,0,0,0,15.28,30.42Z"/><path class="cls-1" d="M20.95,23.54A10.75,10.75,0,0,1,18.62,28l0,0A10.79,10.79,0,0,0,21,23.4Z"/><path class="cls-1" d="M54.66,84.35c-.16-.13-.31-.52-.47-.66a13.67,13.67,0,0,1-2.85-3.64c-1-1.66-2.17-3.55-4.74-3.55a10.89,10.89,0,0,0-7.3,2.88,17.74,17.74,0,0,0-1.76,2.45,15.93,15.93,0,0,0-2.66,8.74h1.83A14.19,14.19,0,0,1,40.51,81a9.22,9.22,0,0,1,6.1-2.61c1.47,0,2.14.91,3.18,2.61a15.6,15.6,0,0,0,1.62,2.27A18,18,0,0,0,53,84.84c.17.14.33.79.49.93,1.55,1.27,2.88,2.8,3,4.8h1.84C58.23,87.57,56.34,85.72,54.66,84.35Z"/><path class="cls-1" d="M46.6,78.27a9.08,9.08,0,0,0-6.1,2.48,9.09,9.09,0,0,1,6.1-2.45c1.47,0,2.14.94,3.18,2.64C48.74,79.24,48.08,78.27,46.6,78.27Z"/><path class="cls-1" d="M53.5,85.24,53,84.82l.49.42c1.55,1.27,2.88,2.46,3,4.29C56.38,87.7,55.05,86.51,53.5,85.24Z"/><path class="cls-1" d="M54.66,83.82l-.47-.39.47.4c1.68,1.38,3.56,2.65,3.65,5.71C58.23,86.48,56.34,85.2,54.66,83.82Z"/><path class="cls-1" d="M51.35,80c-1-1.66-2.17-3.55-4.74-3.55a10.88,10.88,0,0,0-7.3,2.93,10.9,10.9,0,0,1,7.3-2.89C49.18,76.47,50.33,78.33,51.35,80Z"/><path class="cls-1" d="M75.9,60.55a12.25,12.25,0,0,1,2.28-7.23,9.28,9.28,0,0,1,7.55-4V47.45a11.92,11.92,0,0,0-9,4.78A14.14,14.14,0,0,0,74,60.55c0,7.23,4.69,13.1,11.69,13.1V71.82C81.73,71.82,75.9,66.77,75.9,60.55Z"/><polygon class="cls-1" points="39.44 11.72 39.37 12.28 40.28 11.82 39.44 11.72"/><path class="cls-1" d="M30.7,70.64A14.16,14.16,0,0,0,37.41,55L34,40.71A14.22,14.22,0,0,0,32.55,37l-2.44-4.3a12.4,12.4,0,0,1-1.32-8.82l1.58-7.11-2.11,1L27,23.44a14.22,14.22,0,0,0,1.51,10.12L31,37.87a12.36,12.36,0,0,1,1.28,3.26l3.39,14.33a12.34,12.34,0,0,1-5.85,13.59,15.13,15.13,0,0,0-7.07,13.81l.44,7.71H25l-.45-7.82A13.32,13.32,0,0,1,30.7,70.64Z"/><path class="cls-1" d="M48.36,52.48a36.57,36.57,0,0,1,4.48,6.15A4.37,4.37,0,0,0,56.75,61a5.84,5.84,0,0,0,2-.36c5.69-2,12.4-12.63,9.5-29.87-.61-3.64-.88-7.23-1.11-10.39-.12-1.57-.23-3.07-.38-4.48l-2-.93c.2,1.6.35,3.45.51,5.54.24,3.2.51,6.83,1.14,10.56,2.7,16-3.36,26.09-8.31,27.84a2.76,2.76,0,0,1-3.65-1.18,38.1,38.1,0,0,0-4.68-6.44c-.76-.88-1.45-1.7-2.08-2.58a9.05,9.05,0,0,1-2.93-1.36A22.21,22.21,0,0,0,48.36,52.48Z"/><path class="cls-1" d="M45.14,32.23c1.18-8.58,5.25-17.64,9.6-22L53,9.37C48,14.76,43.9,25.08,43.11,34A9.13,9.13,0,0,1,45.14,32.23Z"/><path class="cls-1" d="M27.77,65.3a3.5,3.5,0,0,0,2-.68c3.07-2.15,5.36-9.55.84-19.25-.93-2-1.66-4-2.29-5.8-1.67-4.64-3.1-8.66-7-7.57-2.38.66-4.28,3.72-5.23,8.39a29.08,29.08,0,0,0,.27,12.88c1.51,5.44,3.38,6.7,5.75,8.29a21.65,21.65,0,0,1,3.52,2.79A3,3,0,0,0,27.77,65.3ZM18.1,52.78a27.57,27.57,0,0,1-.24-12c.78-3.86,2.28-6.54,3.92-7a2.45,2.45,0,0,1,.65-.1c1.64,0,2.56,2.06,4.16,6.52.65,1.82,1.39,3.89,2.36,6,4,8.64,2.25,15.24-.23,17a1.26,1.26,0,0,1-1.83-.06,23.14,23.14,0,0,0-3.79-3C20.89,58.56,19.43,57.57,18.1,52.78Z"/><path class="cls-1" d="M75.74,71.21A13.35,13.35,0,0,1,73.14,54l2.47-4a15.29,15.29,0,0,0,1.19-13.8l-3.66-8a13.91,13.91,0,0,1-1.42-5V18.69l-1-.87v5.39a15.18,15.18,0,0,0,1.14,5.73l3.24,8a13.46,13.46,0,0,1-1,12.15l-2.47,4a15.17,15.17,0,0,0,3,19.6,14.8,14.8,0,0,1,4.58,9.55l.71,8.43h1.84L81,82A16.61,16.61,0,0,0,75.74,71.21Z"/><path class="cls-1" d="M27.34,47.06c-.36-.77-.65-1.57-.9-2.27C25.78,42.94,25,40.84,23,41.41c-2.52.7-3.23,6.05-2.37,9.18a5.28,5.28,0,0,0,2.52,3.63,8.09,8.09,0,0,1,1.33,1,1.76,1.76,0,0,0,1.26.54,2,2,0,0,0,1.12-.37C28.44,54.31,29.17,51,27.34,47.06Zm-1.15,6.33a1.33,1.33,0,0,1-.46.58,9.88,9.88,0,0,0-1.59-1.26,3.54,3.54,0,0,1-1.78-2.6c-.78-2.83.14-6.67,1.09-6.93h.07c.33,0,.64.69,1.19,2.23.27.74.57,1.58,1,2.43C26.85,50.34,26.71,52.34,26.19,53.38Z"/><path class="cls-1" d="M84.19,66a3.56,3.56,0,0,1-1.8-2.6,10.44,10.44,0,0,1-.1-4.55c.32-1.59.87-2.29,1.17-2.37h.07c.33,0,.64.69,1.19,2.23.26.74.51,1.58.91,2.43a.9.9,0,0,1,.1.38v-5a2.1,2.1,0,0,0-2.82-1.83c-1.17.32-2,1.67-2.46,3.78a12.21,12.21,0,0,0,.13,5.41,5.28,5.28,0,0,0,2.53,3.63,8.1,8.1,0,0,1,1.33,1,1.65,1.65,0,0,0,1.21.54h.08V67.14a.1.1,0,0,1-.05.08A9.88,9.88,0,0,0,84.19,66Z"/><path class="cls-1" d="M49,86.5c-.66-1.85-1.41-3.92-3.47-3.35-1.17.32-2.06,2.23-2.48,4.34a18.17,18.17,0,0,0-.24,3.08H44.6a15.51,15.51,0,0,1,.2-2.71,10.48,10.48,0,0,1,.45-1.73c.26-.6.54-1,.73-1.1,0,0,0-.06,0-.06s0,0,0,0c.2,0,.4.28.65.86.16.36.33,1.34.54,1.94s.53,1.86.88,2.86h2c-.08-1-.16-1-.26-1.2C49.5,88.6,49.22,87.2,49,86.5Z"/><path class="cls-1" d="M49,86.48c-.66-1.85-1.41-3.94-3.47-3.37-1.17.32-2.06,1.76-2.48,3.87.43-2.11,1.31-3.5,2.48-3.82,2.06-.57,2.81,1.5,3.47,3.35.25.7.54,1.58.9,2.35.09.2.18.07.26.68a1,1,0,0,0-.26-.69C49.5,88.07,49.22,87.18,49,86.48Z"/><path class="cls-1" d="M46.7,85.76c.16.37.33.84.54,1.44a23.7,23.7,0,0,1,.88,2.33,24.16,24.16,0,0,0-.88-2.35C47,86.59,46.85,86.12,46.7,85.76Z"/><path class="cls-1" d="M45.25,85.87c.26-.59.54-.9.73-.95l0,0h0C45.8,84.95,45.52,85.26,45.25,85.87Z"/><path class="cls-1" d="M19,65.09c-1.58-1.3-4.26-1.83-6.26-1.93V65a8.84,8.84,0,0,1,5.1,1.51,3,3,0,0,1,.86.94c.72,1.55.21,3.94-.5,6.43a17.09,17.09,0,0,0-.94,5.82,26.42,26.42,0,0,0,.82,3.94,17.68,17.68,0,0,1,.75,5.74,9.72,9.72,0,0,1-.11,1.21h1.87a16.15,16.15,0,0,0-.72-6.9,27.78,27.78,0,0,1-.75-3.92,16.26,16.26,0,0,1,.76-5.27C20.82,71.15,21.6,67.23,19,65.09Z"/><path class="cls-1" d="M18.09,83.61a26.36,26.36,0,0,1-.8-3.94,17.19,17.19,0,0,1,1-5.82c.7-2.49,1.29-4.88.57-6.43.69,1.55.06,3.92-.64,6.4a17,17,0,0,0-.95,5.8,27,27,0,0,0,.82,4c.54,2.09,1.08,4.09.63,5.92a5.8,5.8,0,0,0,.12-.69A14.76,14.76,0,0,0,18.09,83.61Z"/><path class="cls-1" d="M61.85,32c2,11,.55,17.73-2.3,18.74-1.2.43-4.06-2.75-4.19-3l-.21-.36a9.07,9.07,0,0,1-1.61.88l.22.38c.59,1,4,4,5.12,4a3.85,3.85,0,0,0,1.28-.23c3.54-1.26,6.29-7,3.5-20.77a48.73,48.73,0,0,1-.67-6.2c-.37-4.92-.68-9.17-4.75-9.17-2.46,0-5.12,2.44-7.28,6.69A30.71,30.71,0,0,0,48.25,31,9.13,9.13,0,0,1,50,30.82h.15c1.35-6.4,5.06-12.64,8.09-12.64,2.15,0,2.53,2.16,2.92,7.47"/><path class="cls-1" d="M49.68,50.24A10.32,10.32,0,1,1,60,39.92,10.33,10.33,0,0,1,49.68,50.24Zm0-18.2a7.88,7.88,0,1,0,7.88,7.88A7.89,7.89,0,0,0,49.68,32Z"/><path class="cls-1" d="M48,60a22.78,22.78,0,0,1-2.89-4.4,42.23,42.23,0,0,0-2.79-4.66l-2.15-3.19A12.9,12.9,0,0,1,38,41.22a56.26,56.26,0,0,1,.54-9.34l2.44-19.94-1-.12-.91.45L36.68,31.66a53.5,53.5,0,0,0-.46,10.67,12.79,12.79,0,0,0,2.18,6l2,2.94a47.71,47.71,0,0,1,3.11,5.19,24.64,24.64,0,0,0,3.2,4.83A3.47,3.47,0,0,1,48,60Z"/><path class="cls-1" d="M68.12,82.3A25.23,25.23,0,0,0,55.43,65.9a23.85,23.85,0,0,1-2.24-1.45,3.27,3.27,0,0,1-1.13,1.38,24.3,24.3,0,0,0,2.54,1.47A23.85,23.85,0,0,1,66.34,82.75l1.77,7.82H70Z"/><path class="cls-1" d="M49.68,67.68A4.67,4.67,0,1,1,54.35,63,4.68,4.68,0,0,1,49.68,67.68Zm0-6.9A2.23,2.23,0,1,0,51.91,63,2.23,2.23,0,0,0,49.68,60.78Z"/></svg>