<svg id="Layer_1" data-name="Layer 1" xmlns="http://www.w3.org/2000/svg" xmlns:xlink="http://www.w3.org/1999/xlink" viewBox="0 0 1024 768"><defs><style>.cls-1{fill:none;}.cls-2{clip-path:url(#clip-path);}.cls-3{fill:url(#linear-gradient);}.cls-31,.cls-4,.cls-5,.cls-6{fill:#bc3c2e;}.cls-24,.cls-4{opacity:0.2;}.cls-5{opacity:0.4;}.cls-10,.cls-11,.cls-13,.cls-22,.cls-23,.cls-26,.cls-27,.cls-28,.cls-29,.cls-30,.cls-6,.cls-8{opacity:0.3;}.cls-7{fill:#3a4d4c;}.cls-8{fill:url(#linear-gradient-2);}.cls-12,.cls-14,.cls-15,.cls-16,.cls-17,.cls-18,.cls-19,.cls-20,.cls-21,.cls-9{opacity:0.5;}.cls-9{fill:url(#linear-gradient-3);}.cls-10{fill:url(#linear-gradient-4);}.cls-11{fill:url(#linear-gradient-5);}.cls-12{fill:url(#linear-gradient-6);}.cls-13{fill:url(#linear-gradient-7);}.cls-14{fill:url(#linear-gradient-8);}.cls-15{fill:url(#linear-gradient-9);}.cls-16{fill:url(#linear-gradient-10);}.cls-17{fill:url(#linear-gradient-11);}.cls-18{fill:url(#linear-gradient-12);}.cls-19{fill:url(#linear-gradient-13);}.cls-20{fill:url(#linear-gradient-14);}.cls-21{fill:url(#linear-gradient-15);}.cls-22{fill:url(#linear-gradient-16);}.cls-23{fill:url(#linear-gradient-17);}.cls-24{fill:url(#linear-gradient-18);}.cls-25{opacity:0.1;fill:url(#linear-gradient-19);}.cls-26{fill:url(#linear-gradient-20);}.cls-27{fill:url(#linear-gradient-21);}.cls-28{fill:url(#linear-gradient-22);}.cls-29{fill:url(#linear-gradient-23);}.cls-30{fill:url(#linear-gradient-24);}.cls-32{fill:#d6513c;}.cls-33{fill:url(#linear-gradient-25);}.cls-34{fill:url(#linear-gradient-26);}</style><clipPath id="clip-path"><rect class="cls-1" width="1024" height="768"/></clipPath><linearGradient id="linear-gradient" x1="511" y1="680.14" x2="511" y2="-80.4" gradientUnits="userSpaceOnUse"><stop offset="0" stop-color="#4eb59f"/><stop offset="0.15" stop-color="#50b09c"/><stop offset="0.33" stop-color="#55a194"/><stop offset="0.53" stop-color="#5d8887"/><stop offset="0.54" stop-color="#5d8786"/><stop offset="1" stop-color="#25496e"/></linearGradient><linearGradient id="linear-gradient-2" x1="163.19" y1="591.83" x2="-91.8" y2="212.35" gradientUnits="userSpaceOnUse"><stop offset="0" stop-color="#f2dfd0" stop-opacity="0"/><stop offset="0.2" stop-color="#f2e2cb" stop-opacity="0.33"/><stop offset="0.43" stop-color="#f2e6c6" stop-opacity="0.69"/><stop offset="0.59" stop-color="#f2e8c2" stop-opacity="0.91"/><stop offset="0.67" stop-color="#f2e9c1"/></linearGradient><linearGradient id="linear-gradient-3" x1="528.96" y1="480.32" x2="142.96" y2="-95.68" gradientUnits="userSpaceOnUse"><stop offset="0" stop-color="#f2dfd0" stop-opacity="0"/><stop offset="0.07" stop-color="#f2dfd0" stop-opacity="0.02"/><stop offset="0.16" stop-color="#f2e0cf" stop-opacity="0.08"/><stop offset="0.25" stop-color="#f2e1cd" stop-opacity="0.18"/><stop offset="0.35" stop-color="#f2e2cb" stop-opacity="0.31"/><stop offset="0.45" stop-color="#f2e4c9" stop-opacity="0.49"/><stop offset="0.55" stop-color="#f2e6c5" stop-opacity="0.71"/><stop offset="0.65" stop-color="#f2e9c2" stop-opacity="0.96"/><stop offset="0.67" stop-color="#f2e9c1"/></linearGradient><linearGradient id="linear-gradient-4" x1="272.21" y1="565.3" x2="-60.77" y2="89.83" xlink:href="#linear-gradient-2"/><linearGradient id="linear-gradient-5" x1="303.97" y1="543.06" x2="-29.02" y2="67.59" xlink:href="#linear-gradient-2"/><linearGradient id="linear-gradient-6" x1="614.14" y1="470.92" x2="208.14" y2="-123.08" xlink:href="#linear-gradient-3"/><linearGradient id="linear-gradient-7" x1="172.07" y1="585.86" x2="-82.91" y2="206.38" xlink:href="#linear-gradient-2"/><linearGradient id="linear-gradient-8" x1="448.95" y1="517.15" x2="60.95" y2="-44.85" xlink:href="#linear-gradient-3"/><linearGradient id="linear-gradient-9" x1="446.39" y1="583.39" x2="14.39" y2="-44.61" xlink:href="#linear-gradient-3"/><linearGradient id="linear-gradient-10" x1="682.05" y1="373.11" x2="396.05" y2="-64.89" xlink:href="#linear-gradient-3"/><linearGradient id="linear-gradient-11" x1="418.14" y1="416.98" x2="140.65" y2="33" xlink:href="#linear-gradient-3"/><linearGradient id="linear-gradient-12" x1="512.4" y1="491.42" x2="126.4" y2="-84.58" xlink:href="#linear-gradient-3"/><linearGradient id="linear-gradient-13" x1="450.97" y1="393.25" x2="173.48" y2="9.27" xlink:href="#linear-gradient-3"/><linearGradient id="linear-gradient-14" x1="459.68" y1="509.74" x2="71.68" y2="-52.26" xlink:href="#linear-gradient-3"/><linearGradient id="linear-gradient-15" x1="405.27" y1="426.28" x2="127.78" y2="42.3" xlink:href="#linear-gradient-3"/><linearGradient id="linear-gradient-16" x1="980.06" y1="401.6" x2="542.06" y2="-240.4" xlink:href="#linear-gradient-2"/><linearGradient id="linear-gradient-17" x1="784.43" y1="389.99" x2="372.43" y2="-222.01" xlink:href="#linear-gradient-2"/><linearGradient id="linear-gradient-18" x1="1011.01" y1="275.85" x2="651.01" y2="-228.15" xlink:href="#linear-gradient-2"/><linearGradient id="linear-gradient-19" x1="983.03" y1="143.58" x2="822.96" y2="-91.43" xlink:href="#linear-gradient-2"/><linearGradient id="linear-gradient-20" x1="384.42" y1="689.74" x2="-31.06" y2="82.27" gradientTransform="translate(446.89 -93.07) rotate(34.47)" xlink:href="#linear-gradient-2"/><linearGradient id="linear-gradient-21" x1="291.97" y1="551.47" x2="-41.02" y2="75.99" xlink:href="#linear-gradient-2"/><linearGradient id="linear-gradient-22" x1="383.9" y1="690.09" x2="-31.58" y2="82.62" xlink:href="#linear-gradient-2"/><linearGradient id="linear-gradient-23" x1="125.61" y1="605.33" x2="-90.38" y2="281.34" xlink:href="#linear-gradient-2"/><linearGradient id="linear-gradient-24" x1="407.79" y1="592.19" x2="-15.19" y2="-22.78" xlink:href="#linear-gradient-2"/><linearGradient id="linear-gradient-25" x1="512" y1="527.44" x2="512" y2="818.29" gradientUnits="userSpaceOnUse"><stop offset="0.13" stop-color="#f2dfd0" stop-opacity="0"/><stop offset="0.13" stop-color="#f2e0d1" stop-opacity="0.03"/><stop offset="0.2" stop-color="#f8ede4" stop-opacity="0.44"/><stop offset="0.25" stop-color="#fcf7f2" stop-opacity="0.74"/><stop offset="0.29" stop-color="#fefdfb" stop-opacity="0.93"/><stop offset="0.31" stop-color="#fffffe"/><stop offset="0.35" stop-color="#fffffe" stop-opacity="0.97"/><stop offset="0.41" stop-color="#fffffe" stop-opacity="0.89"/><stop offset="0.48" stop-color="#fffffe" stop-opacity="0.76"/><stop offset="0.56" stop-color="#fffffe" stop-opacity="0.58"/><stop offset="0.65" stop-color="#fff" stop-opacity="0.34"/><stop offset="0.74" stop-color="#fff" stop-opacity="0.06"/><stop offset="0.76" stop-color="#fff" stop-opacity="0"/></linearGradient><linearGradient id="linear-gradient-26" x1="512" y1="677.14" x2="512" y2="855.19" gradientUnits="userSpaceOnUse"><stop offset="0" stop-color="#fff" stop-opacity="0"/><stop offset="0.15" stop-color="#fff" stop-opacity="0"/><stop offset="0.44" stop-color="#fff"/><stop offset="0.52" stop-color="#fff"/><stop offset="1" stop-color="#fff"/></linearGradient></defs><title>woods2</title><g class="cls-2"><rect class="cls-3" x="-1" y="-4.72" width="1024" height="645"/><rect class="cls-4" x="542.39" y="-4.72" width="22.35" height="650.58"/><rect class="cls-5" x="698.65" y="-4.72" width="18.35" height="650.58"/><rect class="cls-5" x="649.21" y="-4.72" width="18.35" height="650.58"/><rect class="cls-5" x="599.82" y="-4.72" width="18.35" height="650.58"/><rect class="cls-4" x="510" y="-4.72" width="18.84" height="650.58"/><rect class="cls-4" x="458" y="-4.72" width="22.4" height="650.58"/><rect class="cls-5" x="358.94" y="-4.72" width="22.4" height="650.58"/><rect class="cls-5" x="298.8" y="-4.72" width="22.4" height="650.58"/><rect class="cls-6" x="419.95" y="-4.72" width="17.75" height="650.58"/><rect class="cls-7" x="139" y="-4.72" width="41" height="650"/><polygon class="cls-8" points="276.58 768 283.45 763.28 273.34 763.28 276.58 768"/><polygon class="cls-1" points="-1 763.28 223.43 763.28 -1 436.4 -1 763.28"/><polygon class="cls-1" points="-1 405.11 244.92 763.28 273.34 763.28 -1 363.71 -1 405.11"/><polygon class="cls-1" points="870.76 -4.72 836.72 -4.72 1023 266.6 1023 217.03 870.76 -4.72"/><polygon class="cls-1" points="1023 -4.72 892.25 -4.72 1023 185.73 1023 -4.72"/><polygon class="cls-1" points="766.67 -4.72 1023 368.63 1023 329.2 793.74 -4.72 766.67 -4.72"/><polygon class="cls-9" points="627.67 628.35 603.31 645.08 627.11 679.69 676.1 646.05 228.54 -4.72 193.02 -4.72 627.67 628.35"/><polygon class="cls-10" points="336.07 634.91 -1 143.97 -1 197.46 311.11 652.05 336.07 634.91"/><polygon class="cls-11" points="350.68 624.88 360.1 618.41 -1 92.47 -1 112.67 350.68 624.88"/><polygon class="cls-12" points="755.38 643.28 307.67 -4.72 265.6 -4.72 726.85 662.87 755.38 643.28"/><polygon class="cls-13" points="-1 302.57 -1 363.71 273.34 763.28 283.45 763.28 305.11 748.41 -1 302.57"/><polygon class="cls-14" points="550.33 658.66 94.87 -4.72 82.83 -4.72 543.61 663.27 550.33 658.66"/><polygon class="cls-15" points="529.54 672.94 62.09 -4.72 20.3 -4.72 501.18 692.41 529.54 672.94"/><polygon class="cls-16" points="911.44 632.84 473.7 -4.72 375.55 -4.72 844.73 678.65 911.44 632.84"/><polygon class="cls-17" points="116.68 -4.72 566.58 647.5 550.33 658.66 560.97 674.15 603.31 645.08 156.42 -4.72 116.68 -4.72"/><polygon class="cls-18" points="193.02 -4.72 156.42 -4.72 603.31 645.08 627.67 628.35 193.02 -4.72"/><polygon class="cls-19" points="193.02 -4.72 156.42 -4.72 603.31 645.08 627.67 628.35 193.02 -4.72"/><polygon class="cls-20" points="116.68 -4.72 94.87 -4.72 550.33 658.66 566.58 647.5 116.68 -4.72"/><polygon class="cls-21" points="116.68 -4.72 94.87 -4.72 550.33 658.66 566.58 647.5 116.68 -4.72"/><polygon class="cls-22" points="637.42 -4.72 1023 556.88 1023 368.63 766.67 -4.72 637.42 -4.72"/><rect class="cls-7" x="872" y="-5.72" width="33" height="651"/><polygon class="cls-23" points="943.41 588.34 536.23 -4.72 493.26 -4.72 914.21 608.4 943.41 588.34"/><polygon class="cls-24" points="793.74 -4.72 1023 329.2 1023 266.6 836.72 -4.72 793.74 -4.72"/><polygon class="cls-25" points="1023 185.73 892.25 -4.72 870.76 -4.72 1023 217.03 1023 185.73"/><rect class="cls-26" x="364.59" y="620.57" width="17.72" height="106.25" transform="translate(-315.74 329.67) rotate(-34.47)"/><polygon class="cls-27" points="-1 143.97 336.07 634.91 350.68 624.88 -1 112.67 -1 143.97"/><polygon class="cls-28" points="-1 143.97 336.07 634.91 350.68 624.88 -1 112.67 -1 143.97"/><polygon class="cls-29" points="-1 436.4 223.43 763.28 244.92 763.28 -1 405.11 -1 436.4"/><polygon class="cls-30" points="464.3 659.32 8.39 -4.72 -1 -4.72 -1 12.9 449.7 669.35 464.3 659.32"/><rect class="cls-31" x="258" y="-4.72" width="18" height="650"/><rect class="cls-32" x="217" y="-4.72" width="22" height="650"/><rect class="cls-1" x="459" y="613.28" width="38" height="3" rx="1.33" ry="1.33"/><rect class="cls-33" y="540.28" width="1024" height="214"/><rect class="cls-31" x="737.6" y="-4.72" width="25.79" height="650.58"/><rect class="cls-31" x="791.01" y="-4.72" width="27.91" height="650.58"/><polygon class="cls-7" points="959.17 643 955.77 627.41 955.49 643 946.32 643 949.2 626.03 942.01 643 933.01 643 929.58 618.39 927.26 643 918.08 643 920.96 626.03 913.77 643 904.76 643 901.33 618.39 899.01 643 888.4 643 894.63 618.02 881.73 643 872.14 643 881.65 617.31 866.5 643 861.67 643 862.77 638.2 870.6 603.71 853.19 634.49 848.38 643 844.38 643 842 627.96 838.34 604.77 835.18 628.09 833.14 643 819.64 643 819.59 643 810.4 631.09 800.08 617.7 806.11 633.43 809.79 643 804.1 643 799.29 634.5 781.88 603.71 789.72 638.2 790.81 643 784.93 643 775.88 621.7 780.72 643 770.95 643 762.92 620.71 765.46 643 755.38 643 756.23 620.2 749.93 643 741.95 643 733.92 620.71 736.46 643 726.38 643 727.23 620.2 720.93 643 711.32 643 707.92 627.41 707.64 643 698.47 643 701.35 626.03 694.16 643 685.16 643 681.73 618.39 679.41 643 668.8 643 675.03 618.02 662.12 643 652.54 643 662.04 617.31 646.89 643 642.07 643 643.16 638.2 650.99 603.71 633.59 634.49 628.77 643 623.16 643 630.85 622.85 643.46 589.8 621.9 617.83 602.54 643 596.09 643 592.51 620.29 587.01 585.35 582.25 620.39 579.17 643 573.67 643 567.65 621.2 568.46 643 448.09 643 444.51 620.29 439.01 585.35 434.25 620.4 431.18 642.96 431.22 643 431.2 643 431.18 642.98 431.18 643 431.17 643 431.18 642.96 411.86 617.84 390.3 589.8 402.9 622.85 410.59 643 404.98 643 400.17 634.5 382.76 603.71 390.59 638.2 391.69 643 385.81 643 376.76 621.7 381.6 643 371.83 643 363.8 620.71 366.33 643 356.26 643 357.1 620.2 350.8 643 342.83 643 334.8 620.71 337.33 643 327.26 643 328.1 620.2 321.8 643 305.75 643 298.8 623.71 300.99 643 243.13 643 244.92 627.2 239.23 643 233.58 643 229.12 626.84 229.71 643 222.58 643 224.37 627.2 218.68 643 211.76 643 215.19 627.9 208.77 643 204.61 643 205.38 639.63 210.93 615.23 198.6 637.02 195.19 643 191.21 643 196.66 628.76 205.59 605.39 190.31 625.25 176.64 643 176.63 643 176.62 643 174.45 627.08 171.07 602.22 167.18 626.96 164.64 643 149.91 643 150.76 620.2 144.46 643 136.48 643 128.45 620.71 130.98 643 120.91 643 121.76 620.2 115.46 643 105.85 643 102.45 627.41 102.17 643 93 643 95.88 626.03 88.69 643 79.69 643 76.26 618.39 73.94 643 1 643 1 754 1025 754 1025 643 959.17 643"/><polyline class="cls-7" points="91 -4.72 91 645.28 46 645.28 46 -4.72"/><polyline class="cls-7" points="997.15 -4.72 997.15 645.28 952.15 645.28 952.15 -4.72"/><rect class="cls-34" y="631" width="1024" height="131"/></g></svg>