<svg id="Layer_1" data-name="Layer 1" xmlns="http://www.w3.org/2000/svg" xmlns:xlink="http://www.w3.org/1999/xlink" viewBox="0 0 1024 768"><defs><style>.cls-1{fill:url(#linear-gradient);}.cls-2{fill:url(#linear-gradient-2);}.cls-3{fill:url(#radial-gradient);}.cls-30,.cls-4,.cls-5,.cls-6{fill:#bc3c2e;}.cls-24,.cls-4{opacity:0.2;}.cls-5{opacity:0.4;}.cls-10,.cls-11,.cls-21,.cls-23,.cls-26,.cls-27,.cls-28,.cls-29,.cls-32,.cls-34,.cls-35,.cls-6{opacity:0.3;}.cls-7{fill:#a42823;}.cls-8{fill:none;}.cls-12,.cls-13,.cls-14,.cls-15,.cls-16,.cls-17,.cls-18,.cls-19,.cls-20,.cls-9{opacity:0.5;}.cls-9{fill:url(#linear-gradient-3);}.cls-10{fill:url(#linear-gradient-4);}.cls-11{fill:url(#linear-gradient-5);}.cls-12{fill:url(#linear-gradient-6);}.cls-13{fill:url(#linear-gradient-7);}.cls-14{fill:url(#linear-gradient-8);}.cls-15{fill:url(#linear-gradient-9);}.cls-16{fill:url(#linear-gradient-10);}.cls-17{fill:url(#linear-gradient-11);}.cls-18{fill:url(#linear-gradient-12);}.cls-19{fill:url(#linear-gradient-13);}.cls-20{fill:url(#linear-gradient-14);}.cls-21{fill:url(#linear-gradient-15);}.cls-22{fill:#d6513c;}.cls-23{fill:url(#linear-gradient-16);}.cls-24{fill:url(#linear-gradient-17);}.cls-25{opacity:0.1;fill:url(#linear-gradient-18);}.cls-26{fill:url(#linear-gradient-19);}.cls-27{fill:url(#linear-gradient-20);}.cls-28{fill:url(#linear-gradient-21);}.cls-29{fill:url(#linear-gradient-22);}.cls-31{fill:url(#linear-gradient-23);}.cls-32{fill:url(#linear-gradient-24);}.cls-33{fill:#a3a54e;}.cls-34{fill:url(#linear-gradient-25);}.cls-35{fill:url(#linear-gradient-26);}.cls-36{fill:url(#linear-gradient-27);}.cls-37{fill:url(#linear-gradient-28);}</style><linearGradient id="linear-gradient" x1="512" y1="629.14" x2="512" y2="807.18" gradientUnits="userSpaceOnUse"><stop offset="0" stop-color="#fff" stop-opacity="0"/><stop offset="0.15" stop-color="#fff" stop-opacity="0"/><stop offset="0.21" stop-color="#fff" stop-opacity="0.22"/><stop offset="0.29" stop-color="#fff" stop-opacity="0.5"/><stop offset="0.36" stop-color="#fff" stop-opacity="0.71"/><stop offset="0.42" stop-color="#fff" stop-opacity="0.87"/><stop offset="0.47" stop-color="#fff" stop-opacity="0.96"/><stop offset="0.5" stop-color="#fff"/><stop offset="1" stop-color="#fff"/></linearGradient><linearGradient id="linear-gradient-2" x1="512" y1="684.86" x2="512" y2="-75.68" gradientUnits="userSpaceOnUse"><stop offset="0" stop-color="#98d1c7"/><stop offset="0.17" stop-color="#bac6af"/><stop offset="0.48" stop-color="#f4b285"/><stop offset="1" stop-color="#b83e39"/></linearGradient><radialGradient id="radial-gradient" cx="69" cy="63" r="350.21" gradientUnits="userSpaceOnUse"><stop offset="0" stop-color="#f2e9c1"/><stop offset="0.21" stop-color="#f2e9c1" stop-opacity="0.71"/><stop offset="0.42" stop-color="#f2e9c1" stop-opacity="0.46"/><stop offset="0.61" stop-color="#f2e9c1" stop-opacity="0.26"/><stop offset="0.77" stop-color="#f2e9c1" stop-opacity="0.12"/><stop offset="0.91" stop-color="#f2e9c1" stop-opacity="0.03"/><stop offset="1" stop-color="#f2e9c1" stop-opacity="0"/></radialGradient><linearGradient id="linear-gradient-3" x1="529.96" y1="485.03" x2="143.96" y2="-90.97" gradientUnits="userSpaceOnUse"><stop offset="0" stop-color="#f2dfd0" stop-opacity="0"/><stop offset="0.07" stop-color="#f2dfd0" stop-opacity="0.02"/><stop offset="0.16" stop-color="#f2e0cf" stop-opacity="0.08"/><stop offset="0.25" stop-color="#f2e1cd" stop-opacity="0.18"/><stop offset="0.35" stop-color="#f2e2cb" stop-opacity="0.31"/><stop offset="0.45" stop-color="#f2e4c9" stop-opacity="0.49"/><stop offset="0.55" stop-color="#f2e6c5" stop-opacity="0.71"/><stop offset="0.65" stop-color="#f2e9c2" stop-opacity="0.96"/><stop offset="0.67" stop-color="#f2e9c1"/></linearGradient><linearGradient id="linear-gradient-4" x1="273.21" y1="570.02" x2="-59.77" y2="94.54" gradientUnits="userSpaceOnUse"><stop offset="0" stop-color="#f2dfd0" stop-opacity="0"/><stop offset="0.2" stop-color="#f2e2cb" stop-opacity="0.33"/><stop offset="0.43" stop-color="#f2e6c6" stop-opacity="0.69"/><stop offset="0.59" stop-color="#f2e8c2" stop-opacity="0.91"/><stop offset="0.67" stop-color="#f2e9c1"/></linearGradient><linearGradient id="linear-gradient-5" x1="304.97" y1="547.78" x2="-28.02" y2="72.3" xlink:href="#linear-gradient-4"/><linearGradient id="linear-gradient-6" x1="615.14" y1="475.64" x2="209.14" y2="-118.36" xlink:href="#linear-gradient-3"/><linearGradient id="linear-gradient-7" x1="449.95" y1="521.87" x2="61.95" y2="-40.13" xlink:href="#linear-gradient-3"/><linearGradient id="linear-gradient-8" x1="447.39" y1="588.1" x2="15.39" y2="-39.9" xlink:href="#linear-gradient-3"/><linearGradient id="linear-gradient-9" x1="683.05" y1="377.83" x2="397.05" y2="-60.17" xlink:href="#linear-gradient-3"/><linearGradient id="linear-gradient-10" x1="419.14" y1="421.7" x2="141.65" y2="37.71" xlink:href="#linear-gradient-3"/><linearGradient id="linear-gradient-11" x1="513.4" y1="496.13" x2="127.4" y2="-79.87" xlink:href="#linear-gradient-3"/><linearGradient id="linear-gradient-12" x1="451.97" y1="397.97" x2="174.48" y2="13.99" xlink:href="#linear-gradient-3"/><linearGradient id="linear-gradient-13" x1="460.68" y1="514.46" x2="72.68" y2="-47.54" xlink:href="#linear-gradient-3"/><linearGradient id="linear-gradient-14" x1="406.27" y1="431" x2="128.78" y2="47.02" xlink:href="#linear-gradient-3"/><linearGradient id="linear-gradient-15" x1="981.06" y1="406.32" x2="543.06" y2="-235.68" xlink:href="#linear-gradient-4"/><linearGradient id="linear-gradient-16" x1="785.43" y1="394.71" x2="373.43" y2="-217.29" xlink:href="#linear-gradient-4"/><linearGradient id="linear-gradient-17" x1="1012.01" y1="280.57" x2="652.01" y2="-223.43" xlink:href="#linear-gradient-4"/><linearGradient id="linear-gradient-18" x1="984.03" y1="148.3" x2="823.96" y2="-86.71" xlink:href="#linear-gradient-4"/><linearGradient id="linear-gradient-19" x1="385.42" y1="694.45" x2="-30.06" y2="86.98" gradientTransform="translate(449.74 -92.81) rotate(34.47)" xlink:href="#linear-gradient-4"/><linearGradient id="linear-gradient-20" x1="292.97" y1="556.18" x2="-40.02" y2="80.71" xlink:href="#linear-gradient-4"/><linearGradient id="linear-gradient-21" x1="384.9" y1="694.81" x2="-30.58" y2="87.34" xlink:href="#linear-gradient-4"/><linearGradient id="linear-gradient-22" x1="408.79" y1="596.91" x2="-14.19" y2="-18.06" xlink:href="#linear-gradient-4"/><linearGradient id="linear-gradient-23" x1="513" y1="532.15" x2="513" y2="823.01" gradientUnits="userSpaceOnUse"><stop offset="0.13" stop-color="#f2dfd0" stop-opacity="0"/><stop offset="0.13" stop-color="#f2e0d1" stop-opacity="0.03"/><stop offset="0.2" stop-color="#f8ede4" stop-opacity="0.44"/><stop offset="0.25" stop-color="#fcf7f2" stop-opacity="0.74"/><stop offset="0.29" stop-color="#fefdfb" stop-opacity="0.93"/><stop offset="0.31" stop-color="#fffffe"/><stop offset="0.35" stop-color="#fffffe" stop-opacity="0.97"/><stop offset="0.41" stop-color="#fffffe" stop-opacity="0.89"/><stop offset="0.48" stop-color="#fffffe" stop-opacity="0.76"/><stop offset="0.56" stop-color="#fffffe" stop-opacity="0.58"/><stop offset="0.65" stop-color="#fff" stop-opacity="0.34"/><stop offset="0.74" stop-color="#fff" stop-opacity="0.06"/><stop offset="0.76" stop-color="#fff" stop-opacity="0"/></linearGradient><linearGradient id="linear-gradient-24" x1="441" y1="573.51" x2="13.12" y2="-48.59" xlink:href="#linear-gradient-4"/><linearGradient id="linear-gradient-25" x1="172.65" y1="590.87" x2="-82.35" y2="211.38" xlink:href="#linear-gradient-4"/><linearGradient id="linear-gradient-26" x1="125.92" y1="610.51" x2="-90.07" y2="286.52" xlink:href="#linear-gradient-4"/><linearGradient id="linear-gradient-27" x1="8866" y1="715.68" x2="8866" y2="888.89" gradientTransform="translate(9378 805) rotate(180)" gradientUnits="userSpaceOnUse"><stop offset="0" stop-color="#fff" stop-opacity="0"/><stop offset="0.15" stop-color="#fff" stop-opacity="0"/><stop offset="0.46" stop-color="#fff"/><stop offset="0.5" stop-color="#fff"/><stop offset="1" stop-color="#fff"/></linearGradient><linearGradient id="linear-gradient-28" x1="512" y1="683.14" x2="512" y2="861.19" gradientUnits="userSpaceOnUse"><stop offset="0" stop-color="#fff" stop-opacity="0"/><stop offset="0.15" stop-color="#fff" stop-opacity="0"/><stop offset="0.44" stop-color="#fff"/><stop offset="0.52" stop-color="#fff"/><stop offset="1" stop-color="#fff"/></linearGradient></defs><title>woods</title><rect class="cls-1" y="637" width="1024" height="131"/><rect class="cls-2" width="1024" height="645"/><rect class="cls-3" width="330.02" height="330.02"/><rect class="cls-4" x="543.39" width="22.35" height="650.58"/><rect class="cls-5" x="699.65" width="18.35" height="650.58"/><rect class="cls-5" x="650.21" width="18.35" height="650.58"/><rect class="cls-5" x="600.82" width="18.35" height="650.58"/><rect class="cls-4" x="511" width="18.84" height="650.58"/><rect class="cls-4" x="459" width="22.4" height="650.58"/><rect class="cls-5" x="359.94" width="22.4" height="650.58"/><rect class="cls-5" x="299.8" width="22.4" height="650.58"/><rect class="cls-6" x="420.95" width="17.75" height="650.58"/><rect class="cls-7" x="140" width="41" height="650"/><polygon class="cls-8" points="0 768 224.43 768 0 441.12 0 768"/><polygon class="cls-8" points="0 409.82 245.92 768 274.34 768 0 368.43 0 409.82"/><polygon class="cls-8" points="871.76 0 837.72 0 1024 271.32 1024 221.74 871.76 0"/><polygon class="cls-8" points="1024 0 893.25 0 1024 190.44 1024 0"/><polygon class="cls-8" points="767.67 0 1024 373.34 1024 333.92 794.74 0 767.67 0"/><polygon class="cls-9" points="628.67 633.07 604.31 649.8 628.11 684.4 677.1 650.77 229.54 0 194.02 0 628.67 633.07"/><polygon class="cls-10" points="337.07 639.63 0 148.68 0 202.18 312.11 656.76 337.07 639.63"/><polygon class="cls-11" points="351.68 629.6 361.1 623.13 0 97.19 0 117.38 351.68 629.6"/><polygon class="cls-12" points="756.38 648 308.67 0 266.6 0 727.85 667.59 756.38 648"/><polygon class="cls-13" points="551.33 663.38 95.87 0 83.83 0 544.61 667.99 551.33 663.38"/><polygon class="cls-14" points="530.54 677.65 63.09 0 21.3 0 502.18 697.13 530.54 677.65"/><polygon class="cls-15" points="912.44 637.56 474.7 0 376.55 0 845.73 683.36 912.44 637.56"/><polygon class="cls-16" points="117.68 0 567.58 652.22 551.33 663.38 561.97 678.87 604.31 649.8 157.42 0 117.68 0"/><polygon class="cls-17" points="194.02 0 157.42 0 604.31 649.8 628.67 633.07 194.02 0"/><polygon class="cls-18" points="194.02 0 157.42 0 604.31 649.8 628.67 633.07 194.02 0"/><polygon class="cls-19" points="117.68 0 95.87 0 551.33 663.38 567.58 652.22 117.68 0"/><polygon class="cls-20" points="117.68 0 95.87 0 551.33 663.38 567.58 652.22 117.68 0"/><polygon class="cls-21" points="638.42 0 1024 561.6 1024 373.34 767.67 0 638.42 0"/><rect class="cls-22" x="873" width="33" height="650"/><polygon class="cls-23" points="944.41 593.06 537.23 0 494.26 0 915.21 613.12 944.41 593.06"/><polygon class="cls-24" points="794.74 0 1024 333.92 1024 271.32 837.72 0 794.74 0"/><polygon class="cls-25" points="1024 190.44 893.25 0 871.76 0 1024 221.74 1024 190.44"/><rect class="cls-26" x="365.59" y="625.29" width="17.72" height="106.25" transform="translate(-318.23 331.07) rotate(-34.47)"/><polygon class="cls-27" points="0 148.68 337.07 639.63 351.68 629.6 0 117.38 0 148.68"/><polygon class="cls-28" points="0 148.68 337.07 639.63 351.68 629.6 0 117.38 0 148.68"/><polygon class="cls-29" points="465.3 664.04 9.39 0 0 0 0 17.62 450.7 674.06 465.3 664.04"/><rect class="cls-30" x="259" width="18" height="650"/><rect class="cls-22" x="218" width="22" height="650"/><rect class="cls-8" x="460" y="618" width="38" height="3" rx="1.33" ry="1.33"/><rect class="cls-31" x="1" y="545" width="1024" height="214"/><rect class="cls-22" x="738.6" width="25.79" height="650.58"/><rect class="cls-22" x="792.01" width="27.91" height="650.58"/><rect class="cls-22" x="49.42" width="45" height="647.5"/><polyline class="cls-7" points="998.15 0 998.15 650 953.15 650 953.15 0"/><polygon class="cls-32" points="106.01 0 0 0 0 17.62 450.7 674.06 522.59 606.75 106.01 0"/><polygon class="cls-33" points="958.17 648 954.77 632.41 954.49 648 945.32 648 948.2 631.03 941.01 648 932.01 648 928.58 623.39 926.26 648 917.08 648 919.96 631.03 912.77 648 903.76 648 900.33 623.39 898.01 648 887.4 648 893.63 623.02 880.73 648 871.14 648 880.65 622.31 865.5 648 860.67 648 861.77 643.2 869.6 608.71 852.19 639.49 847.38 648 843.38 648 841 632.96 837.34 609.77 834.18 633.09 832.14 648 818.64 648 818.59 648 809.4 636.09 799.08 622.7 805.11 638.43 808.79 648 803.1 648 798.29 639.5 780.88 608.71 788.72 643.2 789.81 648 783.93 648 774.88 626.7 779.72 648 769.95 648 761.92 625.71 764.46 648 754.38 648 755.23 625.2 748.93 648 740.95 648 732.92 625.71 735.46 648 725.38 648 726.23 625.2 719.93 648 710.32 648 706.92 632.41 706.64 648 697.47 648 700.35 631.03 693.16 648 684.16 648 680.73 623.39 678.41 648 667.8 648 674.03 623.02 661.12 648 651.54 648 661.04 622.31 645.89 648 641.07 648 642.16 643.2 649.99 608.71 632.59 639.49 627.77 648 622.16 648 629.85 627.85 642.46 594.8 620.9 622.83 601.54 648 595.09 648 591.51 625.29 586.01 590.35 581.25 625.39 578.17 648 572.67 648 566.65 626.2 567.46 648 447.09 648 443.51 625.29 438.01 590.35 433.25 625.4 430.18 647.96 430.22 648 430.2 648 430.18 647.98 430.18 648 430.17 648 430.18 647.96 410.86 622.84 389.3 594.8 401.9 627.85 409.59 648 403.98 648 399.17 639.5 381.76 608.71 389.59 643.2 390.69 648 384.81 648 375.76 626.7 380.6 648 370.83 648 362.8 625.71 365.33 648 355.26 648 356.1 625.2 349.8 648 341.83 648 333.8 625.71 336.33 648 326.26 648 327.1 625.2 320.8 648 304.75 648 297.8 628.71 299.99 648 242.13 648 243.92 632.2 238.23 648 232.58 648 228.12 631.84 228.71 648 221.58 648 223.37 632.2 217.68 648 210.76 648 214.19 632.9 207.77 648 203.61 648 204.38 644.63 209.93 620.23 197.6 642.02 194.19 648 190.21 648 195.66 633.76 204.59 610.39 189.31 630.25 175.64 648 175.63 648 175.62 648 173.45 632.08 170.07 607.22 166.18 631.96 163.64 648 148.91 648 149.76 625.2 143.46 648 135.48 648 127.45 625.71 129.98 648 119.91 648 120.76 625.2 114.46 648 104.85 648 101.45 632.41 101.17 648 92 648 94.88 631.03 87.69 648 78.69 648 75.26 623.39 72.94 648 0 648 0 768 1024 768 1024 648 958.17 648"/><polygon class="cls-34" points="0 307.29 0 368.43 205.67 668 247.65 668 0 307.29"/><polygon class="cls-35" points="0 441.12 155.76 668 177.25 668 0 409.82 0 441.12"/><rect class="cls-36" width="1024" height="97"/><rect class="cls-37" y="637" width="1024" height="131"/></svg>