<svg id="Layer_1" data-name="Layer 1" xmlns="http://www.w3.org/2000/svg" viewBox="0 0 176.08 47"><defs><style>.cls-1{fill:#c24333;}</style></defs><title>word_mark</title><path class="cls-1" d="M14.09,1.93,9.36,12.37l8.15,18a3.92,3.92,0,0,1-3.75,5.56l-.21,0a4,4,0,0,1-3.44-3.64,4,4,0,0,1,4.3-4.61v-.06L10.25,18.8a13.57,13.57,0,0,0,3.28,26.57,13.58,13.58,0,0,0,12.94-8,10,10,0,0,0,0-8.21Z"/><polygon class="cls-1" points="25.35 1.59 20.63 11.94 29.45 31.33 38.9 31.33 25.35 1.59"/><polyline class="cls-1" points="30.6 12.28 25.34 1.79 25.34 22.48 29.45 31.33 39.22 31.33 34.62 22.33 35.25 22.33 30.09 12.33 30.42 12.33"/><path class="cls-1" d="M63.13,19.61h3.58v11.1H63.13V29.36a3.7,3.7,0,0,1-3.29,1.72,5.26,5.26,0,0,1-4.16-1.69,5.87,5.87,0,0,1-1.62-4.16,6.32,6.32,0,0,1,1.72-4.48,5.35,5.35,0,0,1,3.86-1.52,4.16,4.16,0,0,1,3.48,1.62Zm-4.55,3.51a2.78,2.78,0,0,0-.82,2,2.86,2.86,0,0,0,.75,2,2.94,2.94,0,0,0,2.12.87,2.65,2.65,0,0,0,1.87-.77,2.94,2.94,0,0,0,0-4.13,3,3,0,0,0-2-.77A2.82,2.82,0,0,0,58.57,23.12Z"/><path class="cls-1" d="M71.54,12.79a2.09,2.09,0,1,1-2.09,2.09A2.07,2.07,0,0,1,71.54,12.79Zm1.79,6.82v16.8H69.75V19.61Z"/><path class="cls-1" d="M76.37,19.61H80V20.9a3.5,3.5,0,0,1,3.11-1.57,4.14,4.14,0,0,1,2.09.5,3.29,3.29,0,0,1,1.34,1.54,4.27,4.27,0,0,1,3.78-2,4.45,4.45,0,0,1,3.11,1,4.48,4.48,0,0,1,1.15,3.31v7H91V25.08a3.67,3.67,0,0,0-.47-2.17,1.65,1.65,0,0,0-1.29-.6,1.72,1.72,0,0,0-1.39.67,3.56,3.56,0,0,0-.55,2.19v5.53H83.66V24.93a3,3,0,0,0-.57-2.17,1.61,1.61,0,0,0-1.19-.45,1.75,1.75,0,0,0-1.25.45A3.37,3.37,0,0,0,80,25v5.67H76.37Z"/><path class="cls-1" d="M115.24,30.71h-3.58V29.36a4,4,0,0,1-3.51,1.72,5,5,0,0,1-3.81-1.52,6.22,6.22,0,0,1-1.74-4.46,5.93,5.93,0,0,1,1.74-4.38,5.59,5.59,0,0,1,3.86-1.49,4.14,4.14,0,0,1,3.46,1.62V12.56h3.58Zm-8.09-7.64a2.86,2.86,0,0,0-.87,2.12,2.81,2.81,0,0,0,.87,2A2.75,2.75,0,0,0,109,28a3.05,3.05,0,0,0,2-.82,2.7,2.7,0,0,0,.82-2,2.86,2.86,0,0,0-.8-2,2.63,2.63,0,0,0-2-.82A2.6,2.6,0,0,0,107.15,23.07Z"/><path class="cls-1" d="M129.5,25.78h-8.29a3,3,0,0,0,.67,1.89,2.4,2.4,0,0,0,1.84.7,2.94,2.94,0,0,0,1.44-.32,2.18,2.18,0,0,0,.77-.92l3.38.35a5,5,0,0,1-2.14,2.79,6.59,6.59,0,0,1-3.51.82,5.75,5.75,0,0,1-4.43-1.59,6,6,0,0,1-1.67-4.28,6.32,6.32,0,0,1,1.69-4.38,6.57,6.57,0,0,1,8.66.07,6.33,6.33,0,0,1,1.57,4.5Zm-3.31-2.14a2.82,2.82,0,0,0-.72-1.29,2.63,2.63,0,0,0-3.51.1,2.5,2.5,0,0,0-.62,1.19Z"/><path class="cls-1" d="M138.53,22.44a4.07,4.07,0,0,0-2-.62,1.53,1.53,0,0,0-1,.32.77.77,0,0,0-.22.5.58.58,0,0,0,.35.5,6.51,6.51,0,0,0,1.07.37l.95.3a4.72,4.72,0,0,1,1.84,1,2.65,2.65,0,0,1,.87,2.12,4,4,0,0,1-1.14,2.91,4.8,4.8,0,0,1-3.61,1.27,6.59,6.59,0,0,1-4.55-1.59l1.52-2.41a6.13,6.13,0,0,0,1.22.82,3.35,3.35,0,0,0,1.49.35,2,2,0,0,0,1.12-.25.94.94,0,0,0,.37-.72.73.73,0,0,0-.4-.65,4.71,4.71,0,0,0-1.09-.4l-.9-.27a4.42,4.42,0,0,1-1.79-1,2.74,2.74,0,0,1-.8-2,3.43,3.43,0,0,1,1.07-2.56,4.89,4.89,0,0,1,3.36-1.12,7,7,0,0,1,3.68.95Z"/><path class="cls-1" d="M144.58,12.79a2.09,2.09,0,1,1-2.09,2.09A2.07,2.07,0,0,1,144.58,12.79Zm1.79,6.82v11.1h-3.58V19.61Z"/><path class="cls-1" d="M157.85,19.61h3.58V30a6.49,6.49,0,0,1-1.37,4.73,6.33,6.33,0,0,1-4.68,1.64A6.92,6.92,0,0,1,150.75,35a5,5,0,0,1-1.67-2.94H153a1.84,1.84,0,0,0,.8,1.09,3,3,0,0,0,1.54.37,2.52,2.52,0,0,0,1.79-.6,3.3,3.3,0,0,0,.72-2.31V29.34A3.49,3.49,0,0,1,154.53,31a5.46,5.46,0,0,1-4.06-1.57,5.78,5.78,0,0,1-1.62-4.18,6.35,6.35,0,0,1,1.64-4.43,5.45,5.45,0,0,1,4-1.59,3.69,3.69,0,0,1,3.31,1.67Zm-4.46,3.46a3.05,3.05,0,0,0-.85,2.07,2.93,2.93,0,0,0,.77,2,2.66,2.66,0,0,0,2,.8,2.76,2.76,0,0,0,1.94-.72,2.93,2.93,0,0,0,.87-2.12,2.82,2.82,0,0,0-.85-2,3,3,0,0,0-1.94-.7A2.91,2.91,0,0,0,153.39,23.07Z"/><path class="cls-1" d="M164.21,19.61h3.58v1.32a4.06,4.06,0,0,1,3.44-1.62,4.38,4.38,0,0,1,3.19,1.12,4.35,4.35,0,0,1,1.12,3.26v7H172V25a3.08,3.08,0,0,0-.6-2.21,1.88,1.88,0,0,0-1.37-.5,2,2,0,0,0-1.49.6,2.84,2.84,0,0,0-.7,2.12v5.7h-3.58Z"/></svg>